<?xml version="1.0" encoding="utf-8" standalone="no"?>
<!DOCTYPE svg PUBLIC "-//W3C//DTD SVG 1.1//EN"
  "http://www.w3.org/Graphics/SVG/1.1/DTD/svg11.dtd">
<svg xmlns:xlink="http://www.w3.org/1999/xlink" width="432pt" height="288pt" viewBox="0 0 432 288" xmlns="http://www.w3.org/2000/svg" version="1.1">
 <metadata>
  <rdf:RDF xmlns:dc="http://purl.org/dc/elements/1.1/" xmlns:cc="http://creativecommons.org/ns#" xmlns:rdf="http://www.w3.org/1999/02/22-rdf-syntax-ns#">
   <cc:Work>
    <dc:type rdf:resource="http://purl.org/dc/dcmitype/StillImage"/>
    <dc:date>2022-10-24T21:18:46.644744</dc:date>
    <dc:format>image/svg+xml</dc:format>
    <dc:creator>
     <cc:Agent>
      <dc:title>Matplotlib v3.5.2, https://matplotlib.org/</dc:title>
     </cc:Agent>
    </dc:creator>
   </cc:Work>
  </rdf:RDF>
 </metadata>
 <defs>
  <style type="text/css">*{stroke-linejoin: round; stroke-linecap: butt}</style>
 </defs>
 <g id="figure_1">
  <g id="patch_1">
   <path d="M 0 288 
L 432 288 
L 432 0 
L 0 0 
z
" style="fill: #ffffff"/>
  </g>
  <g id="axes_1">
   <g id="patch_2">
    <path d="M 0 288 
L 345.6 288 
L 345.6 57.6 
L 0 57.6 
z
" style="fill: #ffffff"/>
   </g>
   <g id="matplotlib.axis_1">
    <g id="xtick_1">
     <g id="line2d_1">
      <defs>
       <path id="m8a3950f472" d="M 0 0 
L 0 3.5 
" style="stroke: #000000; stroke-width: 0.8"/>
      </defs>
      <g>
       <use xlink:href="#m8a3950f472" x="46.791249" y="288" style="stroke: #000000; stroke-width: 0.8"/>
      </g>
     </g>
     <g id="text_1">
      <!-- −4 -->
      <g transform="translate(39.420156 302.598437)scale(0.1 -0.1)">
       <defs>
        <path id="DejaVuSans-2212" d="M 678 2272 
L 4684 2272 
L 4684 1741 
L 678 1741 
L 678 2272 
z
" transform="scale(0.015625)"/>
        <path id="DejaVuSans-34" d="M 2419 4116 
L 825 1625 
L 2419 1625 
L 2419 4116 
z
M 2253 4666 
L 3047 4666 
L 3047 1625 
L 3713 1625 
L 3713 1100 
L 3047 1100 
L 3047 0 
L 2419 0 
L 2419 1100 
L 313 1100 
L 313 1709 
L 2253 4666 
z
" transform="scale(0.015625)"/>
       </defs>
       <use xlink:href="#DejaVuSans-2212"/>
       <use xlink:href="#DejaVuSans-34" x="83.789062"/>
      </g>
     </g>
    </g>
    <g id="xtick_2">
     <g id="line2d_2">
      <g>
       <use xlink:href="#m8a3950f472" x="109.017793" y="288" style="stroke: #000000; stroke-width: 0.8"/>
      </g>
     </g>
     <g id="text_2">
      <!-- −2 -->
      <g transform="translate(101.646699 302.598437)scale(0.1 -0.1)">
       <defs>
        <path id="DejaVuSans-32" d="M 1228 531 
L 3431 531 
L 3431 0 
L 469 0 
L 469 531 
Q 828 903 1448 1529 
Q 2069 2156 2228 2338 
Q 2531 2678 2651 2914 
Q 2772 3150 2772 3378 
Q 2772 3750 2511 3984 
Q 2250 4219 1831 4219 
Q 1534 4219 1204 4116 
Q 875 4013 500 3803 
L 500 4441 
Q 881 4594 1212 4672 
Q 1544 4750 1819 4750 
Q 2544 4750 2975 4387 
Q 3406 4025 3406 3419 
Q 3406 3131 3298 2873 
Q 3191 2616 2906 2266 
Q 2828 2175 2409 1742 
Q 1991 1309 1228 531 
z
" transform="scale(0.015625)"/>
       </defs>
       <use xlink:href="#DejaVuSans-2212"/>
       <use xlink:href="#DejaVuSans-32" x="83.789062"/>
      </g>
     </g>
    </g>
    <g id="xtick_3">
     <g id="line2d_3">
      <g>
       <use xlink:href="#m8a3950f472" x="171.244336" y="288" style="stroke: #000000; stroke-width: 0.8"/>
      </g>
     </g>
     <g id="text_3">
      <!-- 0 -->
      <g transform="translate(168.063086 302.598437)scale(0.1 -0.1)">
       <defs>
        <path id="DejaVuSans-30" d="M 2034 4250 
Q 1547 4250 1301 3770 
Q 1056 3291 1056 2328 
Q 1056 1369 1301 889 
Q 1547 409 2034 409 
Q 2525 409 2770 889 
Q 3016 1369 3016 2328 
Q 3016 3291 2770 3770 
Q 2525 4250 2034 4250 
z
M 2034 4750 
Q 2819 4750 3233 4129 
Q 3647 3509 3647 2328 
Q 3647 1150 3233 529 
Q 2819 -91 2034 -91 
Q 1250 -91 836 529 
Q 422 1150 422 2328 
Q 422 3509 836 4129 
Q 1250 4750 2034 4750 
z
" transform="scale(0.015625)"/>
       </defs>
       <use xlink:href="#DejaVuSans-30"/>
      </g>
     </g>
    </g>
    <g id="xtick_4">
     <g id="line2d_4">
      <g>
       <use xlink:href="#m8a3950f472" x="233.47088" y="288" style="stroke: #000000; stroke-width: 0.8"/>
      </g>
     </g>
     <g id="text_4">
      <!-- 2 -->
      <g transform="translate(230.28963 302.598437)scale(0.1 -0.1)">
       <use xlink:href="#DejaVuSans-32"/>
      </g>
     </g>
    </g>
    <g id="xtick_5">
     <g id="line2d_5">
      <g>
       <use xlink:href="#m8a3950f472" x="295.697423" y="288" style="stroke: #000000; stroke-width: 0.8"/>
      </g>
     </g>
     <g id="text_5">
      <!-- 4 -->
      <g transform="translate(292.516173 302.598437)scale(0.1 -0.1)">
       <use xlink:href="#DejaVuSans-34"/>
      </g>
     </g>
    </g>
   </g>
   <g id="matplotlib.axis_2">
    <g id="ytick_1">
     <g id="line2d_6">
      <defs>
       <path id="m0a7d76e287" d="M 0 0 
L -3.5 0 
" style="stroke: #000000; stroke-width: 0.8"/>
      </defs>
      <g>
       <use xlink:href="#m0a7d76e287" x="0" y="264.96" style="stroke: #000000; stroke-width: 0.8"/>
      </g>
     </g>
     <g id="text_6">
      <!-- −4 -->
      <g transform="translate(-21.742188 268.759219)scale(0.1 -0.1)">
       <use xlink:href="#DejaVuSans-2212"/>
       <use xlink:href="#DejaVuSans-34" x="83.789062"/>
      </g>
     </g>
    </g>
    <g id="ytick_2">
     <g id="line2d_7">
      <g>
       <use xlink:href="#m0a7d76e287" x="0" y="218.88" style="stroke: #000000; stroke-width: 0.8"/>
      </g>
     </g>
     <g id="text_7">
      <!-- −2 -->
      <g transform="translate(-21.742188 222.679219)scale(0.1 -0.1)">
       <use xlink:href="#DejaVuSans-2212"/>
       <use xlink:href="#DejaVuSans-32" x="83.789062"/>
      </g>
     </g>
    </g>
    <g id="ytick_3">
     <g id="line2d_8">
      <g>
       <use xlink:href="#m0a7d76e287" x="0" y="172.8" style="stroke: #000000; stroke-width: 0.8"/>
      </g>
     </g>
     <g id="text_8">
      <!-- 0 -->
      <g transform="translate(-13.3625 176.599219)scale(0.1 -0.1)">
       <use xlink:href="#DejaVuSans-30"/>
      </g>
     </g>
    </g>
    <g id="ytick_4">
     <g id="line2d_9">
      <g>
       <use xlink:href="#m0a7d76e287" x="0" y="126.72" style="stroke: #000000; stroke-width: 0.8"/>
      </g>
     </g>
     <g id="text_9">
      <!-- 2 -->
      <g transform="translate(-13.3625 130.519219)scale(0.1 -0.1)">
       <use xlink:href="#DejaVuSans-32"/>
      </g>
     </g>
    </g>
    <g id="ytick_5">
     <g id="line2d_10">
      <g>
       <use xlink:href="#m0a7d76e287" x="0" y="80.64" style="stroke: #000000; stroke-width: 0.8"/>
      </g>
     </g>
     <g id="text_10">
      <!-- 4 -->
      <g transform="translate(-13.3625 84.439219)scale(0.1 -0.1)">
       <use xlink:href="#DejaVuSans-34"/>
      </g>
     </g>
    </g>
   </g>
   <g id="line2d_11">
    <path d="M 15.733764 289 
L 15.864657 205.131066 
L 16.08245 187.904432 
L 16.36247 181.867892 
L 16.704716 178.965583 
L 17.109188 177.329566 
L 17.575887 176.313049 
L 18.135926 175.608216 
L 18.851531 175.076799 
L 19.78493 174.672241 
L 21.1228 174.351725 
L 23.11405 174.122245 
L 26.100924 174.017098 
L 29.958969 174.105054 
L 33.505882 174.396407 
L 36.15051 174.823435 
L 38.110647 175.356308 
L 39.57297 175.974275 
L 40.724161 176.694021 
L 41.65756 177.533633 
L 42.435391 178.524405 
L 43.119883 179.758814 
L 43.711035 181.280804 
L 44.239961 183.254765 
L 44.70666 185.842738 
L 45.142246 189.595859 
L 45.515605 194.86939 
L 45.826738 202.398735 
L 46.106757 215.045551 
L 46.32455 235.391944 
L 46.51123 278.043628 
L 46.536801 289 
M 46.760136 289 
L 46.760136 -1 
M 46.965931 -1 
L 47.164609 91.322983 
L 47.444628 125.584796 
L 47.786874 141.26921 
L 48.191347 149.899598 
L 48.658046 155.189692 
L 49.186971 158.671261 
L 49.778123 161.079362 
L 50.431502 162.805181 
L 51.147107 164.073129 
L 51.956053 165.050567 
L 52.858337 165.794417 
L 53.916189 166.376199 
L 55.160719 166.803384 
L 56.654157 167.072859 
L 58.365386 167.150523 
L 60.232183 167.009583 
L 62.067866 166.652073 
L 63.779096 166.098525 
L 65.334759 165.36211 
L 66.703743 164.467093 
L 67.917161 163.406521 
L 69.006125 162.155473 
L 70.00175 160.661675 
L 70.904035 158.896074 
L 71.744093 156.743281 
L 72.521925 154.106551 
L 73.23753 150.859929 
L 73.890909 146.839726 
L 74.513175 141.52202 
L 75.073213 134.687009 
L 75.571026 125.806563 
L 76.037725 113.123591 
L 76.442197 95.525292 
L 76.784443 70.65045 
L 77.095576 29.707887 
L 77.234599 -1 
M 77.873408 -1 
L 77.873408 289 
M 78.980496 289 
L 79.366845 259.759196 
L 79.833544 240.140038 
L 80.36247 226.985208 
L 80.953622 217.762653 
L 81.575887 211.343079 
L 82.260379 206.485722 
L 82.975984 202.898875 
L 83.753816 200.093784 
L 84.562761 197.976905 
L 85.40282 196.374222 
L 86.273991 195.173374 
L 87.176276 194.300691 
L 88.109674 193.708396 
L 89.043072 193.37449 
L 90.007584 193.26267 
L 91.003209 193.372109 
L 92.029947 193.713058 
L 93.087798 194.308265 
L 94.145649 195.166578 
L 95.2035 196.318791 
L 96.261351 197.814034 
L 97.288089 199.662661 
L 98.283714 201.922278 
L 99.248226 204.673307 
L 100.181624 208.026889 
L 101.083909 212.137575 
L 101.923967 217.018721 
L 102.732912 223.067605 
L 103.479631 230.332885 
L 104.195236 239.524265 
L 104.848614 250.789521 
L 105.47088 265.501508 
L 106.030919 284.109304 
L 106.149503 289 
M 108.98668 289 
L 108.98668 -1 
M 111.236737 -1 
L 111.786874 30.660005 
L 112.40914 53.896067 
L 113.062518 70.406015 
L 113.778123 83.081415 
L 114.524842 92.580627 
L 115.333787 100.101001 
L 116.173845 105.859008 
L 117.013904 110.152251 
L 117.853962 113.371718 
L 118.69402 115.768484 
L 119.502965 117.454638 
L 120.280797 118.596086 
L 120.996403 119.284807 
L 121.680895 119.651056 
L 122.334273 119.751945 
L 122.987652 119.620338 
L 123.672144 119.2381 
L 124.387749 118.570298 
L 125.165581 117.524345 
L 126.005639 115.997521 
L 126.876811 113.936361 
L 127.779096 111.219081 
L 128.712494 107.67408 
L 129.645892 103.219779 
L 130.57929 97.620232 
L 131.481575 90.795753 
L 132.352747 82.452477 
L 133.192805 72.177012 
L 134.00175 59.375214 
L 134.748469 43.909996 
L 135.464074 24.210868 
L 136.117453 -0.138023 
L 136.137112 -1 
M 140.099951 -1 
L 140.099951 289 
M 147.474392 289 
L 148.376082 279.667782 
L 149.278367 272.524181 
L 150.211765 266.856376 
L 151.11405 262.668744 
L 151.985221 259.59746 
L 152.82528 257.396874 
L 153.603111 255.942768 
L 154.318717 255.055431 
L 154.940982 254.613806 
L 155.501021 254.46993 
L 156.029947 254.551637 
L 156.589985 254.869102 
L 157.181138 255.466639 
L 157.834516 256.452444 
L 158.550122 257.94843 
L 159.327953 260.114181 
L 160.136898 263.040165 
L 160.976957 266.929133 
L 161.848128 272.072944 
L 162.7193 278.641763 
L 163.559358 286.735621 
L 163.761222 289 
M 171.213223 289 
L 171.213223 -1 
M 175.128875 -1 
L 175.817987 26.403695 
L 176.595819 48.74637 
L 177.404764 65.896494 
L 178.275936 79.856936 
L 179.209334 91.333278 
L 180.204959 100.850526 
L 181.231697 108.59594 
L 182.320661 115.163775 
L 183.471852 120.759646 
L 184.654157 125.436541 
L 185.898687 129.476939 
L 187.205445 132.975508 
L 188.574429 136.010474 
L 190.005639 138.646668 
L 191.499076 140.937962 
L 193.085853 142.965522 
L 194.76597 144.74847 
L 196.539426 146.305449 
L 198.437336 147.674191 
L 200.459699 148.858885 
L 202.637628 149.877861 
L 205.002236 150.737529 
L 207.553525 151.427711 
L 210.322606 151.944519 
L 213.30948 152.272504 
L 216.483034 152.395126 
L 219.812154 152.300836 
L 223.265727 151.980335 
L 226.781526 151.430679 
L 230.297326 150.656665 
L 233.782013 149.66164 
L 237.173359 148.462945 
L 240.471366 147.062094 
L 243.64492 145.474531 
L 246.725134 143.685395 
L 249.680895 141.71303 
L 252.543316 139.536963 
L 255.312397 137.153647 
L 258.019251 134.528153 
L 260.632766 131.682892 
L 263.184054 128.576516 
L 265.673116 125.195977 
L 268.131065 121.47872 
L 270.526787 117.450813 
L 272.891395 113.037732 
L 275.224891 108.207182 
L 277.527273 102.924393 
L 279.798542 97.152021 
L 282.038697 90.85006 
L 284.278853 83.873909 
L 286.487895 76.258279 
L 288.696937 67.8267 
L 290.874866 58.622612 
L 293.052795 48.430757 
L 295.199611 37.305668 
L 297.346427 24.984895 
L 299.462129 11.537088 
L 301.257079 -1 
L 301.257079 -1 
" clip-path="url(#pec8cf3956a)" style="fill: none; stroke: #1f77b4; stroke-width: 1.5; stroke-linecap: square"/>
   </g>
   <g id="line2d_12">
    <path d="M 202.357608 149.76 
" clip-path="url(#pec8cf3956a)" style="fill: none; stroke: #0000ff; stroke-width: 1.5; stroke-linecap: square"/>
    <defs>
     <path id="m60cb3fb9d9" d="M 0 5 
C 1.326016 5 2.597899 4.473168 3.535534 3.535534 
C 4.473168 2.597899 5 1.326016 5 0 
C 5 -1.326016 4.473168 -2.597899 3.535534 -3.535534 
C 2.597899 -4.473168 1.326016 -5 0 -5 
C -1.326016 -5 -2.597899 -4.473168 -3.535534 -3.535534 
C -4.473168 -2.597899 -5 -1.326016 -5 0 
C -5 1.326016 -4.473168 2.597899 -3.535534 3.535534 
C -2.597899 4.473168 -1.326016 5 0 5 
z
" style="stroke: #0000ff"/>
    </defs>
    <g clip-path="url(#pec8cf3956a)">
     <use xlink:href="#m60cb3fb9d9" x="202.357608" y="149.76" style="fill: #0000ff; stroke: #0000ff"/>
    </g>
   </g>
   <g id="line2d_13">
    <path d="M 233.47088 149.76 
" clip-path="url(#pec8cf3956a)" style="fill: none; stroke: #0000ff; stroke-width: 1.5; stroke-linecap: square"/>
    <g clip-path="url(#pec8cf3956a)">
     <use xlink:href="#m60cb3fb9d9" x="233.47088" y="149.76" style="fill: #0000ff; stroke: #0000ff"/>
    </g>
   </g>
   <g id="line2d_14">
    <path d="M 264.584152 126.72 
" clip-path="url(#pec8cf3956a)" style="fill: none; stroke: #0000ff; stroke-width: 1.5; stroke-linecap: square"/>
    <g clip-path="url(#pec8cf3956a)">
     <use xlink:href="#m60cb3fb9d9" x="264.584152" y="126.72" style="fill: #0000ff; stroke: #0000ff"/>
    </g>
   </g>
   <g id="line2d_15">
    <path d="M 295.697423 34.56 
" clip-path="url(#pec8cf3956a)" style="fill: none; stroke: #0000ff; stroke-width: 1.5; stroke-linecap: square"/>
    <g clip-path="url(#pec8cf3956a)">
     <use xlink:href="#m60cb3fb9d9" x="295.697423" y="34.56" style="fill: #0000ff; stroke: #0000ff"/>
    </g>
   </g>
   <g id="line2d_16">
    <path clip-path="url(#pec8cf3956a)" style="fill: none; stroke: #0000ff; stroke-width: 1.5; stroke-linecap: square"/>
    <g clip-path="url(#pec8cf3956a)"/>
   </g>
   <g id="patch_3">
    <path d="M 0 288 
L 0 57.6 
" style="fill: none; stroke: #000000; stroke-width: 0.8; stroke-linejoin: miter; stroke-linecap: square"/>
   </g>
   <g id="patch_4">
    <path d="M 345.6 288 
L 345.6 57.6 
" style="fill: none; stroke: #000000; stroke-width: 0.8; stroke-linejoin: miter; stroke-linecap: square"/>
   </g>
   <g id="patch_5">
    <path d="M 0 288 
L 345.6 288 
" style="fill: none; stroke: #000000; stroke-width: 0.8; stroke-linejoin: miter; stroke-linecap: square"/>
   </g>
   <g id="patch_6">
    <path d="M 0 57.6 
L 345.6 57.6 
" style="fill: none; stroke: #000000; stroke-width: 0.8; stroke-linejoin: miter; stroke-linecap: square"/>
   </g>
   <g id="text_11">
    <!-- $0$! -->
    <g transform="translate(202.357608 126.72)scale(0.14 -0.14)">
     <defs>
      <path id="DejaVuSans-21" d="M 966 794 
L 1600 794 
L 1600 0 
L 966 0 
L 966 794 
z
M 966 4666 
L 1600 4666 
L 1600 2619 
L 1538 1503 
L 1031 1503 
L 966 2619 
L 966 4666 
z
" transform="scale(0.015625)"/>
     </defs>
     <use xlink:href="#DejaVuSans-30" transform="translate(0 0.78125)"/>
     <use xlink:href="#DejaVuSans-21" transform="translate(63.623047 0.78125)"/>
    </g>
   </g>
   <g id="text_12">
    <!-- $1$! -->
    <g transform="translate(233.47088 126.72)scale(0.14 -0.14)">
     <defs>
      <path id="DejaVuSans-31" d="M 794 531 
L 1825 531 
L 1825 4091 
L 703 3866 
L 703 4441 
L 1819 4666 
L 2450 4666 
L 2450 531 
L 3481 531 
L 3481 0 
L 794 0 
L 794 531 
z
" transform="scale(0.015625)"/>
     </defs>
     <use xlink:href="#DejaVuSans-31" transform="translate(0 0.09375)"/>
     <use xlink:href="#DejaVuSans-21" transform="translate(63.623047 0.09375)"/>
    </g>
   </g>
   <g id="text_13">
    <!-- $2$! -->
    <g transform="translate(261.472825 103.68)scale(0.14 -0.14)">
     <use xlink:href="#DejaVuSans-32" transform="translate(0 0.78125)"/>
     <use xlink:href="#DejaVuSans-21" transform="translate(63.623047 0.78125)"/>
    </g>
   </g>
  </g>
 </g>
 <defs>
  <clipPath id="pec8cf3956a">
   <rect x="0" y="57.6" width="345.6" height="230.4"/>
  </clipPath>
 </defs>
</svg>
