<?xml version="1.0" encoding="utf-8" standalone="no"?>
<!DOCTYPE svg PUBLIC "-//W3C//DTD SVG 1.1//EN"
  "http://www.w3.org/Graphics/SVG/1.1/DTD/svg11.dtd">
<svg xmlns:xlink="http://www.w3.org/1999/xlink" width="460.8pt" height="345.6pt" viewBox="0 0 460.8 345.6" xmlns="http://www.w3.org/2000/svg" version="1.1">
 <metadata>
  <rdf:RDF xmlns:dc="http://purl.org/dc/elements/1.1/" xmlns:cc="http://creativecommons.org/ns#" xmlns:rdf="http://www.w3.org/1999/02/22-rdf-syntax-ns#">
   <cc:Work>
    <dc:type rdf:resource="http://purl.org/dc/dcmitype/StillImage"/>
    <dc:date>2022-10-13T18:21:16.247157</dc:date>
    <dc:format>image/svg+xml</dc:format>
    <dc:creator>
     <cc:Agent>
      <dc:title>Matplotlib v3.5.2, https://matplotlib.org/</dc:title>
     </cc:Agent>
    </dc:creator>
   </cc:Work>
  </rdf:RDF>
 </metadata>
 <defs>
  <style type="text/css">*{stroke-linejoin: round; stroke-linecap: butt}</style>
 </defs>
 <g id="figure_1">
  <g id="patch_1">
   <path d="M 0 345.6 
L 460.8 345.6 
L 460.8 0 
L 0 0 
z
" style="fill: #ffffff"/>
  </g>
  <g id="axes_1">
   <g id="patch_2">
    <path d="M 57.6 162.432 
L 414.72 162.432 
L 414.72 41.472 
L 57.6 41.472 
z
" style="fill: #ffffff"/>
   </g>
   <g id="matplotlib.axis_1">
    <g id="xtick_1">
     <g id="line2d_1">
      <defs>
       <path id="mc991e7165d" d="M 0 0 
L 0 3.5 
" style="stroke: #000000; stroke-width: 0.8"/>
      </defs>
      <g>
       <use xlink:href="#mc991e7165d" x="81.149089" y="162.432" style="stroke: #000000; stroke-width: 0.8"/>
      </g>
     </g>
     <g id="text_1">
      <!-- −3 -->
      <g transform="translate(73.777995 177.030437)scale(0.1 -0.1)">
       <defs>
        <path id="DejaVuSans-2212" d="M 678 2272 
L 4684 2272 
L 4684 1741 
L 678 1741 
L 678 2272 
z
" transform="scale(0.015625)"/>
        <path id="DejaVuSans-33" d="M 2597 2516 
Q 3050 2419 3304 2112 
Q 3559 1806 3559 1356 
Q 3559 666 3084 287 
Q 2609 -91 1734 -91 
Q 1441 -91 1130 -33 
Q 819 25 488 141 
L 488 750 
Q 750 597 1062 519 
Q 1375 441 1716 441 
Q 2309 441 2620 675 
Q 2931 909 2931 1356 
Q 2931 1769 2642 2001 
Q 2353 2234 1838 2234 
L 1294 2234 
L 1294 2753 
L 1863 2753 
Q 2328 2753 2575 2939 
Q 2822 3125 2822 3475 
Q 2822 3834 2567 4026 
Q 2313 4219 1838 4219 
Q 1578 4219 1281 4162 
Q 984 4106 628 3988 
L 628 4550 
Q 988 4650 1302 4700 
Q 1616 4750 1894 4750 
Q 2613 4750 3031 4423 
Q 3450 4097 3450 3541 
Q 3450 3153 3228 2886 
Q 3006 2619 2597 2516 
z
" transform="scale(0.015625)"/>
       </defs>
       <use xlink:href="#DejaVuSans-2212"/>
       <use xlink:href="#DejaVuSans-33" x="83.789062"/>
      </g>
     </g>
    </g>
    <g id="xtick_2">
     <g id="line2d_2">
      <g>
       <use xlink:href="#mc991e7165d" x="132.820988" y="162.432" style="stroke: #000000; stroke-width: 0.8"/>
      </g>
     </g>
     <g id="text_2">
      <!-- −2 -->
      <g transform="translate(125.449895 177.030437)scale(0.1 -0.1)">
       <defs>
        <path id="DejaVuSans-32" d="M 1228 531 
L 3431 531 
L 3431 0 
L 469 0 
L 469 531 
Q 828 903 1448 1529 
Q 2069 2156 2228 2338 
Q 2531 2678 2651 2914 
Q 2772 3150 2772 3378 
Q 2772 3750 2511 3984 
Q 2250 4219 1831 4219 
Q 1534 4219 1204 4116 
Q 875 4013 500 3803 
L 500 4441 
Q 881 4594 1212 4672 
Q 1544 4750 1819 4750 
Q 2544 4750 2975 4387 
Q 3406 4025 3406 3419 
Q 3406 3131 3298 2873 
Q 3191 2616 2906 2266 
Q 2828 2175 2409 1742 
Q 1991 1309 1228 531 
z
" transform="scale(0.015625)"/>
       </defs>
       <use xlink:href="#DejaVuSans-2212"/>
       <use xlink:href="#DejaVuSans-32" x="83.789062"/>
      </g>
     </g>
    </g>
    <g id="xtick_3">
     <g id="line2d_3">
      <g>
       <use xlink:href="#mc991e7165d" x="184.492888" y="162.432" style="stroke: #000000; stroke-width: 0.8"/>
      </g>
     </g>
     <g id="text_3">
      <!-- −1 -->
      <g transform="translate(177.121794 177.030437)scale(0.1 -0.1)">
       <defs>
        <path id="DejaVuSans-31" d="M 794 531 
L 1825 531 
L 1825 4091 
L 703 3866 
L 703 4441 
L 1819 4666 
L 2450 4666 
L 2450 531 
L 3481 531 
L 3481 0 
L 794 0 
L 794 531 
z
" transform="scale(0.015625)"/>
       </defs>
       <use xlink:href="#DejaVuSans-2212"/>
       <use xlink:href="#DejaVuSans-31" x="83.789062"/>
      </g>
     </g>
    </g>
    <g id="xtick_4">
     <g id="line2d_4">
      <g>
       <use xlink:href="#mc991e7165d" x="236.164788" y="162.432" style="stroke: #000000; stroke-width: 0.8"/>
      </g>
     </g>
     <g id="text_4">
      <!-- 0 -->
      <g transform="translate(232.983538 177.030437)scale(0.1 -0.1)">
       <defs>
        <path id="DejaVuSans-30" d="M 2034 4250 
Q 1547 4250 1301 3770 
Q 1056 3291 1056 2328 
Q 1056 1369 1301 889 
Q 1547 409 2034 409 
Q 2525 409 2770 889 
Q 3016 1369 3016 2328 
Q 3016 3291 2770 3770 
Q 2525 4250 2034 4250 
z
M 2034 4750 
Q 2819 4750 3233 4129 
Q 3647 3509 3647 2328 
Q 3647 1150 3233 529 
Q 2819 -91 2034 -91 
Q 1250 -91 836 529 
Q 422 1150 422 2328 
Q 422 3509 836 4129 
Q 1250 4750 2034 4750 
z
" transform="scale(0.015625)"/>
       </defs>
       <use xlink:href="#DejaVuSans-30"/>
      </g>
     </g>
    </g>
    <g id="xtick_5">
     <g id="line2d_5">
      <g>
       <use xlink:href="#mc991e7165d" x="287.836687" y="162.432" style="stroke: #000000; stroke-width: 0.8"/>
      </g>
     </g>
     <g id="text_5">
      <!-- 1 -->
      <g transform="translate(284.655437 177.030437)scale(0.1 -0.1)">
       <use xlink:href="#DejaVuSans-31"/>
      </g>
     </g>
    </g>
    <g id="xtick_6">
     <g id="line2d_6">
      <g>
       <use xlink:href="#mc991e7165d" x="339.508587" y="162.432" style="stroke: #000000; stroke-width: 0.8"/>
      </g>
     </g>
     <g id="text_6">
      <!-- 2 -->
      <g transform="translate(336.327337 177.030437)scale(0.1 -0.1)">
       <use xlink:href="#DejaVuSans-32"/>
      </g>
     </g>
    </g>
    <g id="xtick_7">
     <g id="line2d_7">
      <g>
       <use xlink:href="#mc991e7165d" x="391.180487" y="162.432" style="stroke: #000000; stroke-width: 0.8"/>
      </g>
     </g>
     <g id="text_7">
      <!-- 3 -->
      <g transform="translate(387.999237 177.030437)scale(0.1 -0.1)">
       <use xlink:href="#DejaVuSans-33"/>
      </g>
     </g>
    </g>
   </g>
   <g id="matplotlib.axis_2">
    <g id="ytick_1">
     <g id="line2d_8">
      <defs>
       <path id="m32b8876a6d" d="M 0 0 
L -3.5 0 
" style="stroke: #000000; stroke-width: 0.8"/>
      </defs>
      <g>
       <use xlink:href="#m32b8876a6d" x="57.6" y="138.493314" style="stroke: #000000; stroke-width: 0.8"/>
      </g>
     </g>
     <g id="text_8">
      <!-- −2 -->
      <g transform="translate(35.857813 142.292532)scale(0.1 -0.1)">
       <use xlink:href="#DejaVuSans-2212"/>
       <use xlink:href="#DejaVuSans-32" x="83.789062"/>
      </g>
     </g>
    </g>
    <g id="ytick_2">
     <g id="line2d_9">
      <g>
       <use xlink:href="#m32b8876a6d" x="57.6" y="101.606909" style="stroke: #000000; stroke-width: 0.8"/>
      </g>
     </g>
     <g id="text_9">
      <!-- 0 -->
      <g transform="translate(44.2375 105.406127)scale(0.1 -0.1)">
       <use xlink:href="#DejaVuSans-30"/>
      </g>
     </g>
    </g>
    <g id="ytick_3">
     <g id="line2d_10">
      <g>
       <use xlink:href="#m32b8876a6d" x="57.6" y="64.720504" style="stroke: #000000; stroke-width: 0.8"/>
      </g>
     </g>
     <g id="text_10">
      <!-- 2 -->
      <g transform="translate(44.2375 68.519722)scale(0.1 -0.1)">
       <use xlink:href="#DejaVuSans-32"/>
      </g>
     </g>
    </g>
   </g>
   <g id="line2d_11">
    <path d="M 73.832727 83.163706 
L 74.194431 65.769337 
L 74.401118 62.403151 
L 74.45279 62.391618 
L 74.556134 63.35298 
L 74.762821 68.95548 
L 75.124525 87.682239 
L 75.899603 129.985179 
L 76.157963 134.58052 
L 76.209635 134.682419 
L 76.312978 134.076117 
L 76.519666 129.83302 
L 76.881369 114.99457 
L 77.70812 78.613335 
L 77.966479 75.014841 
L 78.018151 74.924709 
L 78.069823 75.042036 
L 78.224839 76.588268 
L 78.483198 82.63532 
L 79.051589 103.883708 
L 79.568308 119.440944 
L 79.826668 122.464432 
L 79.930011 122.635143 
L 80.033355 122.22675 
L 80.240043 119.807265 
L 80.601746 111.574032 
L 81.635184 85.244271 
L 81.893544 83.230316 
L 81.945216 83.164069 
L 81.996887 83.212119 
L 82.151903 84.036767 
L 82.410263 87.56213 
L 82.823638 97.607807 
L 83.70206 120.480289 
L 83.96042 122.623531 
L 84.012092 122.63519 
L 84.115435 122.215462 
L 84.322123 119.593512 
L 84.632154 111.576528 
L 85.820608 75.079611 
L 85.87228 74.929599 
L 85.923952 74.986466 
L 86.027296 75.731034 
L 86.233983 79.720729 
L 86.544015 91.189942 
L 87.525781 133.245509 
L 87.680796 134.673471 
L 87.732468 134.615071 
L 87.835812 133.675525 
L 88.0425 128.567486 
L 88.352531 113.993723 
L 89.282625 64.492421 
L 89.489313 62.379052 
L 89.592657 63.295817 
L 89.799344 69.045607 
L 90.109376 86.017238 
L 91.03947 143.8899 
L 91.246157 146.3093 
L 91.349501 145.234398 
L 91.556189 138.593739 
L 91.86622 119.197619 
L 92.796314 54.776356 
L 92.95133 52.399125 
L 93.003002 52.448461 
L 93.106346 53.825534 
L 93.313033 61.506289 
L 93.674737 87.602835 
L 94.449815 148.48485 
L 94.656503 153.935905 
L 94.708175 154.188725 
L 94.759847 153.984273 
L 94.914862 150.650636 
L 95.173222 136.757784 
L 95.689941 90.28985 
L 96.154988 54.407359 
L 96.413347 47.073897 
L 96.465019 46.997609 
L 96.568363 48.271593 
L 96.775051 56.303057 
L 97.085082 79.592653 
L 97.963504 152.65234 
L 98.170192 156.922728 
L 98.221864 156.796619 
L 98.325208 155.104893 
L 98.531895 146.25839 
L 98.893599 117.207817 
L 99.668677 52.423073 
L 99.875365 47.129437 
L 99.927037 46.978 
L 100.03038 48.100199 
L 100.237068 55.800169 
L 100.547099 78.460037 
L 101.425522 149.752716 
L 101.632209 154.14816 
L 101.683881 154.113608 
L 101.787225 152.682757 
L 101.993913 144.671137 
L 102.355616 117.927238 
L 103.130694 57.842132 
L 103.389054 52.369473 
L 103.440726 52.542573 
L 103.595741 55.565277 
L 103.854101 68.093629 
L 104.37082 108.985059 
L 104.835867 139.784173 
L 105.094227 146.192417 
L 105.145898 146.336541 
L 105.249242 145.478949 
L 105.45593 139.426496 
L 105.765961 121.680789 
L 106.644384 66.261358 
L 106.851071 62.476727 
L 106.902743 62.359259 
L 107.006087 63.113516 
L 107.212774 68.344478 
L 107.574478 86.670839 
L 108.349556 129.468734 
L 108.607916 134.490526 
L 108.659588 134.679616 
L 108.71126 134.595968 
L 108.814603 133.629285 
L 109.021291 128.747465 
L 109.382994 113.235254 
L 110.158073 79.016624 
L 110.416432 75.0876 
L 110.468104 74.930741 
L 110.519776 74.982378 
L 110.62312 75.69441 
L 110.829807 79.35423 
L 111.191511 91.05982 
L 112.018261 119.125112 
L 112.276621 122.382523 
L 112.379964 122.647314 
L 112.431636 122.559798 
L 112.586652 121.457174 
L 112.845012 117.150502 
L 113.310059 104.492273 
L 113.981793 87.077373 
L 114.291825 83.491731 
L 114.44684 83.184412 
L 114.550184 83.549649 
L 114.756872 85.61015 
L 115.066903 91.645073 
L 115.841982 113.687073 
L 116.255357 121.570262 
L 116.462044 122.64734 
L 116.565388 122.322212 
L 116.720404 120.717313 
L 116.978763 115.192753 
L 117.443811 98.775511 
L 118.063873 77.963781 
L 118.322233 74.955114 
L 118.373905 74.945686 
L 118.477249 75.555891 
L 118.683936 79.284939 
L 118.993968 90.448464 
L 120.027406 133.775319 
L 120.182421 134.663316 
L 120.285765 133.898679 
L 120.492453 129.125226 
L 120.802484 114.929261 
L 121.78425 63.77215 
L 121.939266 62.356196 
L 122.04261 63.060544 
L 122.197625 66.592672 
L 122.455985 78.473227 
L 123.076048 122.405084 
L 123.489423 143.444876 
L 123.69611 146.338387 
L 123.799454 145.5084 
L 123.95447 141.418907 
L 124.212829 127.792366 
L 125.401283 52.472863 
L 125.452955 52.386429 
L 125.556299 53.492733 
L 125.762986 60.668147 
L 126.073018 81.793879 
L 127.003112 151.618286 
L 127.158128 154.157728 
L 127.2098 154.099088 
L 127.313143 152.612412 
L 127.519831 144.386644 
L 127.881534 116.638568 
L 128.656613 52.757214 
L 128.8633 47.198135 
L 128.914972 46.970182 
L 128.966644 47.218678 
L 129.12166 50.787541 
L 129.380019 65.324246 
L 129.896738 113.229337 
L 130.361785 149.642455 
L 130.620145 156.86146 
L 130.671817 156.8892 
L 130.775161 155.501371 
L 130.981848 147.210608 
L 131.343552 118.776806 
L 132.11863 53.154535 
L 132.37699 46.974494 
L 132.428661 47.147784 
L 132.583677 50.48307 
L 132.842037 64.5623 
L 133.358756 111.234796 
L 133.823803 146.777303 
L 134.082162 154.063041 
L 134.133834 154.174253 
L 134.237178 153.030656 
L 134.443866 145.542019 
L 134.753897 123.823957 
L 135.632319 56.490054 
L 135.839007 52.403801 
L 135.890679 52.441307 
L 135.994023 53.783015 
L 136.20071 61.236054 
L 136.562413 85.964628 
L 137.337492 141.196836 
L 137.595851 146.332399 
L 137.647523 146.214783 
L 137.750867 144.844685 
L 137.957555 137.870853 
L 138.319258 115.497243 
L 139.042665 68.63249 
L 139.301024 62.584172 
L 139.352696 62.360546 
L 139.404368 62.469329 
L 139.507712 63.664863 
L 139.714399 69.683349 
L 140.076103 88.845069 
L 140.799509 128.926985 
L 141.057869 134.37265 
L 141.161213 134.652006 
L 141.264556 133.852996 
L 141.471244 129.266822 
L 141.832947 114.061534 
L 142.608026 79.439815 
L 142.866385 75.181746 
L 142.969729 74.9435 
L 143.073073 75.528006 
L 143.27976 78.96392 
L 143.641464 90.43347 
L 144.468214 118.795142 
L 144.726574 122.285468 
L 144.829917 122.644676 
L 144.881589 122.60334 
L 144.984933 122.09271 
L 145.191621 119.491819 
L 145.553324 111.051634 
L 146.53509 85.694371 
L 146.79345 83.331992 
L 146.896793 83.168295 
L 147.000137 83.46113 
L 147.206825 85.383635 
L 147.516856 91.249777 
L 148.136919 108.9325 
L 148.653638 120.745099 
L 148.911997 122.644628 
L 148.963669 122.603138 
L 149.067013 122.075341 
L 149.273701 119.240634 
L 149.583732 110.960137 
L 150.720514 75.281037 
L 150.823858 74.926131 
L 150.927202 75.402179 
L 151.082217 77.693624 
L 151.340577 85.450881 
L 151.857296 110.299347 
L 152.374015 131.506777 
L 152.580702 134.569064 
L 152.632374 134.683814 
L 152.735718 134.094029 
L 152.890734 131.16341 
L 153.149093 121.25938 
L 153.717484 87.034487 
L 154.182531 65.292868 
L 154.389219 62.367055 
L 154.440891 62.446293 
L 154.544235 63.604897 
L 154.750922 69.811938 
L 155.112625 90.87755 
L 155.939376 142.964483 
L 156.146063 146.328476 
L 156.197735 146.228545 
L 156.301079 144.875078 
L 156.507767 137.712659 
L 156.86947 113.68009 
L 157.644548 57.602607 
L 157.851236 52.589626 
L 157.902908 52.367716 
L 157.95458 52.571956 
L 158.109596 55.726423 
L 158.367955 68.81272 
L 158.833002 108.057072 
L 159.349721 146.997143 
L 159.608081 154.08038 
L 159.659753 154.167455 
L 159.763096 152.970531 
L 159.969784 145.282147 
L 160.279815 122.796266 
L 161.158238 51.303055 
L 161.364925 46.991128 
L 161.416597 47.087816 
L 161.519941 48.704664 
L 161.726629 57.367709 
L 162.088332 86.161297 
L 162.86341 151.292068 
L 163.070098 156.751235 
L 163.12177 156.932799 
L 163.225114 155.850111 
L 163.380129 150.714498 
L 163.690161 129.661831 
L 164.671927 49.795519 
L 164.826943 47.019366 
L 164.878614 47.040924 
L 164.981958 48.505116 
L 165.188646 56.831771 
L 165.550349 84.861555 
L 166.325428 148.404897 
L 166.532115 153.931488 
L 166.583787 154.188516 
L 166.635459 153.988106 
L 166.790475 150.694402 
L 167.048834 137.114041 
L 167.565553 92.708003 
L 168.0306 59.269586 
L 168.28896 52.481459 
L 168.340632 52.383117 
L 168.443976 53.45788 
L 168.650663 60.427651 
L 169.012366 84.629485 
L 169.787445 140.55666 
L 170.045804 146.289231 
L 170.097476 146.293804 
L 170.20082 145.162386 
L 170.407508 138.615383 
L 170.769211 116.692875 
L 171.544289 67.340549 
L 171.802649 62.395581 
L 171.854321 62.398795 
L 171.957665 63.388917 
L 172.164352 69.042744 
L 172.526056 87.823947 
L 173.301134 130.055149 
L 173.559494 134.590854 
L 173.611165 134.680617 
L 173.714509 134.050648 
L 173.921197 129.765228 
L 174.2829 114.880923 
L 175.109651 78.558705 
L 175.36801 75.006393 
L 175.419682 74.925544 
L 175.523026 75.381384 
L 175.729713 78.589474 
L 176.091417 89.812747 
L 176.969839 119.483844 
L 177.228198 122.47465 
L 177.331542 122.632275 
L 177.434886 122.211317 
L 177.641574 119.769459 
L 178.003277 111.510462 
L 179.036715 85.214455 
L 179.295074 83.224951 
L 179.346746 83.163777 
L 179.398418 83.216902 
L 179.553434 84.056526 
L 179.811793 87.604518 
L 180.225169 97.673797 
L 181.103591 120.513538 
L 181.36195 122.627138 
L 181.413622 122.632311 
L 181.516966 122.199374 
L 181.723654 119.551331 
L 182.033685 111.501784 
L 183.222139 75.068617 
L 183.273811 74.927707 
L 183.325483 74.993842 
L 183.428826 75.757152 
L 183.635514 79.783039 
L 183.945545 91.294251 
L 184.927312 133.283593 
L 185.082327 134.676658 
L 185.133999 134.606137 
L 185.237343 133.642209 
L 185.444031 128.487758 
L 185.754062 113.862192 
L 186.684156 64.441163 
L 186.890844 62.384921 
L 186.994187 63.331293 
L 187.200875 69.137306 
L 187.510906 86.171276 
L 188.441001 143.949106 
L 188.647688 146.302143 
L 188.751032 145.193123 
L 188.95772 138.488274 
L 189.267751 119.02252 
L 190.197845 54.714248 
L 190.352861 52.39227 
L 190.404533 52.460551 
L 190.507877 53.875315 
L 190.714564 61.626054 
L 191.076268 87.803215 
L 191.851346 148.58256 
L 192.058034 153.956798 
L 192.109706 154.18936 
L 192.161377 153.96458 
L 192.316393 150.571316 
L 192.574753 136.5939 
L 193.091472 90.071144 
L 193.556519 54.29399 
L 193.814878 47.060405 
L 193.86655 47.005275 
L 193.969894 48.321287 
L 194.176582 56.430526 
L 194.486613 79.801488 
L 195.365035 152.740476 
L 195.571723 156.927377 
L 195.623395 156.779826 
L 195.726739 155.045845 
L 195.933426 146.122482 
L 196.295129 116.987972 
L 197.070208 52.324565 
L 197.276896 47.1126 
L 197.328567 46.982331 
L 197.431911 48.146462 
L 197.638599 55.923626 
L 197.94863 78.66355 
L 198.827053 149.840288 
L 199.03374 154.156336 
L 199.085412 154.101474 
L 199.188756 152.630695 
L 199.395443 144.546764 
L 199.757147 117.724356 
L 200.532225 57.748465 
L 200.738913 52.602445 
L 200.790585 52.368126 
L 200.842257 52.560104 
L 200.997272 55.637308 
L 201.255632 68.240401 
L 201.824023 113.387628 
L 202.28907 141.882555 
L 202.495757 146.206988 
L 202.547429 146.334023 
L 202.650773 145.442829 
L 202.857461 139.329413 
L 203.167492 121.522062 
L 204.045914 66.190845 
L 204.252602 62.464438 
L 204.304274 62.361755 
L 204.407618 63.144967 
L 204.614305 68.428076 
L 204.976009 86.811294 
L 205.751087 129.54226 
L 206.009447 134.504745 
L 206.061118 134.681666 
L 206.11279 134.585986 
L 206.267806 132.716767 
L 206.526166 124.951617 
L 207.094556 97.195617 
L 207.559604 78.9592 
L 207.817963 75.076174 
L 207.869635 74.928633 
L 207.921307 74.989452 
L 208.024651 75.719167 
L 208.231338 79.409882 
L 208.593042 91.147561 
L 209.419792 119.169995 
L 209.678151 122.394851 
L 209.781495 122.646504 
L 209.833167 122.552574 
L 209.988183 121.431808 
L 210.246542 117.100544 
L 210.711589 104.423036 
L 211.383324 87.037326 
L 211.693356 83.479723 
L 211.796699 83.170861 
L 211.848371 83.18758 
L 211.951715 83.562897 
L 212.158403 85.642554 
L 212.468434 91.700752 
L 213.811903 122.594964 
L 213.863575 122.646539 
L 213.915247 122.551602 
L 214.070263 121.373582 
L 214.328622 116.503966 
L 214.741998 102.753391 
L 215.465404 77.916976 
L 215.723764 74.950302 
L 215.775436 74.950096 
L 215.878779 75.579024 
L 216.085467 79.344516 
L 216.395498 90.551119 
L 217.428936 133.805752 
L 217.583952 134.658257 
L 217.687296 133.869234 
L 217.893983 129.048965 
L 218.204015 114.799682 
L 219.185781 63.730182 
L 219.340797 62.357358 
L 219.44414 63.091322 
L 219.599156 66.66663 
L 219.857516 78.607508 
L 220.52925 126.014951 
L 220.890954 143.509052 
L 221.097641 146.336674 
L 221.200985 145.472526 
L 221.356001 141.333601 
L 221.61436 127.639039 
L 222.802814 52.459999 
L 222.854486 52.392478 
L 222.95783 53.53657 
L 223.164517 60.78278 
L 223.474549 81.984627 
L 224.404643 151.684895 
L 224.559659 154.164832 
L 224.61133 154.085867 
L 224.714674 152.558871 
L 224.921362 144.258712 
L 225.283065 116.42633 
L 226.058144 52.656413 
L 226.264831 47.177926 
L 226.316503 46.971103 
L 226.419847 47.985254 
L 226.574863 52.989012 
L 226.833222 69.49513 
L 227.970004 156.384355 
L 228.073348 156.87923 
L 228.176692 155.448953 
L 228.383379 147.080255 
L 228.745082 118.558929 
L 229.520161 53.049951 
L 229.77852 46.972081 
L 229.830192 47.166509 
L 229.985208 50.563288 
L 230.243567 64.728199 
L 230.760286 111.452709 
L 231.225334 146.889101 
L 231.483693 154.077694 
L 231.535365 154.168579 
L 231.638709 152.98485 
L 231.845396 145.422857 
L 232.2071 119.174029 
L 232.982178 58.437258 
L 233.240538 52.396417 
L 233.29221 52.452844 
L 233.395553 53.831645 
L 233.602241 61.35148 
L 233.963944 86.151693 
L 234.739023 141.28325 
L 234.997382 146.335316 
L 235.049054 146.200693 
L 235.20407 143.546366 
L 235.462429 132.416758 
L 236.03082 92.309242 
L 236.495867 66.710285 
L 236.754227 62.358344 
L 236.805899 62.481814 
L 236.960914 64.789719 
L 237.219274 74.368143 
L 237.787665 108.624492 
L 238.252712 130.608213 
L 238.511071 134.655039 
L 238.562743 134.645835 
L 238.666087 133.823365 
L 238.872775 129.195661 
L 239.234478 113.946736 
L 240.009557 79.379631 
L 240.267916 75.167336 
L 240.37126 74.947668 
L 240.474604 75.550023 
L 240.681291 79.017392 
L 241.042995 90.520466 
L 241.869745 118.841987 
L 242.128104 122.299908 
L 242.231448 122.645935 
L 242.28312 122.598143 
L 242.438136 121.608129 
L 242.696495 117.454887 
L 243.161542 104.919435 
L 243.833277 87.328675 
L 244.143308 83.570769 
L 244.298324 83.169846 
L 244.401668 83.472785 
L 244.608356 85.41459 
L 244.918387 91.304453 
L 245.590122 110.484891 
L 246.055169 120.776408 
L 246.313528 122.645895 
L 246.416872 122.401943 
L 246.571888 120.919307 
L 246.830247 115.580275 
L 247.243622 101.378098 
L 247.915357 78.259937 
L 248.173717 74.993788 
L 248.225389 74.927588 
L 248.328732 75.422322 
L 248.483748 77.741546 
L 248.742108 85.539332 
L 249.258827 110.417354 
L 249.775546 131.562315 
L 249.982233 134.579886 
L 250.033905 134.682617 
L 250.137249 134.068465 
L 250.292265 131.102007 
L 250.550624 121.14698 
L 251.119015 86.893745 
L 251.584062 65.233162 
L 251.79075 62.363522 
L 251.842422 62.457538 
L 251.945765 63.645705 
L 252.152453 69.908329 
L 252.514156 91.040106 
L 253.340907 143.03356 
L 253.547594 146.332194 
L 253.599266 146.215179 
L 253.70261 144.827679 
L 253.909298 137.601881 
L 254.271001 113.495811 
L 255.046079 57.512479 
L 255.252767 52.570773 
L 255.304439 52.367728 
L 255.356111 52.590928 
L 255.511126 55.801185 
L 255.769486 68.967178 
L 256.286205 112.976706 
L 256.802924 149.351305 
L 257.009612 154.09394 
L 257.061283 154.160711 
L 257.164627 152.923339 
L 257.371315 145.159646 
L 257.681346 122.593912 
L 258.559768 51.215248 
L 258.766456 46.985307 
L 258.818128 47.103163 
L 258.921472 48.761855 
L 259.128159 57.501527 
L 259.489863 86.380258 
L 260.264941 151.392651 
L 260.471629 156.769536 
L 260.523301 156.929661 
L 260.626644 155.804368 
L 260.833332 147.997825 
L 261.143363 124.889882 
L 262.021786 51.551631 
L 262.228473 47.010208 
L 262.280145 47.052929 
L 262.383489 48.558843 
L 262.590177 56.961504 
L 262.95188 85.074947 
L 263.726958 148.504352 
L 263.933646 153.952612 
L 263.985318 154.189313 
L 264.03699 153.968634 
L 264.192006 150.616239 
L 264.450365 136.954922 
L 265.018756 87.92085 
L 265.483803 57.011883 
L 265.690491 52.468032 
L 265.742163 52.388641 
L 265.845506 53.500708 
L 266.052194 60.538282 
L 266.413897 84.814901 
L 267.188976 140.648042 
L 267.447335 146.297593 
L 267.499007 146.285112 
L 267.602351 145.120321 
L 267.809039 138.513399 
L 268.170742 116.526773 
L 268.94582 67.261253 
L 269.20418 62.388669 
L 269.255852 62.406623 
L 269.359196 63.425476 
L 269.565883 69.130512 
L 269.927586 87.965819 
L 270.702665 130.12462 
L 270.961024 134.600646 
L 271.012696 134.678279 
L 271.11604 134.024666 
L 271.322728 129.697019 
L 271.684431 114.767128 
L 272.511181 78.504466 
L 272.769541 74.99836 
L 272.821213 74.926787 
L 272.924557 75.40063 
L 273.131244 78.640711 
L 273.492947 89.898928 
L 274.37137 119.526466 
L 274.629729 122.484574 
L 274.733073 122.629121 
L 274.836417 122.195613 
L 275.043104 119.731431 
L 275.404808 111.446792 
L 276.438246 85.184844 
L 276.696605 83.219812 
L 276.748277 83.163711 
L 276.799949 83.22191 
L 276.954965 84.076502 
L 277.213324 87.647086 
L 277.626699 97.739857 
L 278.505122 120.546551 
L 278.763481 122.63046 
L 278.815153 122.629142 
L 278.918497 122.182992 
L 279.125185 119.508873 
L 279.435216 111.42685 
L 280.62367 75.058022 
L 280.675342 74.926224 
L 280.727013 75.001632 
L 280.830357 75.783686 
L 281.037045 79.845727 
L 281.347076 91.398784 
L 282.328842 133.321185 
L 282.483858 134.679311 
L 282.53553 134.596662 
L 282.638874 133.608355 
L 282.845561 128.407552 
L 283.155593 113.730396 
L 284.085687 64.390502 
L 284.292375 62.391448 
L 284.395718 63.367423 
L 284.602406 69.229584 
L 284.912437 86.32563 
L 285.842532 144.007615 
L 286.049219 146.294227 
L 286.152563 145.151097 
L 286.359251 138.382153 
L 286.669282 118.847078 
L 287.599376 54.652927 
L 287.754392 52.386254 
L 287.806064 52.473483 
L 287.909407 53.925923 
L 288.116095 61.746527 
L 288.477798 88.003868 
L 289.252877 148.679478 
L 289.459564 153.976795 
L 289.511236 154.189093 
L 289.562908 153.943985 
L 289.717924 150.491144 
L 289.976283 136.429394 
L 290.493002 89.852614 
L 290.95805 54.181427 
L 291.216409 47.04785 
L 291.268081 47.013882 
L 291.371425 48.371902 
L 291.578112 56.558779 
L 291.939816 84.81591 
L 292.714894 150.652335 
L 292.973254 156.931074 
L 293.024926 156.762082 
L 293.128269 154.985878 
L 293.334957 145.98581 
L 293.69666 116.767868 
L 294.471739 52.226911 
L 294.678426 47.096702 
L 294.730098 46.987601 
L 294.833442 48.193643 
L 295.04013 56.047858 
L 295.350161 78.867438 
L 296.228583 149.92702 
L 296.435271 154.16361 
L 296.486943 154.088441 
L 296.590287 152.577765 
L 296.796974 144.421673 
L 297.158678 117.521232 
L 297.933756 57.655566 
L 298.140444 52.582979 
L 298.192116 52.367621 
L 298.243787 52.578469 
L 298.398803 55.710108 
L 298.657163 68.387708 
L 299.225554 113.572055 
L 299.690601 141.963229 
L 299.897288 146.220799 
L 299.94896 146.330748 
L 300.052304 145.405979 
L 300.258992 139.231722 
L 300.620695 117.713713 
L 301.395773 67.843361 
L 301.654133 62.452808 
L 301.705805 62.364904 
L 301.809148 63.177046 
L 302.015836 68.512191 
L 302.377539 86.951931 
L 303.152618 129.615293 
L 303.410977 134.518422 
L 303.462649 134.683177 
L 303.514321 134.575474 
L 303.669337 132.672004 
L 303.927696 124.860944 
L 304.496087 97.081497 
L 304.961134 78.902164 
L 305.219494 75.065164 
L 305.271166 74.926935 
L 305.322838 74.996929 
L 305.477853 76.409264 
L 305.736213 82.278232 
L 306.252932 101.415355 
L 306.769651 118.144129 
L 307.079682 122.406884 
L 307.183026 122.645406 
L 307.28637 122.302247 
L 307.493057 119.99926 
L 307.803089 113.291756 
L 308.991543 84.21719 
L 309.19823 83.169177 
L 309.301574 83.326931 
L 309.45659 84.410062 
L 309.714949 88.322642 
L 310.128324 98.762027 
L 310.955075 120.304566 
L 311.213434 122.600327 
L 311.265106 122.64545 
L 311.316778 122.543954 
L 311.471794 121.346069 
L 311.730153 116.445531 
L 312.143528 102.664257 
L 312.866935 77.8705 
L 313.125295 74.945895 
L 313.176966 74.954919 
L 313.28031 75.602572 
L 313.486998 79.404475 
L 313.797029 90.654009 
L 314.830467 133.835681 
L 314.985483 134.652658 
L 315.088827 133.83925 
L 315.295514 128.972217 
L 315.605546 114.669824 
L 316.587312 63.688828 
L 316.742327 62.359175 
L 316.845671 63.122756 
L 317.000687 66.741201 
L 317.259046 78.742225 
L 318.4475 146.206611 
L 318.499172 146.334201 
L 318.602516 145.435898 
L 318.757532 141.247596 
L 319.015891 127.485226 
L 320.204345 52.447971 
L 320.256017 52.399369 
L 320.35936 53.581237 
L 320.566048 60.898135 
L 320.876079 82.175746 
L 321.754502 150.066244 
L 321.961189 154.171035 
L 322.012861 154.071743 
L 322.116205 152.504448 
L 322.322893 144.130032 
L 322.684596 116.213814 
L 323.459674 52.556447 
L 323.666362 47.158652 
L 323.718034 46.972965 
L 323.821378 48.029251 
L 323.976393 53.093103 
L 324.286425 73.976376 
L 325.319863 155.470744 
L 325.423207 156.883469 
L 325.474879 156.868308 
L 325.578222 155.395607 
L 325.78491 146.94912 
L 326.146613 118.340765 
L 326.921692 52.946209 
L 327.128379 47.231511 
L 327.180051 46.970608 
L 327.231723 47.18617 
L 327.386739 50.644379 
L 327.645098 64.894718 
L 328.161817 111.67043 
L 328.626864 147.000107 
L 328.885224 154.091445 
L 328.936896 154.162003 
L 329.04024 152.938168 
L 329.246927 145.302962 
L 329.608631 118.972719 
L 330.383709 58.338878 
L 330.642068 52.389874 
L 330.69374 52.465218 
L 330.797084 53.88108 
L 331.003772 61.467566 
L 331.365475 86.338974 
L 332.140554 141.368966 
L 332.398913 146.337474 
L 332.450585 146.185852 
L 332.605601 143.482594 
L 332.86396 132.286244 
L 333.432351 92.144924 
L 333.897398 66.635968 
L 334.104086 62.550807 
L 334.155758 62.356798 
L 334.20743 62.494946 
L 334.362445 64.844886 
L 334.620805 74.480103 
L 335.189196 108.764644 
L 335.654243 130.673571 
L 335.912602 134.660415 
L 335.964274 134.639132 
L 336.067618 133.793227 
L 336.274306 129.124095 
L 336.636009 113.831805 
L 337.411087 79.31983 
L 337.669447 75.153343 
L 337.772791 74.952243 
L 337.876134 75.572425 
L 338.082822 79.071172 
L 338.444525 90.607571 
L 339.271276 118.88856 
L 339.529635 122.314054 
L 339.632979 122.646905 
L 339.684651 122.592663 
L 339.839667 121.584335 
L 340.098026 117.406049 
L 340.563073 104.850266 
L 341.234808 87.287488 
L 341.544839 83.557391 
L 341.699855 83.171623 
L 341.803199 83.484662 
L 342.009886 85.445748 
L 342.319918 91.359271 
L 342.991653 110.549935 
L 343.4567 120.807478 
L 343.715059 122.646874 
L 343.818403 122.389788 
L 343.973419 120.887331 
L 344.231778 115.518108 
L 344.696825 99.246726 
L 345.316888 78.21112 
L 345.575247 74.986477 
L 345.626919 74.929455 
L 345.730263 75.442882 
L 345.885279 77.789869 
L 346.143638 85.628087 
L 346.660357 110.535288 
L 347.177076 131.617398 
L 347.383764 134.590179 
L 347.435436 134.680883 
L 347.53878 134.042359 
L 347.693795 131.040091 
L 347.952155 121.034206 
L 348.520546 86.753183 
L 348.985593 65.174037 
L 349.19228 62.360643 
L 349.243952 62.469441 
L 349.347296 63.687164 
L 349.553984 70.005287 
L 349.915687 91.202898 
L 350.742437 143.101958 
L 350.949125 146.335156 
L 351.000797 146.201054 
L 351.104141 144.779533 
L 351.310828 137.49046 
L 351.672532 113.311281 
L 352.44761 57.423084 
L 352.654298 52.552753 
L 352.70597 52.368581 
L 352.809313 53.27926 
L 352.964329 57.78711 
L 353.222689 72.763832 
L 354.35947 153.604397 
L 354.462814 154.153064 
L 354.566158 152.87526 
L 354.772846 145.036382 
L 355.082877 122.391175 
L 355.961299 51.128302 
L 356.167987 46.980426 
L 356.219659 47.119449 
L 356.323003 48.819959 
L 356.52969 57.636111 
L 356.891394 86.599489 
L 357.666472 151.492376 
L 357.87316 156.786886 
L 357.924832 156.92557 
L 358.028175 155.757691 
L 358.234863 147.872345 
L 358.544894 124.681799 
L 359.423317 51.461017 
L 359.630004 47.00199 
L 359.681676 47.065871 
L 359.78502 48.61348 
L 359.991707 57.091994 
L 360.353411 85.288603 
L 361.128489 148.602988 
L 361.335177 153.972834 
L 361.386849 154.189207 
L 361.438521 153.948266 
L 361.593536 150.537247 
L 361.851896 136.795222 
L 362.420287 87.72031 
L 362.885334 56.92532 
L 363.092021 52.455448 
L 363.143693 52.395003 
L 363.247037 53.544348 
L 363.453725 60.649588 
L 363.815428 85.000556 
L 364.590507 140.738735 
L 364.848866 146.305195 
L 364.900538 146.275666 
L 365.003882 145.077533 
L 365.210569 138.410823 
L 365.572273 116.360475 
L 366.347351 67.182563 
L 366.605711 62.382414 
L 366.657383 62.415101 
L 366.760726 63.462656 
L 366.967414 69.218782 
L 367.329117 88.107853 
L 368.104196 130.193591 
L 368.362555 134.609898 
L 368.414227 134.675405 
L 368.517571 133.998173 
L 368.724259 129.628394 
L 369.085962 114.653187 
L 369.912712 78.450619 
L 370.171072 74.990741 
L 370.222744 74.92844 
L 370.326087 75.420265 
L 370.532775 78.692263 
L 370.894478 89.985227 
L 371.772901 119.56881 
L 372.03126 122.494204 
L 372.134604 122.625681 
L 372.237948 122.179639 
L 372.444635 119.693182 
L 372.806339 111.383025 
L 373.839777 85.155439 
L 374.098136 83.214897 
L 374.149808 83.16387 
L 374.20148 83.227143 
L 374.356496 84.096695 
L 374.614855 87.689834 
L 375.02823 97.805989 
L 375.906653 120.579329 
L 376.165012 122.633496 
L 376.216684 122.625682 
L 376.320028 122.166315 
L 376.526715 119.466135 
L 376.836747 111.351726 
L 378.0252 75.047828 
L 378.076872 74.925149 
L 378.128544 75.009837 
L 378.28356 76.527243 
L 378.541919 83.127347 
L 378.955295 101.650112 
L 379.627029 131.212288 
L 379.885389 134.681427 
L 379.937061 134.586646 
L 380.040405 133.573963 
L 380.247092 128.326867 
L 380.557124 113.598339 
L 381.487218 64.34044 
L 381.642233 62.395748 
L 381.693905 62.398632 
L 381.797249 63.404206 
L 382.003937 69.32244 
L 382.313968 86.480297 
L 383.244062 144.065424 
L 383.399078 146.297178 
L 383.45075 146.285551 
L 383.554094 145.10832 
L 383.760781 138.275378 
L 384.070813 118.671296 
L 385.000907 54.592393 
L 385.155923 52.381078 
L 385.207595 52.487258 
L 385.310938 53.977357 
L 385.517626 61.867706 
L 385.879329 88.204791 
L 386.654408 148.775604 
L 386.861095 153.995897 
L 386.912767 154.187923 
L 387.016111 153.200453 
L 387.171127 148.363527 
L 387.429486 132.388449 
L 388.566268 47.524494 
L 388.669612 47.023428 
L 388.772956 48.423437 
L 388.979643 56.687816 
L 389.341346 85.033115 
L 390.116425 150.758165 
L 390.374784 156.933818 
L 390.426456 156.743389 
L 390.581472 153.313059 
L 390.839832 138.909468 
L 391.356551 91.058667 
L 391.821598 54.514334 
L 392.079957 47.081744 
L 392.131629 46.99381 
L 392.234973 48.241739 
L 392.44166 56.172865 
L 392.751692 79.071698 
L 393.630114 150.012911 
L 393.836802 154.16998 
L 393.888474 154.074509 
L 393.991817 152.523968 
L 394.198505 144.295867 
L 394.560208 117.317869 
L 395.335287 57.563438 
L 395.541974 52.564356 
L 395.593646 52.367957 
L 395.645318 52.597667 
L 395.800334 55.783674 
L 396.058693 68.535546 
L 396.627084 113.756229 
L 397.092131 142.043196 
L 397.298819 146.23385 
L 397.350491 146.326718 
L 397.453835 145.368399 
L 397.660522 139.133428 
L 398.022226 117.548877 
L 398.487273 83.782022 
L 398.487273 83.782022 
" clip-path="url(#p7e54385893)" style="fill: none; stroke: #0000ff; stroke-linecap: square"/>
   </g>
   <g id="patch_3">
    <path d="M 57.6 162.432 
L 57.6 41.472 
" style="fill: none; stroke: #000000; stroke-width: 0.8; stroke-linejoin: miter; stroke-linecap: square"/>
   </g>
   <g id="patch_4">
    <path d="M 414.72 162.432 
L 414.72 41.472 
" style="fill: none; stroke: #000000; stroke-width: 0.8; stroke-linejoin: miter; stroke-linecap: square"/>
   </g>
   <g id="patch_5">
    <path d="M 57.6 162.432 
L 414.72 162.432 
" style="fill: none; stroke: #000000; stroke-width: 0.8; stroke-linejoin: miter; stroke-linecap: square"/>
   </g>
   <g id="patch_6">
    <path d="M 57.6 41.472 
L 414.72 41.472 
" style="fill: none; stroke: #000000; stroke-width: 0.8; stroke-linejoin: miter; stroke-linecap: square"/>
   </g>
  </g>
  <g id="axes_2">
   <g id="patch_7">
    <path d="M 57.6 307.584 
L 414.72 307.584 
L 414.72 186.624 
L 57.6 186.624 
z
" style="fill: #ffffff"/>
   </g>
   <g id="matplotlib.axis_3">
    <g id="xtick_8">
     <g id="line2d_12">
      <g>
       <use xlink:href="#mc991e7165d" x="81.149089" y="307.584" style="stroke: #000000; stroke-width: 0.8"/>
      </g>
     </g>
     <g id="text_11">
      <!-- −3 -->
      <g transform="translate(73.777995 322.182437)scale(0.1 -0.1)">
       <use xlink:href="#DejaVuSans-2212"/>
       <use xlink:href="#DejaVuSans-33" x="83.789062"/>
      </g>
     </g>
    </g>
    <g id="xtick_9">
     <g id="line2d_13">
      <g>
       <use xlink:href="#mc991e7165d" x="132.820988" y="307.584" style="stroke: #000000; stroke-width: 0.8"/>
      </g>
     </g>
     <g id="text_12">
      <!-- −2 -->
      <g transform="translate(125.449895 322.182437)scale(0.1 -0.1)">
       <use xlink:href="#DejaVuSans-2212"/>
       <use xlink:href="#DejaVuSans-32" x="83.789062"/>
      </g>
     </g>
    </g>
    <g id="xtick_10">
     <g id="line2d_14">
      <g>
       <use xlink:href="#mc991e7165d" x="184.492888" y="307.584" style="stroke: #000000; stroke-width: 0.8"/>
      </g>
     </g>
     <g id="text_13">
      <!-- −1 -->
      <g transform="translate(177.121794 322.182437)scale(0.1 -0.1)">
       <use xlink:href="#DejaVuSans-2212"/>
       <use xlink:href="#DejaVuSans-31" x="83.789062"/>
      </g>
     </g>
    </g>
    <g id="xtick_11">
     <g id="line2d_15">
      <g>
       <use xlink:href="#mc991e7165d" x="236.164788" y="307.584" style="stroke: #000000; stroke-width: 0.8"/>
      </g>
     </g>
     <g id="text_14">
      <!-- 0 -->
      <g transform="translate(232.983538 322.182437)scale(0.1 -0.1)">
       <use xlink:href="#DejaVuSans-30"/>
      </g>
     </g>
    </g>
    <g id="xtick_12">
     <g id="line2d_16">
      <g>
       <use xlink:href="#mc991e7165d" x="287.836687" y="307.584" style="stroke: #000000; stroke-width: 0.8"/>
      </g>
     </g>
     <g id="text_15">
      <!-- 1 -->
      <g transform="translate(284.655437 322.182437)scale(0.1 -0.1)">
       <use xlink:href="#DejaVuSans-31"/>
      </g>
     </g>
    </g>
    <g id="xtick_13">
     <g id="line2d_17">
      <g>
       <use xlink:href="#mc991e7165d" x="339.508587" y="307.584" style="stroke: #000000; stroke-width: 0.8"/>
      </g>
     </g>
     <g id="text_16">
      <!-- 2 -->
      <g transform="translate(336.327337 322.182437)scale(0.1 -0.1)">
       <use xlink:href="#DejaVuSans-32"/>
      </g>
     </g>
    </g>
    <g id="xtick_14">
     <g id="line2d_18">
      <g>
       <use xlink:href="#mc991e7165d" x="391.180487" y="307.584" style="stroke: #000000; stroke-width: 0.8"/>
      </g>
     </g>
     <g id="text_17">
      <!-- 3 -->
      <g transform="translate(387.999237 322.182437)scale(0.1 -0.1)">
       <use xlink:href="#DejaVuSans-33"/>
      </g>
     </g>
    </g>
   </g>
   <g id="matplotlib.axis_4">
    <g id="ytick_4">
     <g id="line2d_19">
      <g>
       <use xlink:href="#m32b8876a6d" x="57.6" y="281.663955" style="stroke: #000000; stroke-width: 0.8"/>
      </g>
     </g>
     <g id="text_18">
      <!-- −10 -->
      <g transform="translate(29.495313 285.463174)scale(0.1 -0.1)">
       <use xlink:href="#DejaVuSans-2212"/>
       <use xlink:href="#DejaVuSans-31" x="83.789062"/>
       <use xlink:href="#DejaVuSans-30" x="147.412109"/>
      </g>
     </g>
    </g>
    <g id="ytick_5">
     <g id="line2d_20">
      <g>
       <use xlink:href="#m32b8876a6d" x="57.6" y="248.379555" style="stroke: #000000; stroke-width: 0.8"/>
      </g>
     </g>
     <g id="text_19">
      <!-- 0 -->
      <g transform="translate(44.2375 252.178774)scale(0.1 -0.1)">
       <use xlink:href="#DejaVuSans-30"/>
      </g>
     </g>
    </g>
    <g id="ytick_6">
     <g id="line2d_21">
      <g>
       <use xlink:href="#m32b8876a6d" x="57.6" y="215.095155" style="stroke: #000000; stroke-width: 0.8"/>
      </g>
     </g>
     <g id="text_20">
      <!-- 10 -->
      <g transform="translate(37.875 218.894374)scale(0.1 -0.1)">
       <use xlink:href="#DejaVuSans-31"/>
       <use xlink:href="#DejaVuSans-30" x="63.623047"/>
      </g>
     </g>
    </g>
   </g>
   <g id="line2d_22">
    <path d="M 73.832727 192.122182 
L 73.884399 192.154435 
L 73.987743 193.891949 
L 74.194431 203.660834 
L 74.556134 235.768399 
L 75.227869 295.845652 
L 75.434556 301.895433 
L 75.486228 302.085818 
L 75.589572 300.858694 
L 75.796259 292.295964 
L 76.157963 262.392246 
L 76.829697 204.005046 
L 77.088057 197.146179 
L 77.139729 197.296015 
L 77.243073 199.124859 
L 77.44976 208.500594 
L 77.811464 238.322969 
L 78.431526 290.030918 
L 78.689886 297.32173 
L 78.741558 297.326515 
L 78.844902 295.86276 
L 79.051589 287.383062 
L 79.413292 259.267835 
L 80.085027 206.624765 
L 80.291715 201.44009 
L 80.343387 201.314697 
L 80.44673 202.486865 
L 80.653418 210.230383 
L 81.015121 236.903705 
L 81.686856 288.26245 
L 81.893544 293.670422 
L 81.945216 293.893924 
L 81.996887 293.656318 
L 82.151903 290.232543 
L 82.410263 276.485796 
L 83.495373 204.366019 
L 83.547044 204.054045 
L 83.598716 204.191255 
L 83.70206 205.800517 
L 83.908748 214.022215 
L 84.270451 240.192996 
L 84.890514 285.578875 
L 85.148873 291.85781 
L 85.200545 291.821336 
L 85.303889 290.436408 
L 85.510577 282.716586 
L 85.87228 257.353814 
L 86.544015 210.036623 
L 86.750702 205.473852 
L 86.802374 205.397819 
L 86.905718 206.541571 
L 87.112405 213.753681 
L 87.474109 238.383831 
L 88.145843 285.859148 
L 88.352531 290.88251 
L 88.404203 291.09151 
L 88.455875 290.871654 
L 88.610891 287.684608 
L 88.86925 274.837376 
L 89.95436 206.238943 
L 90.006032 205.871625 
L 90.057704 205.929222 
L 90.161048 207.311849 
L 90.367735 214.862508 
L 90.729438 239.571371 
L 91.401173 285.957732 
L 91.607861 290.612309 
L 91.659533 290.74349 
L 91.762876 289.744693 
L 91.969564 282.933071 
L 92.331267 259.125945 
L 93.054674 210.107132 
L 93.261362 206.281424 
L 93.313033 206.354948 
L 93.416377 207.745308 
L 93.623065 215.215227 
L 93.984768 239.537703 
L 94.656503 285.234268 
L 94.86319 289.915339 
L 94.914862 290.077747 
L 95.018206 289.170475 
L 95.173222 284.832236 
L 95.483253 267.229653 
L 96.361676 209.797548 
L 96.568363 207.375153 
L 96.671707 208.573398 
L 96.878395 215.53456 
L 97.240098 238.774147 
L 97.911833 283.370178 
L 98.170192 288.51657 
L 98.221864 288.38042 
L 98.325208 286.935465 
L 98.531895 279.650148 
L 98.893599 256.499272 
L 99.565333 213.793651 
L 99.772021 209.550064 
L 99.823693 209.430347 
L 99.927037 210.336072 
L 100.133724 216.504191 
L 100.495427 237.999673 
L 101.218834 282.25528 
L 101.425522 285.849185 
L 101.477194 285.835323 
L 101.580537 284.707594 
L 101.787225 278.30681 
L 102.148928 257.156724 
L 102.820663 217.044164 
L 103.079022 212.542822 
L 103.130694 212.689454 
L 103.28571 215.209863 
L 103.54407 225.596082 
L 104.680851 282.306771 
L 104.732523 282.360614 
L 104.835867 281.46325 
L 105.042555 275.870862 
L 105.404258 256.913229 
L 106.075993 220.503058 
L 106.334352 216.310381 
L 106.386024 216.417259 
L 106.489368 217.577922 
L 106.696055 223.430998 
L 107.057759 241.922331 
L 107.677822 273.903194 
L 107.936181 278.476506 
L 107.987853 278.501834 
L 108.091197 277.651861 
L 108.297884 272.559653 
L 108.659588 255.533457 
L 109.331322 223.44254 
L 109.53801 220.169748 
L 109.589682 220.054678 
L 109.693026 220.679315 
L 109.899713 225.173164 
L 110.261417 240.939467 
L 110.933151 271.589658 
L 111.191511 275.085962 
L 111.243183 274.982051 
L 111.398198 273.073915 
L 111.656558 265.15936 
L 112.741668 223.194659 
L 112.79334 223.002616 
L 112.845012 223.070101 
L 112.948355 223.975491 
L 113.155043 228.66744 
L 113.516746 243.622112 
L 114.136809 269.352473 
L 114.395168 272.78684 
L 114.44684 272.736408 
L 114.550184 271.891043 
L 114.756872 267.407444 
L 115.118575 252.978684 
L 115.738638 227.948941 
L 115.996997 224.558791 
L 116.048669 224.59889 
L 116.152013 225.406514 
L 116.358701 229.758444 
L 116.720404 243.868042 
L 117.392139 269.689238 
L 117.598826 271.970333 
L 117.650498 271.946557 
L 117.753842 271.180017 
L 117.96053 266.932305 
L 118.322233 252.999021 
L 118.993968 227.135477 
L 119.200655 224.735091 
L 119.252327 224.725345 
L 119.355671 225.423644 
L 119.562358 229.544183 
L 119.924062 243.363649 
L 120.595796 269.618062 
L 120.802484 272.251558 
L 120.854156 272.320387 
L 120.9575 271.73657 
L 121.164187 267.811542 
L 121.525891 254.130174 
L 122.197625 227.226571 
L 122.455985 224.08117 
L 122.507657 224.165773 
L 122.662672 225.855806 
L 122.921032 232.995045 
L 124.057814 272.967023 
L 124.109486 273.000741 
L 124.212829 272.338355 
L 124.419517 268.23289 
L 124.78122 254.212855 
L 125.452955 226.79668 
L 125.711315 223.524885 
L 125.762986 223.589943 
L 125.86633 224.448865 
L 126.073018 228.915203 
L 126.434721 243.326953 
L 127.106456 270.382587 
L 127.313143 273.176661 
L 127.364815 273.279332 
L 127.416487 273.138281 
L 127.571503 271.279476 
L 127.829862 263.898426 
L 128.966644 223.731288 
L 129.018316 223.688618 
L 129.12166 224.323241 
L 129.328347 228.331046 
L 129.690051 242.071774 
L 130.413457 270.286925 
L 130.620145 272.59406 
L 130.671817 272.588815 
L 130.775161 271.874859 
L 130.981848 267.787624 
L 131.343552 254.195629 
L 132.015286 228.024367 
L 132.273646 224.882866 
L 132.325318 224.929084 
L 132.428661 225.7016 
L 132.635349 229.802319 
L 132.997052 243.079453 
L 133.668787 268.07201 
L 133.927147 270.890561 
L 133.978818 270.80514 
L 134.133834 269.258069 
L 134.392194 262.834603 
L 135.528975 227.17169 
L 135.580647 227.091346 
L 135.683991 227.55276 
L 135.890679 230.83815 
L 136.252382 242.377004 
L 136.975789 266.227162 
L 137.182476 268.233602 
L 137.234148 268.251444 
L 137.337492 267.704531 
L 137.54418 264.41761 
L 137.905883 253.408811 
L 138.577618 232.426398 
L 138.835977 230.007391 
L 138.887649 230.063708 
L 138.990993 230.715803 
L 139.19768 234.027498 
L 139.559384 244.492165 
L 140.179446 262.568029 
L 140.437806 265.17935 
L 140.489478 265.204021 
L 140.592822 264.750613 
L 140.799509 261.954103 
L 141.161213 252.558651 
L 141.832947 234.882863 
L 142.039635 233.080296 
L 142.091307 233.014441 
L 142.142979 233.104601 
L 142.297994 234.286301 
L 142.556354 238.923681 
L 143.641464 262.383216 
L 143.693136 262.454977 
L 143.744807 262.381736 
L 143.899823 261.313518 
L 144.158183 257.041888 
L 145.243293 235.360854 
L 145.294964 235.310075 
L 145.346636 235.395537 
L 145.501652 236.448708 
L 145.760012 240.538546 
L 146.79345 260.644936 
L 146.896793 260.8037 
L 147.000137 260.442385 
L 147.206825 258.248862 
L 147.568528 250.898912 
L 148.240263 237.345014 
L 148.44695 236.184212 
L 148.498622 236.209677 
L 148.601966 236.64177 
L 148.808654 238.93957 
L 149.170357 246.346745 
L 149.79042 259.112338 
L 150.048779 260.722235 
L 150.152123 260.483589 
L 150.307139 259.191034 
L 150.61717 253.782183 
L 151.495592 236.191407 
L 151.650608 235.605218 
L 151.753952 235.865107 
L 151.908968 237.209652 
L 152.218999 242.792225 
L 153.097421 261.089148 
L 153.252437 261.756265 
L 153.355781 261.530932 
L 153.510797 260.20413 
L 153.769156 255.693314 
L 154.802594 234.511204 
L 154.905938 234.358281 
L 155.009282 234.762004 
L 155.215969 237.163581 
L 155.577673 245.29768 
L 156.249407 261.167536 
L 156.507767 263.017989 
L 156.611111 262.770345 
L 156.766126 261.346792 
L 157.024486 256.526367 
L 158.057924 233.53351 
L 158.161267 233.271681 
L 158.212939 233.360751 
L 158.367955 234.495268 
L 158.626315 238.985728 
L 159.763096 263.716781 
L 159.814768 263.758367 
L 159.918112 263.397169 
L 160.1248 260.974311 
L 160.486503 252.493903 
L 161.20991 234.608006 
L 161.416597 233.000069 
L 161.468269 232.961434 
L 161.571613 233.327217 
L 161.7783 235.750194 
L 162.140004 244.190222 
L 162.86341 261.93422 
L 163.070098 263.541353 
L 163.12177 263.585458 
L 163.173442 263.483982 
L 163.328457 262.324923 
L 163.586817 257.856686 
L 164.723599 233.695298 
L 164.775271 233.642505 
L 164.826943 233.730687 
L 164.981958 234.822371 
L 165.240318 239.094732 
L 166.3771 262.341846 
L 166.428771 262.401362 
L 166.480443 262.326549 
L 166.635459 261.314518 
L 166.893819 257.295222 
L 168.0306 235.353756 
L 168.082272 235.294277 
L 168.133944 235.360652 
L 168.28896 236.296611 
L 168.547319 240.032291 
L 169.684101 260.296882 
L 169.735773 260.345481 
L 169.787445 260.278215 
L 169.942461 259.400015 
L 170.20082 255.951313 
L 171.28593 237.819249 
L 171.389274 237.666404 
L 171.492618 237.931619 
L 171.699305 239.636155 
L 172.061008 245.419798 
L 172.732743 256.470237 
L 172.991103 257.780514 
L 173.094446 257.65381 
L 173.249462 256.788694 
L 173.507822 253.823222 
L 174.489588 240.541465 
L 174.644603 240.265648 
L 174.747947 240.494446 
L 174.954635 241.86932 
L 175.316338 246.406054 
L 175.936401 254.26061 
L 176.19476 255.344288 
L 176.298104 255.268271 
L 176.45312 254.623087 
L 176.711479 252.349487 
L 177.693246 242.399176 
L 177.796589 242.281357 
L 177.848261 242.32213 
L 178.003277 242.831144 
L 178.261636 244.799542 
L 179.243403 253.892113 
L 179.346746 254.005406 
L 179.398418 253.968325 
L 179.553434 253.490811 
L 179.811793 251.622641 
L 180.79356 242.862599 
L 180.896903 242.759993 
L 180.948575 242.801634 
L 181.103591 243.292144 
L 181.36195 245.191506 
L 182.395388 254.379704 
L 182.498732 254.380603 
L 182.653748 253.900583 
L 182.912107 251.94239 
L 183.997217 241.6682 
L 184.100561 241.716516 
L 184.255577 242.306105 
L 184.513936 244.525534 
L 185.599046 255.900851 
L 185.70239 255.868384 
L 185.857406 255.256369 
L 186.115765 252.878444 
L 187.252547 240.023738 
L 187.355891 240.13496 
L 187.510906 240.907423 
L 187.769266 243.629559 
L 188.854376 257.401292 
L 188.95772 257.429188 
L 189.112735 256.818927 
L 189.371095 254.212854 
L 189.939486 244.751145 
L 190.352861 239.53801 
L 190.559549 238.737512 
L 190.662892 238.881536 
L 190.817908 239.772621 
L 191.076268 242.843114 
L 192.161377 258.294915 
L 192.264721 258.375322 
L 192.368065 258.078554 
L 192.574753 256.408733 
L 192.936456 250.829 
L 193.659863 239.275971 
L 193.86655 238.246796 
L 193.969894 238.295908 
L 194.12491 239.074045 
L 194.383269 242.044765 
L 195.520051 258.396681 
L 195.623395 258.421277 
L 195.77841 257.759229 
L 196.03677 254.979562 
L 196.605161 245.039068 
L 197.018536 239.550389 
L 197.225224 238.626549 
L 197.328567 238.706922 
L 197.483583 239.496225 
L 197.741943 242.376303 
L 198.878724 257.575178 
L 198.982068 257.575354 
L 199.137084 256.939285 
L 199.395443 254.374742 
L 200.583897 239.875902 
L 200.687241 239.967337 
L 200.842257 240.68358 
L 201.100616 243.210196 
L 202.185726 255.873512 
L 202.28907 255.987271 
L 202.340742 255.936621 
L 202.495757 255.368789 
L 202.754117 253.21066 
L 203.839227 241.94225 
L 203.942571 241.81144 
L 203.994242 241.839986 
L 204.149258 242.289138 
L 204.407618 244.09709 
L 205.544399 253.77958 
L 205.647743 253.787987 
L 205.802759 253.416351 
L 206.061118 251.915671 
L 207.146228 244.188028 
L 207.301244 244.159684 
L 207.45626 244.503114 
L 207.714619 245.760378 
L 208.696385 251.392738 
L 208.851401 251.505782 
L 209.006417 251.31966 
L 209.264776 250.445091 
L 210.246542 246.234403 
L 210.401558 246.179005 
L 210.556574 246.360522 
L 210.814933 247.100542 
L 211.693356 250.0824 
L 211.848371 250.12982 
L 212.003387 249.965402 
L 212.261746 249.284294 
L 213.140169 246.451453 
L 213.295184 246.425254 
L 213.4502 246.623226 
L 213.70856 247.403642 
L 214.690326 251.051337 
L 214.845341 251.003881 
L 215.052029 250.526806 
L 215.36206 249.065556 
L 216.137139 245.008414 
L 216.343826 244.780131 
L 216.498842 244.989094 
L 216.70553 245.763661 
L 217.067233 248.153042 
L 217.738968 252.539692 
L 217.945655 252.909705 
L 218.048999 252.836296 
L 218.204015 252.39819 
L 218.462374 250.878796 
L 219.547484 243.042256 
L 219.650828 243.01741 
L 219.805844 243.361072 
L 220.064203 244.880045 
L 220.580922 250.042059 
L 221.045969 253.877302 
L 221.252657 254.457516 
L 221.356001 254.414461 
L 221.511016 253.92757 
L 221.769376 252.095731 
L 222.95783 241.743065 
L 223.061173 241.843533 
L 223.216189 242.446109 
L 223.474549 244.519341 
L 224.61133 255.359954 
L 224.714674 255.342222 
L 224.86969 254.838622 
L 225.128049 252.849933 
L 225.69644 245.815246 
L 226.109816 241.891283 
L 226.316503 241.212556 
L 226.419847 241.261175 
L 226.574863 241.818162 
L 226.833222 243.897606 
L 228.021676 255.535045 
L 228.12502 255.464728 
L 228.280035 254.880714 
L 228.538395 252.781844 
L 229.675177 241.48085 
L 229.77852 241.437691 
L 229.933536 241.841599 
L 230.191896 243.644566 
L 230.708615 249.665159 
L 231.173662 254.13414 
L 231.432021 254.946656 
L 231.535365 254.859343 
L 231.690381 254.296286 
L 231.94874 252.360025 
L 233.03385 242.496502 
L 233.188866 242.378156 
L 233.343881 242.743043 
L 233.602241 244.303289 
L 234.170632 249.891564 
L 234.584007 253.049381 
L 234.842367 253.698808 
L 234.94571 253.624142 
L 235.100726 253.167192 
L 235.410757 251.222939 
L 236.392524 244.095191 
L 236.599211 243.891534 
L 236.754227 244.158282 
L 237.012586 245.295038 
L 238.20104 251.931352 
L 238.356056 251.915346 
L 238.562743 251.470217 
L 238.924447 249.828552 
L 239.699525 246.14384 
L 239.957885 245.791754 
L 240.1129 245.860538 
L 240.319588 246.240285 
L 240.732963 247.632991 
L 241.353026 249.601927 
L 241.663057 249.933971 
L 241.869745 249.873842 
L 242.179776 249.467434 
L 243.109871 247.994225 
L 243.471574 247.858775 
L 245.28009 247.932758 
L 245.641794 248.299725 
L 246.830247 249.88089 
L 247.036935 249.691157 
L 247.346966 248.99934 
L 248.432076 245.955429 
L 248.587092 245.989136 
L 248.793779 246.341148 
L 249.103811 247.460936 
L 250.085577 251.571477 
L 250.240593 251.635791 
L 250.395608 251.438118 
L 250.653968 250.550112 
L 251.119015 247.760133 
L 251.687406 244.740435 
L 251.894093 244.399335 
L 252.049109 244.508969 
L 252.255797 245.143312 
L 252.6175 247.344343 
L 253.392579 252.519402 
L 253.599266 252.947314 
L 253.70261 252.922468 
L 253.857626 252.580935 
L 254.115985 251.268516 
L 254.684376 246.583192 
L 255.097751 243.877805 
L 255.356111 243.347245 
L 255.459455 243.443176 
L 255.666142 244.157546 
L 255.976174 246.322008 
L 256.906268 253.481884 
L 257.112955 253.704275 
L 257.267971 253.376936 
L 257.526331 251.966621 
L 258.043049 247.221064 
L 258.508097 243.593452 
L 258.766456 242.886578 
L 258.8698 242.938448 
L 259.024816 243.375361 
L 259.283175 244.956824 
L 260.471629 253.870738 
L 260.574973 253.850444 
L 260.729988 253.460505 
L 260.988348 251.951725 
L 261.608411 246.177564 
L 262.021786 243.417016 
L 262.228473 243.010232 
L 262.331817 243.088767 
L 262.486833 243.550915 
L 262.745192 245.122418 
L 263.881974 253.419472 
L 264.03699 253.435131 
L 264.192006 253.056398 
L 264.450365 251.655968 
L 265.638819 243.702302 
L 265.793834 243.743118 
L 266.000522 244.347471 
L 266.310553 246.203539 
L 267.240648 252.317177 
L 267.447335 252.587678 
L 267.602351 252.412404 
L 267.809039 251.714967 
L 268.222414 249.215356 
L 268.894148 245.264189 
L 269.152508 244.7575 
L 269.307524 244.820749 
L 269.514211 245.309201 
L 269.875915 247.00265 
L 270.650993 250.916973 
L 270.909353 251.370742 
L 271.064368 251.346789 
L 271.271056 250.988844 
L 271.632759 249.678857 
L 272.459509 246.36854 
L 272.717869 246.009249 
L 272.924557 246.054543 
L 273.182916 246.485994 
L 273.647963 247.932314 
L 274.319698 249.903257 
L 274.629729 250.240985 
L 274.836417 250.20945 
L 275.094776 249.907331 
L 275.508152 248.991025 
L 276.386574 246.952898 
L 276.696605 246.699304 
L 276.954965 246.771392 
L 277.264996 247.190445 
L 277.730043 248.321017 
L 278.45345 250.086258 
L 278.763481 250.334125 
L 278.970169 250.229899 
L 279.228528 249.788797 
L 279.641904 248.517373 
L 280.36531 246.212705 
L 280.62367 245.93903 
L 280.778685 245.997482 
L 280.985373 246.344348 
L 281.295404 247.371003 
L 282.328842 251.275086 
L 282.53553 251.319663 
L 282.742218 250.97425 
L 283.052249 249.802355 
L 284.137359 244.968901 
L 284.292375 244.94151 
L 284.44739 245.176144 
L 284.70575 246.109183 
L 285.222469 249.233761 
L 285.739188 251.875334 
L 285.997547 252.255858 
L 286.152563 252.093041 
L 286.359251 251.430741 
L 286.720954 249.315165 
L 287.496032 244.573007 
L 287.70272 244.185255 
L 287.857736 244.267178 
L 288.064423 244.868761 
L 288.374455 246.647823 
L 289.304549 252.572372 
L 289.511236 252.806542 
L 289.666252 252.584383 
L 289.924612 251.506826 
L 290.389659 248.1077 
L 290.95805 244.373873 
L 291.216409 243.830339 
L 291.319753 243.882862 
L 291.474769 244.250223 
L 291.733128 245.547626 
L 292.921582 252.920544 
L 293.076597 252.8761 
L 293.283285 252.283351 
L 293.593316 250.4485 
L 294.523411 244.200166 
L 294.730098 243.901391 
L 294.885114 244.077398 
L 295.091802 244.815929 
L 295.453505 247.151313 
L 296.176911 252.053776 
L 296.435271 252.66256 
L 296.590287 252.595276 
L 296.796974 252.014001 
L 297.107006 250.28949 
L 298.0371 244.607046 
L 298.243787 244.343426 
L 298.398803 244.501158 
L 298.605491 245.154629 
L 298.967194 247.205665 
L 299.742273 251.677739 
L 300.000632 252.091897 
L 300.155648 251.972318 
L 300.362335 251.408649 
L 300.724039 249.584966 
L 301.499117 245.4765 
L 301.757477 245.034915 
L 301.912492 245.095825 
L 302.11918 245.540187 
L 302.480883 247.091751 
L 303.307634 250.97932 
L 303.565993 251.361594 
L 303.721009 251.308045 
L 303.927696 250.922138 
L 304.2894 249.573574 
L 305.167822 246.000744 
L 305.426181 245.712128 
L 305.581197 245.782858 
L 305.787885 246.145877 
L 306.149588 247.354147 
L 307.02801 250.547603 
L 307.28637 250.828772 
L 307.493057 250.729916 
L 307.751417 250.227509 
L 308.164792 248.803969 
L 308.888199 246.330761 
L 309.146558 245.999849 
L 309.353246 246.045045 
L 309.559933 246.363635 
L 309.921637 247.458401 
L 310.903403 250.743864 
L 311.11009 250.885563 
L 311.316778 250.727825 
L 311.575138 250.131734 
L 312.040185 248.295908 
L 312.660247 245.995324 
L 312.918607 245.651591 
L 313.073623 245.694078 
L 313.28031 246.045055 
L 313.590342 247.116229 
L 314.62378 251.281502 
L 314.830467 251.390996 
L 314.985483 251.219736 
L 315.243842 250.479684 
L 315.708889 248.176133 
L 316.27728 245.538668 
L 316.53564 245.082214 
L 316.690656 245.124144 
L 316.897343 245.55345 
L 317.207375 246.881113 
L 318.189141 251.770366 
L 318.395828 251.948715 
L 318.550844 251.77299 
L 318.809203 250.924338 
L 319.274251 248.214601 
L 319.842641 245.123954 
L 320.101001 244.606105 
L 320.256017 244.666521 
L 320.462704 245.179664 
L 320.772736 246.724856 
L 321.754502 252.158074 
L 321.961189 252.302182 
L 322.116205 252.065213 
L 322.374565 251.066683 
L 322.839612 248.057194 
L 323.408003 244.823106 
L 323.666362 244.362206 
L 323.821378 244.486129 
L 324.028065 245.10439 
L 324.389769 247.15923 
L 325.164847 251.916258 
L 325.423207 252.407429 
L 325.578222 252.300909 
L 325.78491 251.704246 
L 326.146613 249.680098 
L 326.973364 244.760742 
L 327.180051 244.409804 
L 327.335067 244.493569 
L 327.541755 245.053473 
L 327.903458 247.005667 
L 328.730208 251.852259 
L 328.988568 252.24224 
L 329.143583 252.093271 
L 329.350271 251.471453 
L 329.711974 249.501838 
L 330.487053 245.114307 
L 330.745412 244.682152 
L 330.900428 244.78633 
L 331.107116 245.33134 
L 331.468819 247.148043 
L 332.295569 251.534585 
L 332.553929 251.881685 
L 332.708944 251.748943 
L 332.915632 251.197133 
L 333.277335 249.452104 
L 334.052414 245.523208 
L 334.310773 245.096359 
L 334.465789 245.155334 
L 334.672477 245.589511 
L 335.03418 247.12173 
L 335.912602 251.182639 
L 336.170962 251.468543 
L 336.325977 251.348014 
L 336.584337 250.695856 
L 336.997712 248.833677 
L 337.669447 245.8927 
L 337.927806 245.472552 
L 338.082822 245.490287 
L 338.28951 245.824634 
L 338.599541 246.884851 
L 339.632979 251.037951 
L 339.839667 251.20177 
L 339.994682 251.096697 
L 340.253042 250.514401 
L 340.666417 248.820831 
L 341.389824 245.919355 
L 341.648183 245.585445 
L 341.803199 245.640509 
L 342.009886 246.006991 
L 342.37159 247.305461 
L 343.301684 251.026002 
L 343.508372 251.23155 
L 343.663387 251.154537 
L 343.870075 250.751235 
L 344.231778 249.376788 
L 345.1102 245.677555 
L 345.36856 245.410199 
L 345.523576 245.527947 
L 345.781935 246.167722 
L 346.19531 248.032769 
L 346.867045 251.060392 
L 347.125404 251.48906 
L 347.28042 251.454006 
L 347.487108 251.063901 
L 347.797139 249.851221 
L 348.830577 245.210502 
L 349.037265 245.105682 
L 349.19228 245.305302 
L 349.45064 246.127628 
L 349.915687 248.614465 
L 350.484078 251.36863 
L 350.742437 251.814136 
L 350.897453 251.750349 
L 351.104141 251.28128 
L 351.414172 249.890318 
L 352.395938 244.971602 
L 352.602626 244.813569 
L 352.757642 245.002258 
L 353.016001 245.860575 
L 353.481048 248.535442 
L 354.049439 251.53656 
L 354.307799 252.034397 
L 354.462814 251.976608 
L 354.669502 251.486923 
L 354.979533 250.016733 
L 355.961299 244.830288 
L 356.167987 244.667895 
L 356.323003 244.867567 
L 356.581362 245.765032 
L 357.046409 248.535326 
L 357.6148 251.602661 
L 357.87316 252.097981 
L 358.028175 252.030982 
L 358.234863 251.523946 
L 358.544894 250.02706 
L 359.474988 244.957939 
L 359.681676 244.685465 
L 359.836692 244.799504 
L 360.043379 245.35856 
L 360.405083 247.20747 
L 361.231833 251.667364 
L 361.490193 252.00449 
L 361.645208 251.851922 
L 361.851896 251.256969 
L 362.213599 249.400201 
L 362.988678 245.268585 
L 363.247037 244.8545 
L 363.402053 244.948447 
L 363.60874 245.458947 
L 363.970444 247.18101 
L 364.797194 251.426699 
L 365.055554 251.790631 
L 365.210569 251.679707 
L 365.417257 251.16478 
L 365.77896 249.483528 
L 366.605711 245.423614 
L 366.86407 245.089103 
L 367.019086 245.203527 
L 367.225773 245.706177 
L 367.587477 247.327831 
L 368.414227 251.231779 
L 368.672587 251.558528 
L 368.827602 251.45276 
L 369.03429 250.975372 
L 369.395993 249.422099 
L 370.222744 245.628085 
L 370.481103 245.289259 
L 370.636119 245.376967 
L 370.842806 245.821208 
L 371.20451 247.307781 
L 372.082932 251.166255 
L 372.341292 251.416564 
L 372.496307 251.281279 
L 372.754667 250.611697 
L 373.168042 248.728075 
L 373.839777 245.767132 
L 374.098136 245.36304 
L 374.253152 245.401884 
L 374.459839 245.779135 
L 374.769871 246.93133 
L 375.803309 251.307077 
L 376.009996 251.429709 
L 376.165012 251.268997 
L 376.423372 250.554994 
L 376.888419 248.332219 
L 377.508481 245.628707 
L 377.766841 245.26392 
L 377.921857 245.338623 
L 378.128544 245.774719 
L 378.490248 247.284296 
L 379.36867 251.314884 
L 379.575357 251.577585 
L 379.730373 251.507663 
L 379.937061 251.065565 
L 380.298764 249.515214 
L 381.177186 245.356727 
L 381.383874 245.088444 
L 381.53889 245.16391 
L 381.745577 245.625588 
L 382.107281 247.234157 
L 382.985703 251.501622 
L 383.19239 251.762099 
L 383.347406 251.67116 
L 383.554094 251.178485 
L 383.915797 249.501355 
L 384.742547 245.285829 
L 385.000907 244.918638 
L 385.155923 245.03337 
L 385.36261 245.565006 
L 385.724314 247.31308 
L 386.551064 251.566716 
L 386.809423 251.896667 
L 386.964439 251.752364 
L 387.171127 251.178036 
L 387.53283 249.364427 
L 388.307908 245.257066 
L 388.566268 244.833296 
L 388.721284 244.923386 
L 388.927971 245.435372 
L 389.289675 247.186235 
L 390.116425 251.561548 
L 390.374784 251.934683 
L 390.5298 251.812536 
L 390.736488 251.261495 
L 391.098191 249.467946 
L 391.924941 245.165814 
L 392.183301 244.844466 
L 392.338317 244.995918 
L 392.545004 245.578826 
L 392.906708 247.396396 
L 393.681786 251.459756 
L 393.940146 251.87182 
L 394.095161 251.780902 
L 394.301849 251.277206 
L 394.663552 249.566931 
L 395.490303 245.312679 
L 395.748662 244.942606 
L 395.903678 245.052565 
L 396.110365 245.5712 
L 396.472069 247.274728 
L 397.298819 251.411555 
L 397.557179 251.749859 
L 397.712194 251.628468 
L 397.918882 251.105359 
L 398.280585 249.423258 
L 398.487273 248.238139 
L 398.487273 248.238139 
" clip-path="url(#pa958f64376)" style="fill: none; stroke: #0000ff; stroke-linecap: square"/>
   </g>
   <g id="patch_8">
    <path d="M 57.6 307.584 
L 57.6 186.624 
" style="fill: none; stroke: #000000; stroke-width: 0.8; stroke-linejoin: miter; stroke-linecap: square"/>
   </g>
   <g id="patch_9">
    <path d="M 414.72 307.584 
L 414.72 186.624 
" style="fill: none; stroke: #000000; stroke-width: 0.8; stroke-linejoin: miter; stroke-linecap: square"/>
   </g>
   <g id="patch_10">
    <path d="M 57.6 307.584 
L 414.72 307.584 
" style="fill: none; stroke: #000000; stroke-width: 0.8; stroke-linejoin: miter; stroke-linecap: square"/>
   </g>
   <g id="patch_11">
    <path d="M 57.6 186.624 
L 414.72 186.624 
" style="fill: none; stroke: #000000; stroke-width: 0.8; stroke-linejoin: miter; stroke-linecap: square"/>
   </g>
  </g>
 </g>
 <defs>
  <clipPath id="p7e54385893">
   <rect x="57.6" y="41.472" width="357.12" height="120.96"/>
  </clipPath>
  <clipPath id="pa958f64376">
   <rect x="57.6" y="186.624" width="357.12" height="120.96"/>
  </clipPath>
 </defs>
</svg>
