<?xml version="1.0" encoding="utf-8" standalone="no"?>
<!DOCTYPE svg PUBLIC "-//W3C//DTD SVG 1.1//EN"
  "http://www.w3.org/Graphics/SVG/1.1/DTD/svg11.dtd">
<svg xmlns:xlink="http://www.w3.org/1999/xlink" width="460.8pt" height="345.6pt" viewBox="0 0 460.8 345.6" xmlns="http://www.w3.org/2000/svg" version="1.1">
 <metadata>
  <rdf:RDF xmlns:dc="http://purl.org/dc/elements/1.1/" xmlns:cc="http://creativecommons.org/ns#" xmlns:rdf="http://www.w3.org/1999/02/22-rdf-syntax-ns#">
   <cc:Work>
    <dc:type rdf:resource="http://purl.org/dc/dcmitype/StillImage"/>
    <dc:date>2022-10-08T16:09:25.568733</dc:date>
    <dc:format>image/svg+xml</dc:format>
    <dc:creator>
     <cc:Agent>
      <dc:title>Matplotlib v3.5.2, https://matplotlib.org/</dc:title>
     </cc:Agent>
    </dc:creator>
   </cc:Work>
  </rdf:RDF>
 </metadata>
 <defs>
  <style type="text/css">*{stroke-linejoin: round; stroke-linecap: butt}</style>
 </defs>
 <g id="figure_1">
  <g id="patch_1">
   <path d="M 0 345.6 
L 460.8 345.6 
L 460.8 0 
L 0 0 
z
" style="fill: #ffffff"/>
  </g>
  <g id="axes_1">
   <g id="patch_2">
    <path d="M 57.6 162.432 
L 414.72 162.432 
L 414.72 41.472 
L 57.6 41.472 
z
" style="fill: #ffffff"/>
   </g>
   <g id="matplotlib.axis_1">
    <g id="xtick_1">
     <g id="line2d_1">
      <defs>
       <path id="m25b84b485c" d="M 0 0 
L 0 3.5 
" style="stroke: #000000; stroke-width: 0.8"/>
      </defs>
      <g>
       <use xlink:href="#m25b84b485c" x="81.149089" y="162.432" style="stroke: #000000; stroke-width: 0.8"/>
      </g>
     </g>
     <g id="text_1">
      <!-- −3 -->
      <g transform="translate(73.777995 177.030437)scale(0.1 -0.1)">
       <defs>
        <path id="DejaVuSans-2212" d="M 678 2272 
L 4684 2272 
L 4684 1741 
L 678 1741 
L 678 2272 
z
" transform="scale(0.015625)"/>
        <path id="DejaVuSans-33" d="M 2597 2516 
Q 3050 2419 3304 2112 
Q 3559 1806 3559 1356 
Q 3559 666 3084 287 
Q 2609 -91 1734 -91 
Q 1441 -91 1130 -33 
Q 819 25 488 141 
L 488 750 
Q 750 597 1062 519 
Q 1375 441 1716 441 
Q 2309 441 2620 675 
Q 2931 909 2931 1356 
Q 2931 1769 2642 2001 
Q 2353 2234 1838 2234 
L 1294 2234 
L 1294 2753 
L 1863 2753 
Q 2328 2753 2575 2939 
Q 2822 3125 2822 3475 
Q 2822 3834 2567 4026 
Q 2313 4219 1838 4219 
Q 1578 4219 1281 4162 
Q 984 4106 628 3988 
L 628 4550 
Q 988 4650 1302 4700 
Q 1616 4750 1894 4750 
Q 2613 4750 3031 4423 
Q 3450 4097 3450 3541 
Q 3450 3153 3228 2886 
Q 3006 2619 2597 2516 
z
" transform="scale(0.015625)"/>
       </defs>
       <use xlink:href="#DejaVuSans-2212"/>
       <use xlink:href="#DejaVuSans-33" x="83.789062"/>
      </g>
     </g>
    </g>
    <g id="xtick_2">
     <g id="line2d_2">
      <g>
       <use xlink:href="#m25b84b485c" x="132.820988" y="162.432" style="stroke: #000000; stroke-width: 0.8"/>
      </g>
     </g>
     <g id="text_2">
      <!-- −2 -->
      <g transform="translate(125.449895 177.030437)scale(0.1 -0.1)">
       <defs>
        <path id="DejaVuSans-32" d="M 1228 531 
L 3431 531 
L 3431 0 
L 469 0 
L 469 531 
Q 828 903 1448 1529 
Q 2069 2156 2228 2338 
Q 2531 2678 2651 2914 
Q 2772 3150 2772 3378 
Q 2772 3750 2511 3984 
Q 2250 4219 1831 4219 
Q 1534 4219 1204 4116 
Q 875 4013 500 3803 
L 500 4441 
Q 881 4594 1212 4672 
Q 1544 4750 1819 4750 
Q 2544 4750 2975 4387 
Q 3406 4025 3406 3419 
Q 3406 3131 3298 2873 
Q 3191 2616 2906 2266 
Q 2828 2175 2409 1742 
Q 1991 1309 1228 531 
z
" transform="scale(0.015625)"/>
       </defs>
       <use xlink:href="#DejaVuSans-2212"/>
       <use xlink:href="#DejaVuSans-32" x="83.789062"/>
      </g>
     </g>
    </g>
    <g id="xtick_3">
     <g id="line2d_3">
      <g>
       <use xlink:href="#m25b84b485c" x="184.492888" y="162.432" style="stroke: #000000; stroke-width: 0.8"/>
      </g>
     </g>
     <g id="text_3">
      <!-- −1 -->
      <g transform="translate(177.121794 177.030437)scale(0.1 -0.1)">
       <defs>
        <path id="DejaVuSans-31" d="M 794 531 
L 1825 531 
L 1825 4091 
L 703 3866 
L 703 4441 
L 1819 4666 
L 2450 4666 
L 2450 531 
L 3481 531 
L 3481 0 
L 794 0 
L 794 531 
z
" transform="scale(0.015625)"/>
       </defs>
       <use xlink:href="#DejaVuSans-2212"/>
       <use xlink:href="#DejaVuSans-31" x="83.789062"/>
      </g>
     </g>
    </g>
    <g id="xtick_4">
     <g id="line2d_4">
      <g>
       <use xlink:href="#m25b84b485c" x="236.164788" y="162.432" style="stroke: #000000; stroke-width: 0.8"/>
      </g>
     </g>
     <g id="text_4">
      <!-- 0 -->
      <g transform="translate(232.983538 177.030437)scale(0.1 -0.1)">
       <defs>
        <path id="DejaVuSans-30" d="M 2034 4250 
Q 1547 4250 1301 3770 
Q 1056 3291 1056 2328 
Q 1056 1369 1301 889 
Q 1547 409 2034 409 
Q 2525 409 2770 889 
Q 3016 1369 3016 2328 
Q 3016 3291 2770 3770 
Q 2525 4250 2034 4250 
z
M 2034 4750 
Q 2819 4750 3233 4129 
Q 3647 3509 3647 2328 
Q 3647 1150 3233 529 
Q 2819 -91 2034 -91 
Q 1250 -91 836 529 
Q 422 1150 422 2328 
Q 422 3509 836 4129 
Q 1250 4750 2034 4750 
z
" transform="scale(0.015625)"/>
       </defs>
       <use xlink:href="#DejaVuSans-30"/>
      </g>
     </g>
    </g>
    <g id="xtick_5">
     <g id="line2d_5">
      <g>
       <use xlink:href="#m25b84b485c" x="287.836687" y="162.432" style="stroke: #000000; stroke-width: 0.8"/>
      </g>
     </g>
     <g id="text_5">
      <!-- 1 -->
      <g transform="translate(284.655437 177.030437)scale(0.1 -0.1)">
       <use xlink:href="#DejaVuSans-31"/>
      </g>
     </g>
    </g>
    <g id="xtick_6">
     <g id="line2d_6">
      <g>
       <use xlink:href="#m25b84b485c" x="339.508587" y="162.432" style="stroke: #000000; stroke-width: 0.8"/>
      </g>
     </g>
     <g id="text_6">
      <!-- 2 -->
      <g transform="translate(336.327337 177.030437)scale(0.1 -0.1)">
       <use xlink:href="#DejaVuSans-32"/>
      </g>
     </g>
    </g>
    <g id="xtick_7">
     <g id="line2d_7">
      <g>
       <use xlink:href="#m25b84b485c" x="391.180487" y="162.432" style="stroke: #000000; stroke-width: 0.8"/>
      </g>
     </g>
     <g id="text_7">
      <!-- 3 -->
      <g transform="translate(387.999237 177.030437)scale(0.1 -0.1)">
       <use xlink:href="#DejaVuSans-33"/>
      </g>
     </g>
    </g>
   </g>
   <g id="matplotlib.axis_2">
    <g id="ytick_1">
     <g id="line2d_8">
      <defs>
       <path id="meb0a436850" d="M 0 0 
L -3.5 0 
" style="stroke: #000000; stroke-width: 0.8"/>
      </defs>
      <g>
       <use xlink:href="#meb0a436850" x="57.6" y="156.936616" style="stroke: #000000; stroke-width: 0.8"/>
      </g>
     </g>
     <g id="text_8">
      <!-- −2 -->
      <g transform="translate(35.857813 160.735834)scale(0.1 -0.1)">
       <use xlink:href="#DejaVuSans-2212"/>
       <use xlink:href="#DejaVuSans-32" x="83.789062"/>
      </g>
     </g>
    </g>
    <g id="ytick_2">
     <g id="line2d_9">
      <g>
       <use xlink:href="#meb0a436850" x="57.6" y="129.256346" style="stroke: #000000; stroke-width: 0.8"/>
      </g>
     </g>
     <g id="text_9">
      <!-- −1 -->
      <g transform="translate(35.857813 133.055565)scale(0.1 -0.1)">
       <use xlink:href="#DejaVuSans-2212"/>
       <use xlink:href="#DejaVuSans-31" x="83.789062"/>
      </g>
     </g>
    </g>
    <g id="ytick_3">
     <g id="line2d_10">
      <g>
       <use xlink:href="#meb0a436850" x="57.6" y="101.576077" style="stroke: #000000; stroke-width: 0.8"/>
      </g>
     </g>
     <g id="text_10">
      <!-- 0 -->
      <g transform="translate(44.2375 105.375296)scale(0.1 -0.1)">
       <use xlink:href="#DejaVuSans-30"/>
      </g>
     </g>
    </g>
    <g id="ytick_4">
     <g id="line2d_11">
      <g>
       <use xlink:href="#meb0a436850" x="57.6" y="73.895808" style="stroke: #000000; stroke-width: 0.8"/>
      </g>
     </g>
     <g id="text_11">
      <!-- 1 -->
      <g transform="translate(44.2375 77.695026)scale(0.1 -0.1)">
       <use xlink:href="#DejaVuSans-31"/>
      </g>
     </g>
    </g>
    <g id="ytick_5">
     <g id="line2d_12">
      <g>
       <use xlink:href="#meb0a436850" x="57.6" y="46.215538" style="stroke: #000000; stroke-width: 0.8"/>
      </g>
     </g>
     <g id="text_12">
      <!-- 2 -->
      <g transform="translate(44.2375 50.014757)scale(0.1 -0.1)">
       <use xlink:href="#DejaVuSans-32"/>
      </g>
     </g>
    </g>
   </g>
   <g id="line2d_13">
    <path d="M 73.832727 73.895808 
L 74.142759 64.499142 
L 74.246102 64.039102 
L 74.349446 64.937664 
L 74.556134 70.517224 
L 74.917837 89.268336 
L 75.641244 127.730165 
L 75.899603 131.918193 
L 75.951275 131.91788 
L 76.054619 131.096563 
L 76.261307 126.44065 
L 76.62301 111.386861 
L 77.294745 83.199308 
L 77.553104 79.323969 
L 77.604776 79.183404 
L 77.656448 79.251723 
L 77.811464 80.6492 
L 78.069823 86.335234 
L 79.154933 115.047115 
L 79.258277 115.437146 
L 79.309949 115.424667 
L 79.413292 115.008819 
L 79.61998 112.823413 
L 80.085027 104.378043 
L 80.550074 97.549616 
L 80.808434 96.303627 
L 80.911778 96.339002 
L 81.066793 96.860459 
L 81.428497 99.295344 
L 81.7902 101.330232 
L 81.945216 101.57591 
L 82.048559 101.47964 
L 82.255247 100.702332 
L 83.081997 96.296044 
L 83.185341 96.530931 
L 83.392029 97.956405 
L 83.70206 102.330669 
L 84.52881 115.244963 
L 84.632154 115.444233 
L 84.735498 115.098892 
L 84.890514 113.514149 
L 85.148873 108.156137 
L 85.768936 88.1023 
L 86.130639 80.084792 
L 86.285655 79.18041 
L 86.388999 79.606169 
L 86.544015 81.836843 
L 86.802374 89.513848 
L 87.422437 118.22558 
L 87.78414 130.139828 
L 87.990828 131.936808 
L 88.094172 131.185687 
L 88.300859 126.360929 
L 88.610891 112.006538 
L 89.489313 66.058139 
L 89.644329 64.061376 
L 89.696 64.065119 
L 89.799344 65.102802 
L 90.006032 71.198843 
L 90.316063 88.757562 
L 91.194486 143.057649 
L 91.349501 145.269602 
L 91.401173 145.225953 
L 91.504517 143.946018 
L 91.711205 136.772546 
L 92.072908 112.373376 
L 92.847986 56.915701 
L 93.054674 52.89219 
L 93.106346 52.967622 
L 93.20969 54.441642 
L 93.416377 62.474372 
L 93.778081 89.412142 
L 94.553159 149.663885 
L 94.759847 153.925658 
L 94.811519 153.825861 
L 94.914862 152.208106 
L 95.12155 143.552011 
L 95.483253 114.823815 
L 96.20666 53.647971 
L 96.465019 46.985404 
L 96.516691 47.103199 
L 96.620035 48.813816 
L 96.826723 57.846587 
L 97.188426 87.574961 
L 97.911833 150.203873 
L 98.170192 156.922319 
L 98.221864 156.791567 
L 98.325208 155.037909 
L 98.531895 145.87889 
L 98.893599 115.960793 
L 99.617005 53.573066 
L 99.875365 46.980027 
L 99.927037 47.120209 
L 100.03038 48.869595 
L 100.237068 57.907678 
L 100.598771 87.207073 
L 101.322178 147.656341 
L 101.580537 153.937158 
L 101.632209 153.789465 
L 101.735553 152.087875 
L 101.942241 143.407953 
L 102.303944 115.511673 
L 103.027351 58.65469 
L 103.28571 52.87312 
L 103.337382 53.028016 
L 103.492398 56.083976 
L 103.750757 68.900121 
L 104.319148 114.552819 
L 104.732523 140.197658 
L 104.939211 145.06465 
L 104.990883 145.298302 
L 105.042555 145.134994 
L 105.19757 142.326463 
L 105.45593 130.801133 
L 106.644384 64.187989 
L 106.696055 64.020497 
L 106.747727 64.194767 
L 106.902743 66.700527 
L 107.161103 76.653 
L 108.297884 131.490404 
L 108.401228 131.948162 
L 108.504572 131.298932 
L 108.71126 126.943819 
L 109.072963 112.182448 
L 109.796369 82.365567 
L 110.054729 79.205315 
L 110.106401 79.207565 
L 110.209745 79.822374 
L 110.416432 83.252109 
L 110.829807 95.839362 
L 111.398198 112.266839 
L 111.656558 115.243328 
L 111.759902 115.443261 
L 111.863245 115.10843 
L 112.069933 113.053415 
L 112.483308 105.690075 
L 113.000027 97.69711 
L 113.258387 96.324437 
L 113.36173 96.314998 
L 113.516746 96.782463 
L 113.826778 98.79078 
L 114.291825 101.426151 
L 114.44684 101.566557 
L 114.601856 101.241566 
L 114.860216 99.840342 
L 115.428606 96.387258 
L 115.53195 96.286447 
L 115.583622 96.341733 
L 115.738638 96.972479 
L 115.996997 99.616202 
L 116.462044 107.90894 
L 116.927092 114.83684 
L 117.082107 115.448029 
L 117.185451 115.191603 
L 117.340467 113.743251 
L 117.598826 108.587927 
L 118.115545 91.954168 
L 118.580592 80.283452 
L 118.735608 79.190259 
L 118.78728 79.2305 
L 118.890624 79.945498 
L 119.097311 83.900209 
L 119.407343 95.27455 
L 120.285765 130.74362 
L 120.440781 131.952772 
L 120.544125 131.380684 
L 120.69914 128.426503 
L 120.9575 118.391359 
L 122.094282 64.131767 
L 122.145953 64.026781 
L 122.249297 64.845599 
L 122.455985 70.526833 
L 122.766016 87.635617 
L 123.644439 142.623386 
L 123.851126 145.282988 
L 123.95447 144.255935 
L 124.161158 137.556267 
L 124.471189 117.798119 
L 125.349611 55.757296 
L 125.556299 52.895637 
L 125.659643 54.089506 
L 125.86633 61.601859 
L 126.176362 83.450696 
L 127.054784 150.901376 
L 127.261472 153.909142 
L 127.364815 152.591302 
L 127.571503 144.488392 
L 127.881534 121.158574 
L 128.759957 50.099251 
L 128.966644 47.012038 
L 129.069988 48.41103 
L 129.276676 56.872556 
L 129.638379 85.971269 
L 130.413457 151.815431 
L 130.620145 156.858795 
L 130.671817 156.887556 
L 130.775161 155.448842 
L 130.981848 146.863799 
L 131.343552 117.569284 
L 132.11863 51.983645 
L 132.325318 47.039131 
L 132.37699 47.021981 
L 132.480333 48.461602 
L 132.687021 56.938478 
L 133.048724 85.637293 
L 133.772131 146.876327 
L 134.03049 153.884662 
L 134.082162 153.887874 
L 134.185506 152.482496 
L 134.392194 144.335765 
L 134.753897 117.00045 
L 135.477304 59.379575 
L 135.735663 52.916422 
L 135.787335 52.930909 
L 135.890679 54.271417 
L 136.097366 61.881575 
L 136.45907 87.129967 
L 137.182476 139.548948 
L 137.440836 145.267077 
L 137.492508 145.229893 
L 137.595851 143.97973 
L 137.802539 137.091783 
L 138.164242 114.590105 
L 138.887649 68.822641 
L 139.146008 64.036592 
L 139.19768 64.102421 
L 139.301024 65.24232 
L 139.507712 71.24771 
L 139.869415 90.423848 
L 140.54115 126.709216 
L 140.799509 131.772576 
L 140.851181 131.950279 
L 140.902853 131.849258 
L 141.057869 129.936952 
L 141.316228 122.109457 
L 142.45301 79.523984 
L 142.556354 79.18428 
L 142.659698 79.671593 
L 142.866385 82.884052 
L 143.228088 93.499687 
L 143.899823 112.879334 
L 144.158183 115.373817 
L 144.209855 115.448249 
L 144.261526 115.387113 
L 144.416542 114.449491 
L 144.674902 110.887 
L 145.553324 97.010985 
L 145.760012 96.289058 
L 145.863355 96.374342 
L 146.070043 97.243246 
L 146.845121 101.56258 
L 146.948465 101.532878 
L 147.103481 101.106867 
L 147.413512 99.218054 
L 147.878559 96.427328 
L 147.981903 96.284163 
L 148.033575 96.31606 
L 148.188591 96.871298 
L 148.395278 98.73327 
L 148.756982 104.578562 
L 149.377045 114.707528 
L 149.53206 115.438116 
L 149.583732 115.423007 
L 149.687076 114.975621 
L 149.893764 112.374479 
L 150.203795 104.642944 
L 151.082217 79.881514 
L 151.237233 79.194961 
L 151.340577 79.774557 
L 151.547264 83.466357 
L 151.857296 94.544651 
L 152.735718 130.47591 
L 152.890734 131.940481 
L 152.942406 131.884032 
L 153.045749 130.928772 
L 153.252437 125.714516 
L 153.61414 107.897371 
L 154.389219 66.852983 
L 154.595906 64.023212 
L 154.647578 64.151284 
L 154.750922 65.438042 
L 154.95761 72.001396 
L 155.319313 93.717816 
L 156.04272 140.441907 
L 156.249407 145.09099 
L 156.301079 145.29967 
L 156.352751 145.111726 
L 156.507767 142.173369 
L 156.766126 129.937647 
L 157.282845 88.993375 
L 157.747892 58.164361 
L 157.95458 53.073942 
L 158.006252 52.868505 
L 158.057924 53.104321 
L 158.212939 56.440959 
L 158.471299 70.057937 
L 158.988018 114.972119 
L 159.453065 148.327079 
L 159.659753 153.742237 
L 159.711424 153.944278 
L 159.814768 152.927254 
L 159.969784 147.927067 
L 160.228143 131.439446 
L 161.313253 47.856096 
L 161.416597 46.971018 
L 161.468269 47.268106 
L 161.623285 51.081613 
L 161.881644 66.274262 
L 162.450035 120.394122 
L 162.86341 151.088008 
L 163.070098 156.744513 
L 163.12177 156.932761 
L 163.225114 155.810326 
L 163.380129 150.489983 
L 163.690161 128.753387 
L 164.671927 48.97101 
L 164.826943 46.973811 
L 164.930286 48.102167 
L 165.136974 56.009668 
L 165.447005 79.298554 
L 166.325428 150.499669 
L 166.532115 153.938303 
L 166.635459 152.830765 
L 166.842147 145.225382 
L 167.152178 123.018072 
L 167.978928 57.878265 
L 168.185616 53.004584 
L 168.237288 52.878411 
L 168.340632 53.942563 
L 168.547319 61.054185 
L 168.909023 85.772684 
L 169.632429 138.863713 
L 169.890789 145.195478 
L 169.942461 145.284762 
L 170.045804 144.28198 
L 170.252492 137.836054 
L 170.614195 115.79194 
L 171.337602 69.407869 
L 171.595961 64.087489 
L 171.647633 64.044445 
L 171.750977 64.972651 
L 171.957665 70.604781 
L 172.319368 89.409232 
L 173.042775 127.797415 
L 173.301134 131.924098 
L 173.352806 131.91143 
L 173.45615 131.066245 
L 173.662837 126.36886 
L 174.024541 111.275555 
L 174.696275 83.142164 
L 174.954635 79.313243 
L 175.006307 79.182036 
L 175.057979 79.259527 
L 175.212994 80.682559 
L 175.471354 86.400479 
L 176.504792 114.660242 
L 176.659808 115.439471 
L 176.711479 115.421003 
L 176.814823 114.993967 
L 177.021511 112.790691 
L 177.53823 103.367481 
L 177.951605 97.5297 
L 178.209965 96.301324 
L 178.313308 96.342874 
L 178.468324 96.871704 
L 178.830027 99.312146 
L 179.191731 101.337173 
L 179.346746 101.576044 
L 179.45009 101.475154 
L 179.656778 100.689897 
L 180.483528 96.297971 
L 180.586872 96.539675 
L 180.79356 97.97945 
L 181.103591 102.370984 
L 181.930341 115.255012 
L 182.033685 115.442606 
L 182.137029 115.084819 
L 182.292045 113.481076 
L 182.550404 108.09508 
L 183.687186 79.180712 
L 183.79053 79.625263 
L 183.945545 81.88402 
L 184.203905 89.601351 
L 185.340687 131.900083 
L 185.392359 131.932332 
L 185.495702 131.156237 
L 185.70239 126.283602 
L 186.012421 111.876227 
L 186.890844 66.007392 
L 187.045859 64.054298 
L 187.097531 64.073231 
L 187.200875 65.141412 
L 187.407563 71.294947 
L 187.717594 88.915212 
L 188.596016 143.115252 
L 188.751032 145.276083 
L 188.802704 145.214793 
L 188.906048 143.899643 
L 189.112735 136.660548 
L 189.474439 112.186375 
L 190.249517 56.834571 
L 190.456205 52.886173 
L 190.507877 52.981221 
L 190.61122 54.494233 
L 190.817908 62.598998 
L 191.179611 89.617419 
L 191.903018 147.595154 
L 192.161377 153.931288 
L 192.213049 153.810427 
L 192.316393 152.150947 
L 192.523081 143.41831 
L 192.884784 114.605872 
L 193.608191 53.538199 
L 193.86655 46.980149 
L 193.918222 47.119888 
L 194.021566 48.873843 
L 194.228253 57.985624 
L 194.589957 87.799633 
L 195.313363 150.315182 
L 195.571723 156.92714 
L 195.623395 156.774156 
L 195.726739 154.976712 
L 195.933426 145.738336 
L 196.295129 115.73549 
L 197.018536 53.463224 
L 197.276896 46.97577 
L 197.328567 47.137873 
L 197.431911 48.930309 
L 197.638599 58.045955 
L 198.000302 87.42691 
L 198.723709 147.761679 
L 198.982068 153.940653 
L 199.03374 153.771942 
L 199.188756 150.47428 
L 199.447115 136.607079 
L 200.015506 86.8169 
L 200.428881 58.556842 
L 200.687241 52.870644 
L 200.738913 53.045088 
L 200.893928 56.157429 
L 201.152288 69.050271 
L 201.772351 118.787378 
L 202.185726 142.062324 
L 202.392414 145.299452 
L 202.495757 144.545599 
L 202.650773 140.573696 
L 202.960804 124.175672 
L 203.890899 66.685976 
L 204.097586 64.021012 
L 204.20093 64.735925 
L 204.355946 68.230922 
L 204.665977 82.304597 
L 205.596071 129.956913 
L 205.802759 131.945626 
L 205.906103 131.272314 
L 206.11279 126.874922 
L 206.474494 112.071842 
L 207.146228 83.560616 
L 207.404588 79.399448 
L 207.507932 79.212473 
L 207.611275 79.844941 
L 207.817963 83.30458 
L 208.231338 95.918536 
L 208.799729 112.308667 
L 209.058089 115.253825 
L 209.161432 115.441482 
L 209.264776 115.095277 
L 209.471464 113.021852 
L 209.936511 104.64814 
L 210.401558 97.67606 
L 210.659918 96.321081 
L 210.763261 96.317944 
L 210.918277 96.793052 
L 211.27998 99.191238 
L 211.693356 101.431606 
L 211.848371 101.565102 
L 212.003387 101.233434 
L 212.261746 99.824496 
L 212.830137 96.382166 
L 212.933481 96.287344 
L 213.036825 96.480415 
L 213.191841 97.362036 
L 213.4502 100.400287 
L 214.483638 115.448326 
L 214.586982 115.179544 
L 214.741998 113.712168 
L 215.000357 108.528385 
L 215.568748 90.176168 
L 215.982123 80.254633 
L 216.137139 79.187623 
L 216.188811 79.237152 
L 216.292155 79.971048 
L 216.498842 83.962251 
L 216.808874 95.377147 
L 217.687296 130.778896 
L 217.842312 131.952244 
L 217.945655 131.35521 
L 218.100671 128.364325 
L 218.359031 118.277701 
L 219.495812 64.119891 
L 219.547484 64.030038 
L 219.650828 64.879376 
L 219.857516 70.618686 
L 220.167547 87.79108 
L 221.045969 142.68614 
L 221.252657 145.277459 
L 221.356001 144.215124 
L 221.562688 137.449084 
L 221.87272 117.619887 
L 222.751142 55.688303 
L 222.95783 52.902982 
L 223.061173 54.135952 
L 223.267861 61.72123 
L 223.577892 83.646768 
L 224.456315 150.974974 
L 224.663002 153.900419 
L 224.766346 152.540707 
L 224.973034 144.360247 
L 225.334737 116.163189 
L 226.109816 51.961224 
L 226.316503 47.039398 
L 226.368175 47.02174 
L 226.471519 48.464252 
L 226.678206 57.005883 
L 227.03991 86.193991 
L 227.814988 151.9132 
L 228.021676 156.870698 
L 228.073348 156.877219 
L 228.176692 155.39451 
L 228.383379 146.728956 
L 228.745082 117.345863 
L 229.468489 54.27015 
L 229.726848 47.027883 
L 229.77852 47.032675 
L 229.881864 48.515578 
L 230.088552 57.071197 
L 230.450255 85.855369 
L 231.173662 146.987633 
L 231.432021 153.894869 
L 231.483693 153.87703 
L 231.587037 152.430252 
L 231.793724 144.208685 
L 232.155428 116.793592 
L 232.878834 59.276102 
L 233.137194 52.907694 
L 233.188866 52.941775 
L 233.29221 54.32068 
L 233.498897 61.999721 
L 233.8606 87.320061 
L 234.584007 139.641591 
L 234.842367 145.273851 
L 234.894038 145.21906 
L 234.997382 143.934544 
L 235.20407 136.985562 
L 235.565773 114.421844 
L 236.28918 68.743592 
L 236.547539 64.032262 
L 236.599211 64.113238 
L 236.702555 65.282511 
L 236.909243 71.339397 
L 237.270946 90.565823 
L 237.942681 126.78376 
L 238.20104 131.786425 
L 238.252712 131.951679 
L 238.304384 131.838379 
L 238.4594 129.891369 
L 238.717759 122.01893 
L 239.854541 79.507239 
L 239.957885 79.186267 
L 240.061228 79.69144 
L 240.267916 82.93448 
L 240.629619 93.577915 
L 241.301354 112.917048 
L 241.559714 115.380059 
L 241.611385 115.448376 
L 241.663057 115.381333 
L 241.818073 114.427789 
L 242.076433 110.847287 
L 242.954855 96.99597 
L 243.161542 96.287935 
L 243.264886 96.379238 
L 243.471574 97.256921 
L 244.246652 101.5642 
L 244.349996 101.529844 
L 244.505012 101.097367 
L 244.815043 99.201155 
L 245.28009 96.421371 
L 245.383434 96.284048 
L 245.435106 96.319182 
L 245.590122 96.88491 
L 245.796809 98.760956 
L 246.158513 104.622408 
L 246.778575 114.726247 
L 246.933591 115.440315 
L 246.985263 115.419165 
L 247.088607 114.959245 
L 247.295294 112.333072 
L 247.605326 104.572275 
L 248.483748 79.85835 
L 248.638764 79.198635 
L 248.742108 79.797091 
L 248.948795 83.525661 
L 249.258827 94.645764 
L 250.137249 130.51477 
L 250.292265 131.943884 
L 250.343936 131.875039 
L 250.44728 130.894802 
L 250.653968 125.63318 
L 251.015671 107.760043 
L 251.79075 66.793566 
L 251.997437 64.021628 
L 252.049109 64.164937 
L 252.204125 66.651066 
L 252.462484 77.213832 
L 252.927531 109.264175 
L 253.44425 140.525176 
L 253.650938 145.108617 
L 253.70261 145.299763 
L 253.754282 145.094148 
L 253.909298 142.103592 
L 254.167657 129.793137 
L 254.684376 88.801633 
L 255.149423 58.072236 
L 255.356111 53.055501 
L 255.407783 52.869598 
L 255.511126 53.821855 
L 255.666142 58.499829 
L 255.924502 73.971488 
L 257.009612 153.109418 
L 257.112955 153.942267 
L 257.216299 152.883262 
L 257.371315 147.823061 
L 257.681346 126.967344 
L 258.663112 48.966348 
L 258.818128 46.973728 
L 258.921472 48.10362 
L 259.128159 56.067476 
L 259.438191 79.719319 
L 260.316613 153.299964 
L 260.523301 156.929508 
L 260.626644 155.762909 
L 260.833332 147.678219 
L 261.143363 123.845157 
L 262.021786 50.521572 
L 262.228473 46.977521 
L 262.331817 48.149351 
L 262.538505 56.136702 
L 262.848536 79.507202 
L 263.675287 148.590972 
L 263.881974 153.800942 
L 263.933646 153.934155 
L 264.03699 152.785006 
L 264.243677 145.10368 
L 264.605381 118.271958 
L 265.380459 57.786925 
L 265.587147 52.989602 
L 265.638819 52.883049 
L 265.742163 53.985823 
L 265.94885 61.167407 
L 266.310553 85.961228 
L 267.03396 138.961415 
L 267.29232 145.207884 
L 267.343991 145.27952 
L 267.447335 144.242151 
L 267.654023 137.734164 
L 268.015726 115.624944 
L 268.739133 69.32437 
L 268.997492 64.078303 
L 269.049164 64.050459 
L 269.152508 65.008279 
L 269.359196 70.692851 
L 269.720899 89.550269 
L 270.444305 127.864148 
L 270.702665 131.92945 
L 270.754337 131.904437 
L 270.857681 131.035415 
L 271.064368 126.296672 
L 271.426072 111.16416 
L 272.097806 83.085409 
L 272.356166 79.302936 
L 272.407838 79.181081 
L 272.459509 79.267732 
L 272.614525 80.716268 
L 272.872885 86.465931 
L 273.906323 114.68112 
L 274.061338 115.441526 
L 274.11301 115.417078 
L 274.216354 114.97888 
L 274.423042 112.757812 
L 274.939761 103.325272 
L 275.353136 97.509942 
L 275.611495 96.299168 
L 275.714839 96.346873 
L 275.869855 96.883037 
L 276.28323 99.700247 
L 276.644933 101.472478 
L 276.799949 101.549337 
L 276.954965 101.163576 
L 277.213324 99.693563 
L 277.781715 96.345204 
L 277.885059 96.300042 
L 277.988403 96.548576 
L 278.19509 98.00265 
L 278.505122 102.411386 
L 279.2802 114.985148 
L 279.435216 115.440709 
L 279.53856 115.070464 
L 279.745247 112.624181 
L 280.055279 105.07577 
L 280.985373 79.550453 
L 281.088717 79.181426 
L 281.140389 79.307148 
L 281.295404 80.958851 
L 281.553764 87.785777 
L 282.018811 108.683497 
L 282.53553 129.154282 
L 282.742218 131.907395 
L 282.793889 131.927303 
L 282.897233 131.126232 
L 283.103921 126.20578 
L 283.413952 111.745654 
L 284.292375 65.957259 
L 284.44739 64.04789 
L 284.499062 64.08202 
L 284.602406 65.180695 
L 284.809094 71.391638 
L 285.170797 92.701628 
L 285.945875 141.718241 
L 286.152563 145.281783 
L 286.204235 145.202848 
L 286.307579 143.852496 
L 286.514266 136.547886 
L 286.875969 111.999129 
L 287.651048 56.75422 
L 287.857736 52.881025 
L 287.909407 52.995693 
L 288.012751 54.547678 
L 288.219439 62.724348 
L 288.581142 89.822952 
L 289.304549 147.699695 
L 289.562908 153.935984 
L 289.61458 153.794059 
L 289.717924 152.092877 
L 289.924612 143.283844 
L 290.286315 114.38767 
L 291.009721 53.429275 
L 291.268081 46.975868 
L 291.319753 47.13755 
L 291.423097 48.934815 
L 291.629784 58.125447 
L 291.991488 88.024561 
L 292.714894 150.425622 
L 292.973254 156.930973 
L 293.024926 156.755759 
L 293.128269 154.914563 
L 293.334957 145.596996 
L 293.69666 115.509943 
L 294.420067 53.354247 
L 294.678426 46.972489 
L 294.730098 47.156507 
L 294.885114 50.625003 
L 295.143473 65.195689 
L 295.711864 117.794246 
L 296.12524 147.866177 
L 296.383599 153.943212 
L 296.435271 153.75349 
L 296.590287 150.394985 
L 296.848646 136.444278 
L 297.417037 86.615499 
L 297.830412 58.459785 
L 298.0371 53.116368 
L 298.088772 52.86904 
L 298.140444 53.063023 
L 298.295459 56.231676 
L 298.553819 69.200964 
L 299.173882 118.963287 
L 299.587257 142.132541 
L 299.793944 145.299819 
L 299.897288 144.511177 
L 300.052304 140.490819 
L 300.362335 124.022615 
L 301.292429 66.626582 
L 301.499117 64.022201 
L 301.602461 64.766939 
L 301.809148 70.072544 
L 302.170852 88.541863 
L 302.894258 127.374094 
L 303.152618 131.878825 
L 303.20429 131.942543 
L 303.307634 131.245178 
L 303.514321 126.805616 
L 303.876024 111.961131 
L 304.547759 83.501087 
L 304.806119 79.386136 
L 304.857791 79.197065 
L 304.909462 79.217786 
L 305.012806 79.867885 
L 305.219494 83.357331 
L 305.632869 95.997718 
L 306.20126 112.350229 
L 306.459619 115.264043 
L 306.562963 115.439438 
L 306.666307 115.081884 
L 306.872995 112.990125 
L 307.338042 104.604269 
L 307.803089 97.655168 
L 308.061448 96.317873 
L 308.164792 96.321021 
L 308.319808 96.803734 
L 308.681511 99.208146 
L 309.094886 101.436962 
L 309.249902 101.563543 
L 309.404918 101.225211 
L 309.663277 99.80861 
L 310.231668 96.377198 
L 310.335012 96.288382 
L 310.438356 96.488195 
L 310.593371 97.38056 
L 310.851731 100.435177 
L 311.885169 115.448356 
L 311.988513 115.167204 
L 312.143528 113.680808 
L 312.401888 108.468629 
L 312.970279 90.101949 
L 313.383654 80.226176 
L 313.53867 79.185396 
L 313.590342 79.244221 
L 313.693685 79.997019 
L 313.900373 84.024671 
L 314.210404 95.479943 
L 315.088827 130.813668 
L 315.243842 131.951167 
L 315.347186 131.329182 
L 315.502202 128.301624 
L 315.760561 118.163673 
L 316.897343 64.108683 
L 316.949015 64.033971 
L 317.052359 64.913827 
L 317.259046 70.711135 
L 317.569078 87.946856 
L 318.4475 142.748179 
L 318.654188 145.271145 
L 318.757532 144.173536 
L 318.964219 137.341225 
L 319.274251 117.441315 
L 320.152673 55.620113 
L 320.35936 52.911198 
L 320.462704 54.183256 
L 320.669392 61.841341 
L 320.979423 83.8432 
L 321.857846 151.047702 
L 322.064533 153.890761 
L 322.167877 152.489194 
L 322.374565 144.23132 
L 322.736268 115.946927 
L 323.511346 51.86556 
L 323.718034 47.028134 
L 323.769706 47.032417 
L 323.87305 48.518425 
L 324.079737 57.140013 
L 324.441441 86.416998 
L 325.216519 152.010072 
L 325.423207 156.881614 
L 325.474879 156.865895 
L 325.578222 155.339218 
L 325.78491 146.593309 
L 326.146613 117.122167 
L 326.87002 54.155008 
L 327.128379 47.01761 
L 327.180051 47.044341 
L 327.283395 48.570497 
L 327.490083 57.204698 
L 327.851786 86.073702 
L 328.575193 147.098112 
L 328.833552 153.90414 
L 328.885224 153.865254 
L 328.988568 152.377107 
L 329.195255 144.080866 
L 329.556959 116.586502 
L 330.280365 59.173408 
L 330.538725 52.899838 
L 330.590397 52.953507 
L 330.69374 54.370775 
L 330.900428 62.118543 
L 331.262131 87.510355 
L 331.985538 139.733522 
L 332.243897 145.279841 
L 332.295569 145.20745 
L 332.398913 143.888616 
L 332.605601 136.878747 
L 332.967304 114.253419 
L 333.690711 68.665168 
L 333.94907 64.028609 
L 334.000742 64.124722 
L 334.104086 65.323335 
L 334.310773 71.431579 
L 334.672477 90.707919 
L 335.344211 126.857802 
L 335.602571 131.799719 
L 335.654243 131.952529 
L 335.705915 131.82696 
L 335.86093 129.845307 
L 336.11929 121.9281 
L 337.256072 79.490915 
L 337.359415 79.188663 
L 337.462759 79.71167 
L 337.669447 82.985197 
L 338.03115 93.656198 
L 338.702885 112.954491 
L 338.961244 115.386026 
L 339.012916 115.448236 
L 339.064588 115.375297 
L 339.219604 114.405876 
L 339.477963 110.807471 
L 340.356386 96.981115 
L 340.563073 96.286956 
L 340.666417 96.384257 
L 340.873105 97.270665 
L 341.648183 101.565716 
L 341.751527 101.526709 
L 341.906543 101.08778 
L 342.216574 99.184241 
L 342.681621 96.415534 
L 342.784965 96.284073 
L 342.836637 96.322451 
L 342.991653 96.898682 
L 343.19834 98.788789 
L 343.560043 104.666296 
L 344.180106 114.744743 
L 344.335122 115.44225 
L 344.386794 115.41505 
L 344.490138 114.942587 
L 344.696825 112.2914 
L 345.006857 104.501456 
L 345.885279 79.835563 
L 346.040295 79.202724 
L 346.143638 79.820045 
L 346.350326 83.585348 
L 346.660357 94.747089 
L 347.53878 130.553135 
L 347.693795 131.946741 
L 347.745467 131.865491 
L 347.848811 130.86028 
L 348.055499 125.551359 
L 348.417202 107.622524 
L 349.19228 66.734744 
L 349.398968 64.020717 
L 349.502312 64.681667 
L 349.657328 68.225728 
L 349.915687 80.290667 
L 351.052469 145.125471 
L 351.104141 145.299072 
L 351.207485 144.454616 
L 351.3625 140.249063 
L 351.62086 126.241224 
L 352.757642 53.037922 
L 352.809313 52.871563 
L 352.912657 53.862986 
L 353.067673 58.597214 
L 353.326032 74.144657 
L 354.411142 153.148264 
L 354.514486 153.939321 
L 354.61783 152.838347 
L 354.824518 145.138707 
L 355.134549 122.231165 
L 356.012971 50.508851 
L 356.219659 46.977413 
L 356.323003 48.150949 
L 356.52969 56.195792 
L 356.839722 79.932212 
L 357.718144 153.382855 
L 357.924832 156.925266 
L 358.028175 155.714526 
L 358.234863 147.548392 
L 358.544894 123.63131 
L 359.423317 50.440009 
L 359.630004 46.982205 
L 359.733348 48.197484 
L 359.940036 56.264535 
L 360.250067 79.716223 
L 361.076817 148.688546 
L 361.283505 153.816924 
L 361.335177 153.929073 
L 361.438521 152.73834 
L 361.645208 144.981222 
L 362.006912 118.066623 
L 362.78199 57.696389 
L 362.988678 52.975491 
L 363.04035 52.888556 
L 363.143693 54.029923 
L 363.350381 61.281323 
L 363.712084 86.149999 
L 364.435491 139.058417 
L 364.69385 145.219504 
L 364.745522 145.273497 
L 364.848866 144.201573 
L 365.055554 137.631664 
L 365.417257 115.457762 
L 366.140664 69.241488 
L 366.399023 64.069794 
L 366.450695 64.057144 
L 366.554039 65.044546 
L 366.760726 70.78143 
L 367.12243 89.691446 
L 367.845836 127.930365 
L 368.104196 131.93425 
L 368.155868 131.8969 
L 368.259211 131.004074 
L 368.465899 126.224089 
L 368.827602 111.052679 
L 369.499337 83.029045 
L 369.757697 79.293047 
L 369.809368 79.180537 
L 369.86104 79.276338 
L 370.016056 80.750324 
L 370.274416 86.531589 
L 371.307854 114.701715 
L 371.462869 115.443311 
L 371.514541 115.412894 
L 371.617885 114.963561 
L 371.824573 112.724776 
L 372.341292 103.283132 
L 372.754667 97.490343 
L 373.013026 96.297157 
L 373.11637 96.350998 
L 373.271386 96.894459 
L 373.684761 99.716383 
L 374.046464 101.477022 
L 374.20148 101.546936 
L 374.356496 101.154617 
L 374.614855 99.677379 
L 375.183246 96.341257 
L 375.28659 96.302259 
L 375.389934 96.557633 
L 375.596621 98.026006 
L 375.906653 102.451876 
L 376.681731 115.000138 
L 376.836747 115.438542 
L 376.940091 115.055828 
L 377.146778 112.58442 
L 377.45681 105.006056 
L 378.335232 80.007297 
L 378.490248 79.182552 
L 378.593591 79.664714 
L 378.748607 81.979586 
L 379.006967 89.777239 
L 380.143748 131.914164 
L 380.19542 131.921723 
L 380.298764 131.095674 
L 380.505452 126.127465 
L 380.815483 111.61482 
L 381.693905 65.907741 
L 381.848921 64.042154 
L 381.900593 64.091487 
L 382.003937 65.220649 
L 382.210624 71.488915 
L 382.572328 92.865679 
L 383.347406 141.790386 
L 383.554094 145.286702 
L 383.605766 145.190118 
L 383.709109 143.804575 
L 383.915797 136.434562 
L 384.2775 111.81164 
L 385.052579 56.674651 
L 385.259266 52.876747 
L 385.310938 53.011036 
L 385.414282 54.601975 
L 385.62097 62.850421 
L 385.982673 90.028737 
L 386.70608 147.80343 
L 386.964439 153.939746 
L 387.016111 153.776755 
L 387.119455 152.033896 
L 387.326142 143.148614 
L 387.687846 114.169213 
L 388.411252 53.321201 
L 388.669612 46.972562 
L 388.721284 47.156185 
L 388.876299 50.638431 
L 389.134659 65.368312 
L 389.651378 114.206371 
L 390.116425 150.535192 
L 390.374784 156.933818 
L 390.426456 156.736378 
L 390.581472 153.181219 
L 390.839832 138.285885 
L 391.356551 89.32475 
L 391.821598 53.246138 
L 392.079957 46.970182 
L 392.131629 47.176112 
L 392.286645 50.708261 
L 392.545004 65.366945 
L 393.113395 118.007925 
L 393.52677 147.969835 
L 393.733458 153.681592 
L 393.78513 153.944836 
L 393.836802 153.734109 
L 393.991817 150.314832 
L 394.250177 136.280884 
L 394.818568 86.414406 
L 395.231943 58.36352 
L 395.438631 53.096005 
L 395.490303 52.868307 
L 395.541974 53.081821 
L 395.69699 56.306715 
L 395.95535 69.352195 
L 396.627084 122.988802 
L 396.988788 142.202008 
L 397.195475 145.299403 
L 397.298819 144.475999 
L 397.453835 140.407275 
L 397.763866 123.869215 
L 398.487273 74.36218 
L 398.487273 74.36218 
" clip-path="url(#p4ce2892639)" style="fill: none; stroke: #0000ff; stroke-linecap: square"/>
   </g>
   <g id="patch_3">
    <path d="M 57.6 162.432 
L 57.6 41.472 
" style="fill: none; stroke: #000000; stroke-width: 0.8; stroke-linejoin: miter; stroke-linecap: square"/>
   </g>
   <g id="patch_4">
    <path d="M 414.72 162.432 
L 414.72 41.472 
" style="fill: none; stroke: #000000; stroke-width: 0.8; stroke-linejoin: miter; stroke-linecap: square"/>
   </g>
   <g id="patch_5">
    <path d="M 57.6 162.432 
L 414.72 162.432 
" style="fill: none; stroke: #000000; stroke-width: 0.8; stroke-linejoin: miter; stroke-linecap: square"/>
   </g>
   <g id="patch_6">
    <path d="M 57.6 41.472 
L 414.72 41.472 
" style="fill: none; stroke: #000000; stroke-width: 0.8; stroke-linejoin: miter; stroke-linecap: square"/>
   </g>
  </g>
  <g id="axes_2">
   <g id="patch_7">
    <path d="M 57.6 307.584 
L 414.72 307.584 
L 414.72 186.624 
L 57.6 186.624 
z
" style="fill: #ffffff"/>
   </g>
   <g id="matplotlib.axis_3">
    <g id="xtick_8">
     <g id="line2d_14">
      <g>
       <use xlink:href="#m25b84b485c" x="81.149089" y="307.584" style="stroke: #000000; stroke-width: 0.8"/>
      </g>
     </g>
     <g id="text_13">
      <!-- −3 -->
      <g transform="translate(73.777995 322.182437)scale(0.1 -0.1)">
       <use xlink:href="#DejaVuSans-2212"/>
       <use xlink:href="#DejaVuSans-33" x="83.789062"/>
      </g>
     </g>
    </g>
    <g id="xtick_9">
     <g id="line2d_15">
      <g>
       <use xlink:href="#m25b84b485c" x="132.820988" y="307.584" style="stroke: #000000; stroke-width: 0.8"/>
      </g>
     </g>
     <g id="text_14">
      <!-- −2 -->
      <g transform="translate(125.449895 322.182437)scale(0.1 -0.1)">
       <use xlink:href="#DejaVuSans-2212"/>
       <use xlink:href="#DejaVuSans-32" x="83.789062"/>
      </g>
     </g>
    </g>
    <g id="xtick_10">
     <g id="line2d_16">
      <g>
       <use xlink:href="#m25b84b485c" x="184.492888" y="307.584" style="stroke: #000000; stroke-width: 0.8"/>
      </g>
     </g>
     <g id="text_15">
      <!-- −1 -->
      <g transform="translate(177.121794 322.182437)scale(0.1 -0.1)">
       <use xlink:href="#DejaVuSans-2212"/>
       <use xlink:href="#DejaVuSans-31" x="83.789062"/>
      </g>
     </g>
    </g>
    <g id="xtick_11">
     <g id="line2d_17">
      <g>
       <use xlink:href="#m25b84b485c" x="236.164788" y="307.584" style="stroke: #000000; stroke-width: 0.8"/>
      </g>
     </g>
     <g id="text_16">
      <!-- 0 -->
      <g transform="translate(232.983538 322.182437)scale(0.1 -0.1)">
       <use xlink:href="#DejaVuSans-30"/>
      </g>
     </g>
    </g>
    <g id="xtick_12">
     <g id="line2d_18">
      <g>
       <use xlink:href="#m25b84b485c" x="287.836687" y="307.584" style="stroke: #000000; stroke-width: 0.8"/>
      </g>
     </g>
     <g id="text_17">
      <!-- 1 -->
      <g transform="translate(284.655437 322.182437)scale(0.1 -0.1)">
       <use xlink:href="#DejaVuSans-31"/>
      </g>
     </g>
    </g>
    <g id="xtick_13">
     <g id="line2d_19">
      <g>
       <use xlink:href="#m25b84b485c" x="339.508587" y="307.584" style="stroke: #000000; stroke-width: 0.8"/>
      </g>
     </g>
     <g id="text_18">
      <!-- 2 -->
      <g transform="translate(336.327337 322.182437)scale(0.1 -0.1)">
       <use xlink:href="#DejaVuSans-32"/>
      </g>
     </g>
    </g>
    <g id="xtick_14">
     <g id="line2d_20">
      <g>
       <use xlink:href="#m25b84b485c" x="391.180487" y="307.584" style="stroke: #000000; stroke-width: 0.8"/>
      </g>
     </g>
     <g id="text_19">
      <!-- 3 -->
      <g transform="translate(387.999237 322.182437)scale(0.1 -0.1)">
       <use xlink:href="#DejaVuSans-33"/>
      </g>
     </g>
    </g>
   </g>
   <g id="matplotlib.axis_4">
    <g id="ytick_6">
     <g id="line2d_21">
      <g>
       <use xlink:href="#meb0a436850" x="57.6" y="281.663955" style="stroke: #000000; stroke-width: 0.8"/>
      </g>
     </g>
     <g id="text_20">
      <!-- −10 -->
      <g transform="translate(29.495313 285.463174)scale(0.1 -0.1)">
       <use xlink:href="#DejaVuSans-2212"/>
       <use xlink:href="#DejaVuSans-31" x="83.789062"/>
       <use xlink:href="#DejaVuSans-30" x="147.412109"/>
      </g>
     </g>
    </g>
    <g id="ytick_7">
     <g id="line2d_22">
      <g>
       <use xlink:href="#meb0a436850" x="57.6" y="248.379555" style="stroke: #000000; stroke-width: 0.8"/>
      </g>
     </g>
     <g id="text_21">
      <!-- 0 -->
      <g transform="translate(44.2375 252.178774)scale(0.1 -0.1)">
       <use xlink:href="#DejaVuSans-30"/>
      </g>
     </g>
    </g>
    <g id="ytick_8">
     <g id="line2d_23">
      <g>
       <use xlink:href="#meb0a436850" x="57.6" y="215.095155" style="stroke: #000000; stroke-width: 0.8"/>
      </g>
     </g>
     <g id="text_22">
      <!-- 10 -->
      <g transform="translate(37.875 218.894374)scale(0.1 -0.1)">
       <use xlink:href="#DejaVuSans-31"/>
       <use xlink:href="#DejaVuSans-30" x="63.623047"/>
      </g>
     </g>
    </g>
   </g>
   <g id="line2d_24">
    <path d="M 73.832727 192.122182 
L 73.884399 192.154435 
L 73.987743 193.891949 
L 74.194431 203.660834 
L 74.556134 235.768399 
L 75.227869 295.845652 
L 75.434556 301.895433 
L 75.486228 302.085818 
L 75.589572 300.858694 
L 75.796259 292.295964 
L 76.157963 262.392246 
L 76.829697 204.005046 
L 77.088057 197.146179 
L 77.139729 197.296015 
L 77.243073 199.124859 
L 77.44976 208.500594 
L 77.811464 238.322969 
L 78.431526 290.030918 
L 78.689886 297.32173 
L 78.741558 297.326515 
L 78.844902 295.86276 
L 79.051589 287.383062 
L 79.413292 259.267835 
L 80.085027 206.624765 
L 80.291715 201.44009 
L 80.343387 201.314697 
L 80.44673 202.486865 
L 80.653418 210.230383 
L 81.015121 236.903705 
L 81.686856 288.26245 
L 81.893544 293.670422 
L 81.945216 293.893924 
L 81.996887 293.656318 
L 82.151903 290.232543 
L 82.410263 276.485796 
L 83.495373 204.366019 
L 83.547044 204.054045 
L 83.598716 204.191255 
L 83.70206 205.800517 
L 83.908748 214.022215 
L 84.270451 240.192996 
L 84.890514 285.578875 
L 85.148873 291.85781 
L 85.200545 291.821336 
L 85.303889 290.436408 
L 85.510577 282.716586 
L 85.87228 257.353814 
L 86.544015 210.036623 
L 86.750702 205.473852 
L 86.802374 205.397819 
L 86.905718 206.541571 
L 87.112405 213.753681 
L 87.474109 238.383831 
L 88.145843 285.859148 
L 88.352531 290.88251 
L 88.404203 291.09151 
L 88.455875 290.871654 
L 88.610891 287.684608 
L 88.86925 274.837376 
L 89.95436 206.238943 
L 90.006032 205.871625 
L 90.057704 205.929222 
L 90.161048 207.311849 
L 90.367735 214.862508 
L 90.729438 239.571371 
L 91.401173 285.957732 
L 91.607861 290.612309 
L 91.659533 290.74349 
L 91.762876 289.744693 
L 91.969564 282.933071 
L 92.331267 259.125945 
L 93.054674 210.107132 
L 93.261362 206.281424 
L 93.313033 206.354948 
L 93.416377 207.745308 
L 93.623065 215.215227 
L 93.984768 239.537703 
L 94.656503 285.234268 
L 94.86319 289.915339 
L 94.914862 290.077747 
L 95.018206 289.170475 
L 95.173222 284.832236 
L 95.483253 267.229653 
L 96.361676 209.797548 
L 96.568363 207.375153 
L 96.671707 208.573398 
L 96.878395 215.53456 
L 97.240098 238.774147 
L 97.911833 283.370178 
L 98.170192 288.51657 
L 98.221864 288.38042 
L 98.325208 286.935465 
L 98.531895 279.650148 
L 98.893599 256.499272 
L 99.565333 213.793651 
L 99.772021 209.550064 
L 99.823693 209.430347 
L 99.927037 210.336072 
L 100.133724 216.504191 
L 100.495427 237.999673 
L 101.218834 282.25528 
L 101.425522 285.849185 
L 101.477194 285.835323 
L 101.580537 284.707594 
L 101.787225 278.30681 
L 102.148928 257.156724 
L 102.820663 217.044164 
L 103.079022 212.542822 
L 103.130694 212.689454 
L 103.28571 215.209863 
L 103.54407 225.596082 
L 104.680851 282.306771 
L 104.732523 282.360614 
L 104.835867 281.46325 
L 105.042555 275.870862 
L 105.404258 256.913229 
L 106.075993 220.503058 
L 106.334352 216.310381 
L 106.386024 216.417259 
L 106.489368 217.577922 
L 106.696055 223.430998 
L 107.057759 241.922331 
L 107.677822 273.903194 
L 107.936181 278.476506 
L 107.987853 278.501834 
L 108.091197 277.651861 
L 108.297884 272.559653 
L 108.659588 255.533457 
L 109.331322 223.44254 
L 109.53801 220.169748 
L 109.589682 220.054678 
L 109.693026 220.679315 
L 109.899713 225.173164 
L 110.261417 240.939467 
L 110.933151 271.589658 
L 111.191511 275.085962 
L 111.243183 274.982051 
L 111.398198 273.073915 
L 111.656558 265.15936 
L 112.741668 223.194659 
L 112.79334 223.002616 
L 112.845012 223.070101 
L 112.948355 223.975491 
L 113.155043 228.66744 
L 113.516746 243.622112 
L 114.136809 269.352473 
L 114.395168 272.78684 
L 114.44684 272.736408 
L 114.550184 271.891043 
L 114.756872 267.407444 
L 115.118575 252.978684 
L 115.738638 227.948941 
L 115.996997 224.558791 
L 116.048669 224.59889 
L 116.152013 225.406514 
L 116.358701 229.758444 
L 116.720404 243.868042 
L 117.392139 269.689238 
L 117.598826 271.970333 
L 117.650498 271.946557 
L 117.753842 271.180017 
L 117.96053 266.932305 
L 118.322233 252.999021 
L 118.993968 227.135477 
L 119.200655 224.735091 
L 119.252327 224.725345 
L 119.355671 225.423644 
L 119.562358 229.544183 
L 119.924062 243.363649 
L 120.595796 269.618062 
L 120.802484 272.251558 
L 120.854156 272.320387 
L 120.9575 271.73657 
L 121.164187 267.811542 
L 121.525891 254.130174 
L 122.197625 227.226571 
L 122.455985 224.08117 
L 122.507657 224.165773 
L 122.662672 225.855806 
L 122.921032 232.995045 
L 124.057814 272.967023 
L 124.109486 273.000741 
L 124.212829 272.338355 
L 124.419517 268.23289 
L 124.78122 254.212855 
L 125.452955 226.79668 
L 125.711315 223.524885 
L 125.762986 223.589943 
L 125.86633 224.448865 
L 126.073018 228.915203 
L 126.434721 243.326953 
L 127.106456 270.382587 
L 127.313143 273.176661 
L 127.364815 273.279332 
L 127.416487 273.138281 
L 127.571503 271.279476 
L 127.829862 263.898426 
L 128.966644 223.731288 
L 129.018316 223.688618 
L 129.12166 224.323241 
L 129.328347 228.331046 
L 129.690051 242.071774 
L 130.413457 270.286925 
L 130.620145 272.59406 
L 130.671817 272.588815 
L 130.775161 271.874859 
L 130.981848 267.787624 
L 131.343552 254.195629 
L 132.015286 228.024367 
L 132.273646 224.882866 
L 132.325318 224.929084 
L 132.428661 225.7016 
L 132.635349 229.802319 
L 132.997052 243.079453 
L 133.668787 268.07201 
L 133.927147 270.890561 
L 133.978818 270.80514 
L 134.133834 269.258069 
L 134.392194 262.834603 
L 135.528975 227.17169 
L 135.580647 227.091346 
L 135.683991 227.55276 
L 135.890679 230.83815 
L 136.252382 242.377004 
L 136.975789 266.227162 
L 137.182476 268.233602 
L 137.234148 268.251444 
L 137.337492 267.704531 
L 137.54418 264.41761 
L 137.905883 253.408811 
L 138.577618 232.426398 
L 138.835977 230.007391 
L 138.887649 230.063708 
L 138.990993 230.715803 
L 139.19768 234.027498 
L 139.559384 244.492165 
L 140.179446 262.568029 
L 140.437806 265.17935 
L 140.489478 265.204021 
L 140.592822 264.750613 
L 140.799509 261.954103 
L 141.161213 252.558651 
L 141.832947 234.882863 
L 142.039635 233.080296 
L 142.091307 233.014441 
L 142.142979 233.104601 
L 142.297994 234.286301 
L 142.556354 238.923681 
L 143.641464 262.383216 
L 143.693136 262.454977 
L 143.744807 262.381736 
L 143.899823 261.313518 
L 144.158183 257.041888 
L 145.243293 235.360854 
L 145.294964 235.310075 
L 145.346636 235.395537 
L 145.501652 236.448708 
L 145.760012 240.538546 
L 146.79345 260.644936 
L 146.896793 260.8037 
L 147.000137 260.442385 
L 147.206825 258.248862 
L 147.568528 250.898912 
L 148.240263 237.345014 
L 148.44695 236.184212 
L 148.498622 236.209677 
L 148.601966 236.64177 
L 148.808654 238.93957 
L 149.170357 246.346745 
L 149.79042 259.112338 
L 150.048779 260.722235 
L 150.152123 260.483589 
L 150.307139 259.191034 
L 150.61717 253.782183 
L 151.495592 236.191407 
L 151.650608 235.605218 
L 151.753952 235.865107 
L 151.908968 237.209652 
L 152.218999 242.792225 
L 153.097421 261.089148 
L 153.252437 261.756265 
L 153.355781 261.530932 
L 153.510797 260.20413 
L 153.769156 255.693314 
L 154.802594 234.511204 
L 154.905938 234.358281 
L 155.009282 234.762004 
L 155.215969 237.163581 
L 155.577673 245.29768 
L 156.249407 261.167536 
L 156.507767 263.017989 
L 156.611111 262.770345 
L 156.766126 261.346792 
L 157.024486 256.526367 
L 158.057924 233.53351 
L 158.161267 233.271681 
L 158.212939 233.360751 
L 158.367955 234.495268 
L 158.626315 238.985728 
L 159.763096 263.716781 
L 159.814768 263.758367 
L 159.918112 263.397169 
L 160.1248 260.974311 
L 160.486503 252.493903 
L 161.20991 234.608006 
L 161.416597 233.000069 
L 161.468269 232.961434 
L 161.571613 233.327217 
L 161.7783 235.750194 
L 162.140004 244.190222 
L 162.86341 261.93422 
L 163.070098 263.541353 
L 163.12177 263.585458 
L 163.173442 263.483982 
L 163.328457 262.324923 
L 163.586817 257.856686 
L 164.723599 233.695298 
L 164.775271 233.642505 
L 164.826943 233.730687 
L 164.981958 234.822371 
L 165.240318 239.094732 
L 166.3771 262.341846 
L 166.428771 262.401362 
L 166.480443 262.326549 
L 166.635459 261.314518 
L 166.893819 257.295222 
L 168.0306 235.353756 
L 168.082272 235.294277 
L 168.133944 235.360652 
L 168.28896 236.296611 
L 168.547319 240.032291 
L 169.684101 260.296882 
L 169.735773 260.345481 
L 169.787445 260.278215 
L 169.942461 259.400015 
L 170.20082 255.951313 
L 171.28593 237.819249 
L 171.389274 237.666404 
L 171.492618 237.931619 
L 171.699305 239.636155 
L 172.061008 245.419798 
L 172.732743 256.470237 
L 172.991103 257.780514 
L 173.094446 257.65381 
L 173.249462 256.788694 
L 173.507822 253.823222 
L 174.489588 240.541465 
L 174.644603 240.265648 
L 174.747947 240.494446 
L 174.954635 241.86932 
L 175.316338 246.406054 
L 175.936401 254.26061 
L 176.19476 255.344288 
L 176.298104 255.268271 
L 176.45312 254.623087 
L 176.711479 252.349487 
L 177.693246 242.399176 
L 177.796589 242.281357 
L 177.848261 242.32213 
L 178.003277 242.831144 
L 178.261636 244.799542 
L 179.243403 253.892113 
L 179.346746 254.005406 
L 179.398418 253.968325 
L 179.553434 253.490811 
L 179.811793 251.622641 
L 180.79356 242.862599 
L 180.896903 242.759993 
L 180.948575 242.801634 
L 181.103591 243.292144 
L 181.36195 245.191506 
L 182.395388 254.379704 
L 182.498732 254.380603 
L 182.653748 253.900583 
L 182.912107 251.94239 
L 183.997217 241.6682 
L 184.100561 241.716516 
L 184.255577 242.306105 
L 184.513936 244.525534 
L 185.599046 255.900851 
L 185.70239 255.868384 
L 185.857406 255.256369 
L 186.115765 252.878444 
L 187.252547 240.023738 
L 187.355891 240.13496 
L 187.510906 240.907423 
L 187.769266 243.629559 
L 188.854376 257.401292 
L 188.95772 257.429188 
L 189.112735 256.818927 
L 189.371095 254.212854 
L 189.939486 244.751145 
L 190.352861 239.53801 
L 190.559549 238.737512 
L 190.662892 238.881536 
L 190.817908 239.772621 
L 191.076268 242.843114 
L 192.161377 258.294915 
L 192.264721 258.375322 
L 192.368065 258.078554 
L 192.574753 256.408733 
L 192.936456 250.829 
L 193.659863 239.275971 
L 193.86655 238.246796 
L 193.969894 238.295908 
L 194.12491 239.074045 
L 194.383269 242.044765 
L 195.520051 258.396681 
L 195.623395 258.421277 
L 195.77841 257.759229 
L 196.03677 254.979562 
L 196.605161 245.039068 
L 197.018536 239.550389 
L 197.225224 238.626549 
L 197.328567 238.706922 
L 197.483583 239.496225 
L 197.741943 242.376303 
L 198.878724 257.575178 
L 198.982068 257.575354 
L 199.137084 256.939285 
L 199.395443 254.374742 
L 200.583897 239.875902 
L 200.687241 239.967337 
L 200.842257 240.68358 
L 201.100616 243.210196 
L 202.185726 255.873512 
L 202.28907 255.987271 
L 202.340742 255.936621 
L 202.495757 255.368789 
L 202.754117 253.21066 
L 203.839227 241.94225 
L 203.942571 241.81144 
L 203.994242 241.839986 
L 204.149258 242.289138 
L 204.407618 244.09709 
L 205.544399 253.77958 
L 205.647743 253.787987 
L 205.802759 253.416351 
L 206.061118 251.915671 
L 207.146228 244.188028 
L 207.301244 244.159684 
L 207.45626 244.503114 
L 207.714619 245.760378 
L 208.696385 251.392738 
L 208.851401 251.505782 
L 209.006417 251.31966 
L 209.264776 250.445091 
L 210.246542 246.234403 
L 210.401558 246.179005 
L 210.556574 246.360522 
L 210.814933 247.100542 
L 211.693356 250.0824 
L 211.848371 250.12982 
L 212.003387 249.965402 
L 212.261746 249.284294 
L 213.140169 246.451453 
L 213.295184 246.425254 
L 213.4502 246.623226 
L 213.70856 247.403642 
L 214.690326 251.051337 
L 214.845341 251.003881 
L 215.052029 250.526806 
L 215.36206 249.065556 
L 216.137139 245.008414 
L 216.343826 244.780131 
L 216.498842 244.989094 
L 216.70553 245.763661 
L 217.067233 248.153042 
L 217.738968 252.539692 
L 217.945655 252.909705 
L 218.048999 252.836296 
L 218.204015 252.39819 
L 218.462374 250.878796 
L 219.547484 243.042256 
L 219.650828 243.01741 
L 219.805844 243.361072 
L 220.064203 244.880045 
L 220.580922 250.042059 
L 221.045969 253.877302 
L 221.252657 254.457516 
L 221.356001 254.414461 
L 221.511016 253.92757 
L 221.769376 252.095731 
L 222.95783 241.743065 
L 223.061173 241.843533 
L 223.216189 242.446109 
L 223.474549 244.519341 
L 224.61133 255.359954 
L 224.714674 255.342222 
L 224.86969 254.838622 
L 225.128049 252.849933 
L 225.69644 245.815246 
L 226.109816 241.891283 
L 226.316503 241.212556 
L 226.419847 241.261175 
L 226.574863 241.818162 
L 226.833222 243.897606 
L 228.021676 255.535045 
L 228.12502 255.464728 
L 228.280035 254.880714 
L 228.538395 252.781844 
L 229.675177 241.48085 
L 229.77852 241.437691 
L 229.933536 241.841599 
L 230.191896 243.644566 
L 230.708615 249.665159 
L 231.173662 254.13414 
L 231.432021 254.946656 
L 231.535365 254.859343 
L 231.690381 254.296286 
L 231.94874 252.360025 
L 233.03385 242.496502 
L 233.188866 242.378156 
L 233.343881 242.743043 
L 233.602241 244.303289 
L 234.170632 249.891564 
L 234.584007 253.049381 
L 234.842367 253.698808 
L 234.94571 253.624142 
L 235.100726 253.167192 
L 235.410757 251.222939 
L 236.392524 244.095191 
L 236.599211 243.891534 
L 236.754227 244.158282 
L 237.012586 245.295038 
L 238.20104 251.931352 
L 238.356056 251.915346 
L 238.562743 251.470217 
L 238.924447 249.828552 
L 239.699525 246.14384 
L 239.957885 245.791754 
L 240.1129 245.860538 
L 240.319588 246.240285 
L 240.732963 247.632991 
L 241.353026 249.601927 
L 241.663057 249.933971 
L 241.869745 249.873842 
L 242.179776 249.467434 
L 243.109871 247.994225 
L 243.471574 247.858775 
L 245.28009 247.932758 
L 245.641794 248.299725 
L 246.830247 249.88089 
L 247.036935 249.691157 
L 247.346966 248.99934 
L 248.432076 245.955429 
L 248.587092 245.989136 
L 248.793779 246.341148 
L 249.103811 247.460936 
L 250.085577 251.571477 
L 250.240593 251.635791 
L 250.395608 251.438118 
L 250.653968 250.550112 
L 251.119015 247.760133 
L 251.687406 244.740435 
L 251.894093 244.399335 
L 252.049109 244.508969 
L 252.255797 245.143312 
L 252.6175 247.344343 
L 253.392579 252.519402 
L 253.599266 252.947314 
L 253.70261 252.922468 
L 253.857626 252.580935 
L 254.115985 251.268516 
L 254.684376 246.583192 
L 255.097751 243.877805 
L 255.356111 243.347245 
L 255.459455 243.443176 
L 255.666142 244.157546 
L 255.976174 246.322008 
L 256.906268 253.481884 
L 257.112955 253.704275 
L 257.267971 253.376936 
L 257.526331 251.966621 
L 258.043049 247.221064 
L 258.508097 243.593452 
L 258.766456 242.886578 
L 258.8698 242.938448 
L 259.024816 243.375361 
L 259.283175 244.956824 
L 260.471629 253.870738 
L 260.574973 253.850444 
L 260.729988 253.460505 
L 260.988348 251.951725 
L 261.608411 246.177564 
L 262.021786 243.417016 
L 262.228473 243.010232 
L 262.331817 243.088767 
L 262.486833 243.550915 
L 262.745192 245.122418 
L 263.881974 253.419472 
L 264.03699 253.435131 
L 264.192006 253.056398 
L 264.450365 251.655968 
L 265.638819 243.702302 
L 265.793834 243.743118 
L 266.000522 244.347471 
L 266.310553 246.203539 
L 267.240648 252.317177 
L 267.447335 252.587678 
L 267.602351 252.412404 
L 267.809039 251.714967 
L 268.222414 249.215356 
L 268.894148 245.264189 
L 269.152508 244.7575 
L 269.307524 244.820749 
L 269.514211 245.309201 
L 269.875915 247.00265 
L 270.650993 250.916973 
L 270.909353 251.370742 
L 271.064368 251.346789 
L 271.271056 250.988844 
L 271.632759 249.678857 
L 272.459509 246.36854 
L 272.717869 246.009249 
L 272.924557 246.054543 
L 273.182916 246.485994 
L 273.647963 247.932314 
L 274.319698 249.903257 
L 274.629729 250.240985 
L 274.836417 250.20945 
L 275.094776 249.907331 
L 275.508152 248.991025 
L 276.386574 246.952898 
L 276.696605 246.699304 
L 276.954965 246.771392 
L 277.264996 247.190445 
L 277.730043 248.321017 
L 278.45345 250.086258 
L 278.763481 250.334125 
L 278.970169 250.229899 
L 279.228528 249.788797 
L 279.641904 248.517373 
L 280.36531 246.212705 
L 280.62367 245.93903 
L 280.778685 245.997482 
L 280.985373 246.344348 
L 281.295404 247.371003 
L 282.328842 251.275086 
L 282.53553 251.319663 
L 282.742218 250.97425 
L 283.052249 249.802355 
L 284.137359 244.968901 
L 284.292375 244.94151 
L 284.44739 245.176144 
L 284.70575 246.109183 
L 285.222469 249.233761 
L 285.739188 251.875334 
L 285.997547 252.255858 
L 286.152563 252.093041 
L 286.359251 251.430741 
L 286.720954 249.315165 
L 287.496032 244.573007 
L 287.70272 244.185255 
L 287.857736 244.267178 
L 288.064423 244.868761 
L 288.374455 246.647823 
L 289.304549 252.572372 
L 289.511236 252.806542 
L 289.666252 252.584383 
L 289.924612 251.506826 
L 290.389659 248.1077 
L 290.95805 244.373873 
L 291.216409 243.830339 
L 291.319753 243.882862 
L 291.474769 244.250223 
L 291.733128 245.547626 
L 292.921582 252.920544 
L 293.076597 252.8761 
L 293.283285 252.283351 
L 293.593316 250.4485 
L 294.523411 244.200166 
L 294.730098 243.901391 
L 294.885114 244.077398 
L 295.091802 244.815929 
L 295.453505 247.151313 
L 296.176911 252.053776 
L 296.435271 252.66256 
L 296.590287 252.595276 
L 296.796974 252.014001 
L 297.107006 250.28949 
L 298.0371 244.607046 
L 298.243787 244.343426 
L 298.398803 244.501158 
L 298.605491 245.154629 
L 298.967194 247.205665 
L 299.742273 251.677739 
L 300.000632 252.091897 
L 300.155648 251.972318 
L 300.362335 251.408649 
L 300.724039 249.584966 
L 301.499117 245.4765 
L 301.757477 245.034915 
L 301.912492 245.095825 
L 302.11918 245.540187 
L 302.480883 247.091751 
L 303.307634 250.97932 
L 303.565993 251.361594 
L 303.721009 251.308045 
L 303.927696 250.922138 
L 304.2894 249.573574 
L 305.167822 246.000744 
L 305.426181 245.712128 
L 305.581197 245.782858 
L 305.787885 246.145877 
L 306.149588 247.354147 
L 307.02801 250.547603 
L 307.28637 250.828772 
L 307.493057 250.729916 
L 307.751417 250.227509 
L 308.164792 248.803969 
L 308.888199 246.330761 
L 309.146558 245.999849 
L 309.353246 246.045045 
L 309.559933 246.363635 
L 309.921637 247.458401 
L 310.903403 250.743864 
L 311.11009 250.885563 
L 311.316778 250.727825 
L 311.575138 250.131734 
L 312.040185 248.295908 
L 312.660247 245.995324 
L 312.918607 245.651591 
L 313.073623 245.694078 
L 313.28031 246.045055 
L 313.590342 247.116229 
L 314.62378 251.281502 
L 314.830467 251.390996 
L 314.985483 251.219736 
L 315.243842 250.479684 
L 315.708889 248.176133 
L 316.27728 245.538668 
L 316.53564 245.082214 
L 316.690656 245.124144 
L 316.897343 245.55345 
L 317.207375 246.881113 
L 318.189141 251.770366 
L 318.395828 251.948715 
L 318.550844 251.77299 
L 318.809203 250.924338 
L 319.274251 248.214601 
L 319.842641 245.123954 
L 320.101001 244.606105 
L 320.256017 244.666521 
L 320.462704 245.179664 
L 320.772736 246.724856 
L 321.754502 252.158074 
L 321.961189 252.302182 
L 322.116205 252.065213 
L 322.374565 251.066683 
L 322.839612 248.057194 
L 323.408003 244.823106 
L 323.666362 244.362206 
L 323.821378 244.486129 
L 324.028065 245.10439 
L 324.389769 247.15923 
L 325.164847 251.916258 
L 325.423207 252.407429 
L 325.578222 252.300909 
L 325.78491 251.704246 
L 326.146613 249.680098 
L 326.973364 244.760742 
L 327.180051 244.409804 
L 327.335067 244.493569 
L 327.541755 245.053473 
L 327.903458 247.005667 
L 328.730208 251.852259 
L 328.988568 252.24224 
L 329.143583 252.093271 
L 329.350271 251.471453 
L 329.711974 249.501838 
L 330.487053 245.114307 
L 330.745412 244.682152 
L 330.900428 244.78633 
L 331.107116 245.33134 
L 331.468819 247.148043 
L 332.295569 251.534585 
L 332.553929 251.881685 
L 332.708944 251.748943 
L 332.915632 251.197133 
L 333.277335 249.452104 
L 334.052414 245.523208 
L 334.310773 245.096359 
L 334.465789 245.155334 
L 334.672477 245.589511 
L 335.03418 247.12173 
L 335.912602 251.182639 
L 336.170962 251.468543 
L 336.325977 251.348014 
L 336.584337 250.695856 
L 336.997712 248.833677 
L 337.669447 245.8927 
L 337.927806 245.472552 
L 338.082822 245.490287 
L 338.28951 245.824634 
L 338.599541 246.884851 
L 339.632979 251.037951 
L 339.839667 251.20177 
L 339.994682 251.096697 
L 340.253042 250.514401 
L 340.666417 248.820831 
L 341.389824 245.919355 
L 341.648183 245.585445 
L 341.803199 245.640509 
L 342.009886 246.006991 
L 342.37159 247.305461 
L 343.301684 251.026002 
L 343.508372 251.23155 
L 343.663387 251.154537 
L 343.870075 250.751235 
L 344.231778 249.376788 
L 345.1102 245.677555 
L 345.36856 245.410199 
L 345.523576 245.527947 
L 345.781935 246.167722 
L 346.19531 248.032769 
L 346.867045 251.060392 
L 347.125404 251.48906 
L 347.28042 251.454006 
L 347.487108 251.063901 
L 347.797139 249.851221 
L 348.830577 245.210502 
L 349.037265 245.105682 
L 349.19228 245.305302 
L 349.45064 246.127628 
L 349.915687 248.614465 
L 350.484078 251.36863 
L 350.742437 251.814136 
L 350.897453 251.750349 
L 351.104141 251.28128 
L 351.414172 249.890318 
L 352.395938 244.971602 
L 352.602626 244.813569 
L 352.757642 245.002258 
L 353.016001 245.860575 
L 353.481048 248.535442 
L 354.049439 251.53656 
L 354.307799 252.034397 
L 354.462814 251.976608 
L 354.669502 251.486923 
L 354.979533 250.016733 
L 355.961299 244.830288 
L 356.167987 244.667895 
L 356.323003 244.867567 
L 356.581362 245.765032 
L 357.046409 248.535326 
L 357.6148 251.602661 
L 357.87316 252.097981 
L 358.028175 252.030982 
L 358.234863 251.523946 
L 358.544894 250.02706 
L 359.474988 244.957939 
L 359.681676 244.685465 
L 359.836692 244.799504 
L 360.043379 245.35856 
L 360.405083 247.20747 
L 361.231833 251.667364 
L 361.490193 252.00449 
L 361.645208 251.851922 
L 361.851896 251.256969 
L 362.213599 249.400201 
L 362.988678 245.268585 
L 363.247037 244.8545 
L 363.402053 244.948447 
L 363.60874 245.458947 
L 363.970444 247.18101 
L 364.797194 251.426699 
L 365.055554 251.790631 
L 365.210569 251.679707 
L 365.417257 251.16478 
L 365.77896 249.483528 
L 366.605711 245.423614 
L 366.86407 245.089103 
L 367.019086 245.203527 
L 367.225773 245.706177 
L 367.587477 247.327831 
L 368.414227 251.231779 
L 368.672587 251.558528 
L 368.827602 251.45276 
L 369.03429 250.975372 
L 369.395993 249.422099 
L 370.222744 245.628085 
L 370.481103 245.289259 
L 370.636119 245.376967 
L 370.842806 245.821208 
L 371.20451 247.307781 
L 372.082932 251.166255 
L 372.341292 251.416564 
L 372.496307 251.281279 
L 372.754667 250.611697 
L 373.168042 248.728075 
L 373.839777 245.767132 
L 374.098136 245.36304 
L 374.253152 245.401884 
L 374.459839 245.779135 
L 374.769871 246.93133 
L 375.803309 251.307077 
L 376.009996 251.429709 
L 376.165012 251.268997 
L 376.423372 250.554994 
L 376.888419 248.332219 
L 377.508481 245.628707 
L 377.766841 245.26392 
L 377.921857 245.338623 
L 378.128544 245.774719 
L 378.490248 247.284296 
L 379.36867 251.314884 
L 379.575357 251.577585 
L 379.730373 251.507663 
L 379.937061 251.065565 
L 380.298764 249.515214 
L 381.177186 245.356727 
L 381.383874 245.088444 
L 381.53889 245.16391 
L 381.745577 245.625588 
L 382.107281 247.234157 
L 382.985703 251.501622 
L 383.19239 251.762099 
L 383.347406 251.67116 
L 383.554094 251.178485 
L 383.915797 249.501355 
L 384.742547 245.285829 
L 385.000907 244.918638 
L 385.155923 245.03337 
L 385.36261 245.565006 
L 385.724314 247.31308 
L 386.551064 251.566716 
L 386.809423 251.896667 
L 386.964439 251.752364 
L 387.171127 251.178036 
L 387.53283 249.364427 
L 388.307908 245.257066 
L 388.566268 244.833296 
L 388.721284 244.923386 
L 388.927971 245.435372 
L 389.289675 247.186235 
L 390.116425 251.561548 
L 390.374784 251.934683 
L 390.5298 251.812536 
L 390.736488 251.261495 
L 391.098191 249.467946 
L 391.924941 245.165814 
L 392.183301 244.844466 
L 392.338317 244.995918 
L 392.545004 245.578826 
L 392.906708 247.396396 
L 393.681786 251.459756 
L 393.940146 251.87182 
L 394.095161 251.780902 
L 394.301849 251.277206 
L 394.663552 249.566931 
L 395.490303 245.312679 
L 395.748662 244.942606 
L 395.903678 245.052565 
L 396.110365 245.5712 
L 396.472069 247.274728 
L 397.298819 251.411555 
L 397.557179 251.749859 
L 397.712194 251.628468 
L 397.918882 251.105359 
L 398.280585 249.423258 
L 398.487273 248.238139 
L 398.487273 248.238139 
" clip-path="url(#pa0645137c9)" style="fill: none; stroke: #0000ff; stroke-linecap: square"/>
   </g>
   <g id="patch_8">
    <path d="M 57.6 307.584 
L 57.6 186.624 
" style="fill: none; stroke: #000000; stroke-width: 0.8; stroke-linejoin: miter; stroke-linecap: square"/>
   </g>
   <g id="patch_9">
    <path d="M 414.72 307.584 
L 414.72 186.624 
" style="fill: none; stroke: #000000; stroke-width: 0.8; stroke-linejoin: miter; stroke-linecap: square"/>
   </g>
   <g id="patch_10">
    <path d="M 57.6 307.584 
L 414.72 307.584 
" style="fill: none; stroke: #000000; stroke-width: 0.8; stroke-linejoin: miter; stroke-linecap: square"/>
   </g>
   <g id="patch_11">
    <path d="M 57.6 186.624 
L 414.72 186.624 
" style="fill: none; stroke: #000000; stroke-width: 0.8; stroke-linejoin: miter; stroke-linecap: square"/>
   </g>
  </g>
 </g>
 <defs>
  <clipPath id="p4ce2892639">
   <rect x="57.6" y="41.472" width="357.12" height="120.96"/>
  </clipPath>
  <clipPath id="pa0645137c9">
   <rect x="57.6" y="186.624" width="357.12" height="120.96"/>
  </clipPath>
 </defs>
</svg>
