<?xml version="1.0" encoding="utf-8" standalone="no"?>
<!DOCTYPE svg PUBLIC "-//W3C//DTD SVG 1.1//EN"
  "http://www.w3.org/Graphics/SVG/1.1/DTD/svg11.dtd">
<svg xmlns:xlink="http://www.w3.org/1999/xlink" width="576pt" height="288pt" viewBox="0 0 576 288" xmlns="http://www.w3.org/2000/svg" version="1.1">
 <metadata>
  <rdf:RDF xmlns:dc="http://purl.org/dc/elements/1.1/" xmlns:cc="http://creativecommons.org/ns#" xmlns:rdf="http://www.w3.org/1999/02/22-rdf-syntax-ns#">
   <cc:Work>
    <dc:type rdf:resource="http://purl.org/dc/dcmitype/StillImage"/>
    <dc:date>2022-10-13T23:21:59.536316</dc:date>
    <dc:format>image/svg+xml</dc:format>
    <dc:creator>
     <cc:Agent>
      <dc:title>Matplotlib v3.5.2, https://matplotlib.org/</dc:title>
     </cc:Agent>
    </dc:creator>
   </cc:Work>
  </rdf:RDF>
 </metadata>
 <defs>
  <style type="text/css">*{stroke-linejoin: round; stroke-linecap: butt}</style>
 </defs>
 <g id="figure_1">
  <g id="patch_1">
   <path d="M 0 288 
L 576 288 
L 576 0 
L 0 0 
z
" style="fill: #ffffff"/>
  </g>
  <g id="axes_1">
   <g id="patch_2">
    <path d="M 0 288 
L 460.8 288 
L 460.8 57.6 
L 0 57.6 
z
" style="fill: #ffffff"/>
   </g>
   <g id="matplotlib.axis_1">
    <g id="xtick_1">
     <g id="line2d_1">
      <defs>
       <path id="m49c81920a7" d="M 0 0 
L 0 3.5 
" style="stroke: #000000; stroke-width: 0.8"/>
      </defs>
      <g>
       <use xlink:href="#m49c81920a7" x="20.945455" y="288" style="stroke: #000000; stroke-width: 0.8"/>
      </g>
     </g>
     <g id="text_1">
      <!-- −6 -->
      <g transform="translate(13.574361 302.598437)scale(0.1 -0.1)">
       <defs>
        <path id="DejaVuSans-2212" d="M 678 2272 
L 4684 2272 
L 4684 1741 
L 678 1741 
L 678 2272 
z
" transform="scale(0.015625)"/>
        <path id="DejaVuSans-36" d="M 2113 2584 
Q 1688 2584 1439 2293 
Q 1191 2003 1191 1497 
Q 1191 994 1439 701 
Q 1688 409 2113 409 
Q 2538 409 2786 701 
Q 3034 994 3034 1497 
Q 3034 2003 2786 2293 
Q 2538 2584 2113 2584 
z
M 3366 4563 
L 3366 3988 
Q 3128 4100 2886 4159 
Q 2644 4219 2406 4219 
Q 1781 4219 1451 3797 
Q 1122 3375 1075 2522 
Q 1259 2794 1537 2939 
Q 1816 3084 2150 3084 
Q 2853 3084 3261 2657 
Q 3669 2231 3669 1497 
Q 3669 778 3244 343 
Q 2819 -91 2113 -91 
Q 1303 -91 875 529 
Q 447 1150 447 2328 
Q 447 3434 972 4092 
Q 1497 4750 2381 4750 
Q 2619 4750 2861 4703 
Q 3103 4656 3366 4563 
z
" transform="scale(0.015625)"/>
       </defs>
       <use xlink:href="#DejaVuSans-2212"/>
       <use xlink:href="#DejaVuSans-36" x="83.789062"/>
      </g>
     </g>
    </g>
    <g id="xtick_2">
     <g id="line2d_2">
      <g>
       <use xlink:href="#m49c81920a7" x="90.763636" y="288" style="stroke: #000000; stroke-width: 0.8"/>
      </g>
     </g>
     <g id="text_2">
      <!-- −4 -->
      <g transform="translate(83.392543 302.598437)scale(0.1 -0.1)">
       <defs>
        <path id="DejaVuSans-34" d="M 2419 4116 
L 825 1625 
L 2419 1625 
L 2419 4116 
z
M 2253 4666 
L 3047 4666 
L 3047 1625 
L 3713 1625 
L 3713 1100 
L 3047 1100 
L 3047 0 
L 2419 0 
L 2419 1100 
L 313 1100 
L 313 1709 
L 2253 4666 
z
" transform="scale(0.015625)"/>
       </defs>
       <use xlink:href="#DejaVuSans-2212"/>
       <use xlink:href="#DejaVuSans-34" x="83.789062"/>
      </g>
     </g>
    </g>
    <g id="xtick_3">
     <g id="line2d_3">
      <g>
       <use xlink:href="#m49c81920a7" x="160.581818" y="288" style="stroke: #000000; stroke-width: 0.8"/>
      </g>
     </g>
     <g id="text_3">
      <!-- −2 -->
      <g transform="translate(153.210724 302.598437)scale(0.1 -0.1)">
       <defs>
        <path id="DejaVuSans-32" d="M 1228 531 
L 3431 531 
L 3431 0 
L 469 0 
L 469 531 
Q 828 903 1448 1529 
Q 2069 2156 2228 2338 
Q 2531 2678 2651 2914 
Q 2772 3150 2772 3378 
Q 2772 3750 2511 3984 
Q 2250 4219 1831 4219 
Q 1534 4219 1204 4116 
Q 875 4013 500 3803 
L 500 4441 
Q 881 4594 1212 4672 
Q 1544 4750 1819 4750 
Q 2544 4750 2975 4387 
Q 3406 4025 3406 3419 
Q 3406 3131 3298 2873 
Q 3191 2616 2906 2266 
Q 2828 2175 2409 1742 
Q 1991 1309 1228 531 
z
" transform="scale(0.015625)"/>
       </defs>
       <use xlink:href="#DejaVuSans-2212"/>
       <use xlink:href="#DejaVuSans-32" x="83.789062"/>
      </g>
     </g>
    </g>
    <g id="xtick_4">
     <g id="line2d_4">
      <g>
       <use xlink:href="#m49c81920a7" x="230.4" y="288" style="stroke: #000000; stroke-width: 0.8"/>
      </g>
     </g>
     <g id="text_4">
      <!-- 0 -->
      <g transform="translate(227.21875 302.598437)scale(0.1 -0.1)">
       <defs>
        <path id="DejaVuSans-30" d="M 2034 4250 
Q 1547 4250 1301 3770 
Q 1056 3291 1056 2328 
Q 1056 1369 1301 889 
Q 1547 409 2034 409 
Q 2525 409 2770 889 
Q 3016 1369 3016 2328 
Q 3016 3291 2770 3770 
Q 2525 4250 2034 4250 
z
M 2034 4750 
Q 2819 4750 3233 4129 
Q 3647 3509 3647 2328 
Q 3647 1150 3233 529 
Q 2819 -91 2034 -91 
Q 1250 -91 836 529 
Q 422 1150 422 2328 
Q 422 3509 836 4129 
Q 1250 4750 2034 4750 
z
" transform="scale(0.015625)"/>
       </defs>
       <use xlink:href="#DejaVuSans-30"/>
      </g>
     </g>
    </g>
    <g id="xtick_5">
     <g id="line2d_5">
      <g>
       <use xlink:href="#m49c81920a7" x="300.218182" y="288" style="stroke: #000000; stroke-width: 0.8"/>
      </g>
     </g>
     <g id="text_5">
      <!-- 2 -->
      <g transform="translate(297.036932 302.598437)scale(0.1 -0.1)">
       <use xlink:href="#DejaVuSans-32"/>
      </g>
     </g>
    </g>
    <g id="xtick_6">
     <g id="line2d_6">
      <g>
       <use xlink:href="#m49c81920a7" x="370.036364" y="288" style="stroke: #000000; stroke-width: 0.8"/>
      </g>
     </g>
     <g id="text_6">
      <!-- 4 -->
      <g transform="translate(366.855114 302.598437)scale(0.1 -0.1)">
       <use xlink:href="#DejaVuSans-34"/>
      </g>
     </g>
    </g>
    <g id="xtick_7">
     <g id="line2d_7">
      <g>
       <use xlink:href="#m49c81920a7" x="439.854545" y="288" style="stroke: #000000; stroke-width: 0.8"/>
      </g>
     </g>
     <g id="text_7">
      <!-- 6 -->
      <g transform="translate(436.673295 302.598437)scale(0.1 -0.1)">
       <use xlink:href="#DejaVuSans-36"/>
      </g>
     </g>
    </g>
   </g>
   <g id="matplotlib.axis_2">
    <g id="ytick_1">
     <g id="line2d_8">
      <defs>
       <path id="me44befd9c1" d="M 0 0 
L -3.5 0 
" style="stroke: #000000; stroke-width: 0.8"/>
      </defs>
      <g>
       <use xlink:href="#me44befd9c1" x="0" y="272.759571" style="stroke: #000000; stroke-width: 0.8"/>
      </g>
     </g>
     <g id="text_8">
      <!-- −0.15 -->
      <g transform="translate(-37.645313 276.55879)scale(0.1 -0.1)">
       <defs>
        <path id="DejaVuSans-2e" d="M 684 794 
L 1344 794 
L 1344 0 
L 684 0 
L 684 794 
z
" transform="scale(0.015625)"/>
        <path id="DejaVuSans-31" d="M 794 531 
L 1825 531 
L 1825 4091 
L 703 3866 
L 703 4441 
L 1819 4666 
L 2450 4666 
L 2450 531 
L 3481 531 
L 3481 0 
L 794 0 
L 794 531 
z
" transform="scale(0.015625)"/>
        <path id="DejaVuSans-35" d="M 691 4666 
L 3169 4666 
L 3169 4134 
L 1269 4134 
L 1269 2991 
Q 1406 3038 1543 3061 
Q 1681 3084 1819 3084 
Q 2600 3084 3056 2656 
Q 3513 2228 3513 1497 
Q 3513 744 3044 326 
Q 2575 -91 1722 -91 
Q 1428 -91 1123 -41 
Q 819 9 494 109 
L 494 744 
Q 775 591 1075 516 
Q 1375 441 1709 441 
Q 2250 441 2565 725 
Q 2881 1009 2881 1497 
Q 2881 1984 2565 2268 
Q 2250 2553 1709 2553 
Q 1456 2553 1204 2497 
Q 953 2441 691 2322 
L 691 4666 
z
" transform="scale(0.015625)"/>
       </defs>
       <use xlink:href="#DejaVuSans-2212"/>
       <use xlink:href="#DejaVuSans-30" x="83.789062"/>
       <use xlink:href="#DejaVuSans-2e" x="147.412109"/>
       <use xlink:href="#DejaVuSans-31" x="179.199219"/>
       <use xlink:href="#DejaVuSans-35" x="242.822266"/>
      </g>
     </g>
    </g>
    <g id="ytick_2">
     <g id="line2d_9">
      <g>
       <use xlink:href="#me44befd9c1" x="0" y="242.119051" style="stroke: #000000; stroke-width: 0.8"/>
      </g>
     </g>
     <g id="text_9">
      <!-- −0.10 -->
      <g transform="translate(-37.645313 245.918269)scale(0.1 -0.1)">
       <use xlink:href="#DejaVuSans-2212"/>
       <use xlink:href="#DejaVuSans-30" x="83.789062"/>
       <use xlink:href="#DejaVuSans-2e" x="147.412109"/>
       <use xlink:href="#DejaVuSans-31" x="179.199219"/>
       <use xlink:href="#DejaVuSans-30" x="242.822266"/>
      </g>
     </g>
    </g>
    <g id="ytick_3">
     <g id="line2d_10">
      <g>
       <use xlink:href="#me44befd9c1" x="0" y="211.47853" style="stroke: #000000; stroke-width: 0.8"/>
      </g>
     </g>
     <g id="text_10">
      <!-- −0.05 -->
      <g transform="translate(-37.645313 215.277749)scale(0.1 -0.1)">
       <use xlink:href="#DejaVuSans-2212"/>
       <use xlink:href="#DejaVuSans-30" x="83.789062"/>
       <use xlink:href="#DejaVuSans-2e" x="147.412109"/>
       <use xlink:href="#DejaVuSans-30" x="179.199219"/>
       <use xlink:href="#DejaVuSans-35" x="242.822266"/>
      </g>
     </g>
    </g>
    <g id="ytick_4">
     <g id="line2d_11">
      <g>
       <use xlink:href="#me44befd9c1" x="0" y="180.83801" style="stroke: #000000; stroke-width: 0.8"/>
      </g>
     </g>
     <g id="text_11">
      <!-- 0.00 -->
      <g transform="translate(-29.265625 184.637228)scale(0.1 -0.1)">
       <use xlink:href="#DejaVuSans-30"/>
       <use xlink:href="#DejaVuSans-2e" x="63.623047"/>
       <use xlink:href="#DejaVuSans-30" x="95.410156"/>
       <use xlink:href="#DejaVuSans-30" x="159.033203"/>
      </g>
     </g>
    </g>
    <g id="ytick_5">
     <g id="line2d_12">
      <g>
       <use xlink:href="#me44befd9c1" x="0" y="150.197489" style="stroke: #000000; stroke-width: 0.8"/>
      </g>
     </g>
     <g id="text_12">
      <!-- 0.05 -->
      <g transform="translate(-29.265625 153.996708)scale(0.1 -0.1)">
       <use xlink:href="#DejaVuSans-30"/>
       <use xlink:href="#DejaVuSans-2e" x="63.623047"/>
       <use xlink:href="#DejaVuSans-30" x="95.410156"/>
       <use xlink:href="#DejaVuSans-35" x="159.033203"/>
      </g>
     </g>
    </g>
    <g id="ytick_6">
     <g id="line2d_13">
      <g>
       <use xlink:href="#me44befd9c1" x="0" y="119.556969" style="stroke: #000000; stroke-width: 0.8"/>
      </g>
     </g>
     <g id="text_13">
      <!-- 0.10 -->
      <g transform="translate(-29.265625 123.356187)scale(0.1 -0.1)">
       <use xlink:href="#DejaVuSans-30"/>
       <use xlink:href="#DejaVuSans-2e" x="63.623047"/>
       <use xlink:href="#DejaVuSans-31" x="95.410156"/>
       <use xlink:href="#DejaVuSans-30" x="159.033203"/>
      </g>
     </g>
    </g>
    <g id="ytick_7">
     <g id="line2d_14">
      <g>
       <use xlink:href="#me44befd9c1" x="0" y="88.916448" style="stroke: #000000; stroke-width: 0.8"/>
      </g>
     </g>
     <g id="text_14">
      <!-- 0.15 -->
      <g transform="translate(-29.265625 92.715667)scale(0.1 -0.1)">
       <use xlink:href="#DejaVuSans-30"/>
       <use xlink:href="#DejaVuSans-2e" x="63.623047"/>
       <use xlink:href="#DejaVuSans-31" x="95.410156"/>
       <use xlink:href="#DejaVuSans-35" x="159.033203"/>
      </g>
     </g>
    </g>
    <g id="ytick_8">
     <g id="line2d_15">
      <g>
       <use xlink:href="#me44befd9c1" x="0" y="58.275928" style="stroke: #000000; stroke-width: 0.8"/>
      </g>
     </g>
     <g id="text_15">
      <!-- 0.20 -->
      <g transform="translate(-29.265625 62.075146)scale(0.1 -0.1)">
       <use xlink:href="#DejaVuSans-30"/>
       <use xlink:href="#DejaVuSans-2e" x="63.623047"/>
       <use xlink:href="#DejaVuSans-32" x="95.410156"/>
       <use xlink:href="#DejaVuSans-30" x="159.033203"/>
      </g>
     </g>
    </g>
   </g>
   <g id="line2d_16">
    <path d="M 20.945455 180.838011 
L 98.443636 180.748737 
L 111.010909 180.512288 
L 119.389091 180.119424 
L 125.672727 179.585301 
L 129.861818 179.055737 
L 134.050909 178.338452 
L 138.24 177.382472 
L 142.429091 176.128999 
L 146.618182 174.512385 
L 150.807273 172.462035 
L 152.901818 171.251508 
L 154.996364 169.905399 
L 157.090909 168.415013 
L 159.185455 166.772112 
L 161.28 164.969105 
L 163.374545 162.999248 
L 165.469091 160.856858 
L 167.563636 158.537527 
L 169.658182 156.038346 
L 173.847273 150.497594 
L 178.036364 144.249342 
L 182.225455 137.344951 
L 186.414545 129.876695 
L 190.603636 121.979709 
L 203.170909 97.665504 
L 207.36 90.155143 
L 209.454545 86.659528 
L 211.549091 83.380823 
L 213.643636 80.35058 
L 215.738182 77.598661 
L 217.832727 75.152759 
L 219.927273 73.03793 
L 222.021818 71.276166 
L 224.116364 69.886018 
L 226.210909 68.882265 
L 228.305455 68.275659 
L 230.4 68.072727 
L 232.494545 68.275659 
L 234.589091 68.882265 
L 236.683636 69.886018 
L 238.778182 71.276166 
L 240.872727 73.03793 
L 242.967273 75.152759 
L 245.061818 77.598661 
L 247.156364 80.35058 
L 249.250909 83.380823 
L 251.345455 86.659528 
L 255.534545 93.834937 
L 259.723636 101.613256 
L 276.48 133.673868 
L 280.669091 140.874391 
L 284.858182 147.459614 
L 289.047273 153.358124 
L 291.141818 156.038346 
L 293.236364 158.537527 
L 295.330909 160.856858 
L 297.425455 162.999248 
L 299.52 164.969105 
L 301.614545 166.772112 
L 303.709091 168.415013 
L 305.803636 169.905399 
L 307.898182 171.251508 
L 312.087273 173.545958 
L 316.276364 175.370411 
L 320.465455 176.796882 
L 324.654545 177.893797 
L 328.843636 178.723556 
L 333.032727 179.341115 
L 339.316364 179.970062 
L 345.6 180.350732 
L 353.978182 180.623379 
L 366.545455 180.781659 
L 395.869091 180.836502 
L 439.854545 180.838011 
L 439.854545 180.838011 
" clip-path="url(#p6225697a40)" style="fill: none; stroke: #1f77b4; stroke-width: 1.5; stroke-linecap: square"/>
   </g>
   <g id="line2d_17">
    <path d="M 20.945455 180.838017 
L 83.781818 180.738821 
L 94.254545 180.528096 
L 102.632727 180.11815 
L 108.916364 179.537229 
L 113.105455 178.94529 
L 117.294545 178.126662 
L 121.483636 177.01455 
L 125.672727 175.530982 
L 127.767273 174.622835 
L 129.861818 173.58839 
L 131.956364 172.415739 
L 134.050909 171.092895 
L 136.145455 169.608016 
L 138.24 167.949656 
L 140.334545 166.107061 
L 142.429091 164.070502 
L 144.523636 161.831636 
L 146.618182 159.383893 
L 148.712727 156.722895 
L 150.807273 153.846881 
L 152.901818 150.757144 
L 157.090909 143.959484 
L 161.28 136.417053 
L 165.469091 128.290239 
L 178.036364 103.217399 
L 180.130909 99.445627 
L 182.225455 95.944971 
L 184.32 92.778803 
L 186.414545 90.010955 
L 188.509091 87.704561 
L 190.603636 85.920827 
L 192.698182 84.717738 
L 194.792727 84.148746 
L 196.887273 84.261463 
L 198.981818 85.096397 
L 201.076364 86.68577 
L 203.170909 89.052444 
L 205.265455 92.208998 
L 207.36 96.156983 
L 209.454545 100.886387 
L 211.549091 106.375327 
L 213.643636 112.589994 
L 215.738182 119.484856 
L 217.832727 127.003121 
L 219.927273 135.077468 
L 224.116364 152.578536 
L 228.305455 171.281403 
L 236.683636 209.097483 
L 240.872727 226.598551 
L 242.967273 234.672898 
L 245.061818 242.191163 
L 247.156364 249.086025 
L 249.250909 255.300692 
L 251.345455 260.789632 
L 253.44 265.519036 
L 255.534545 269.467021 
L 257.629091 272.623575 
L 259.723636 274.990249 
L 261.818182 276.579622 
L 263.912727 277.414556 
L 266.007273 277.527273 
L 268.101818 276.958281 
L 270.196364 275.755192 
L 272.290909 273.971458 
L 274.385455 271.665065 
L 276.48 268.897216 
L 278.574545 265.731048 
L 280.669091 262.230393 
L 284.858182 254.477586 
L 291.141818 241.856032 
L 297.425455 229.262446 
L 301.614545 221.402852 
L 305.803636 214.217563 
L 307.898182 210.918875 
L 309.992727 207.829138 
L 312.087273 204.953125 
L 314.181818 202.292126 
L 316.276364 199.844383 
L 318.370909 197.605517 
L 320.465455 195.568958 
L 322.56 193.726364 
L 324.654545 192.068003 
L 326.749091 190.583124 
L 328.843636 189.260281 
L 330.938182 188.087629 
L 333.032727 187.053184 
L 337.221818 185.351544 
L 341.410909 184.064105 
L 345.6 183.107803 
L 349.789091 182.410147 
L 353.978182 181.910101 
L 360.261818 181.424478 
L 368.64 181.086658 
L 379.112727 180.916095 
L 400.058182 180.843816 
L 439.854545 180.838002 
L 439.854545 180.838002 
" clip-path="url(#p6225697a40)" style="fill: none; stroke: #ff7f0e; stroke-width: 1.5; stroke-linecap: square"/>
   </g>
   <g id="line2d_18">
    <path d="M 20.945455 180.83797 
L 71.214545 180.936944 
L 81.687273 181.16047 
L 87.970909 181.462481 
L 94.254545 182.004033 
L 98.443636 182.570237 
L 102.632727 183.369087 
L 106.821818 184.474934 
L 111.010909 185.976172 
L 113.105455 186.906179 
L 115.2 187.973649 
L 117.294545 189.192499 
L 119.389091 190.576783 
L 121.483636 192.140408 
L 123.578182 193.896788 
L 125.672727 195.858446 
L 127.767273 198.036557 
L 129.861818 200.440441 
L 131.956364 203.077014 
L 134.050909 205.950191 
L 136.145455 209.060274 
L 138.24 212.403319 
L 142.429091 219.747572 
L 146.618182 227.843595 
L 152.901818 240.836024 
L 157.090909 249.50378 
L 161.28 257.585468 
L 163.374545 261.219332 
L 165.469091 264.473923 
L 167.563636 267.265597 
L 169.658182 269.510577 
L 171.752727 271.12686 
L 173.847273 272.036286 
L 175.941818 272.166732 
L 178.036364 271.45435 
L 180.130909 269.845821 
L 182.225455 267.300528 
L 184.32 263.792595 
L 186.414545 259.312698 
L 188.509091 253.869594 
L 190.603636 247.491287 
L 192.698182 240.225764 
L 194.792727 232.141259 
L 196.887273 223.32599 
L 201.076364 203.95054 
L 213.643636 142.5369 
L 215.738182 133.591972 
L 217.832727 125.466972 
L 219.927273 118.312233 
L 222.021818 112.262042 
L 224.116364 107.431275 
L 226.210909 103.912493 
L 228.305455 101.773573 
L 230.4 101.055955 
L 232.494545 101.773573 
L 234.589091 103.912493 
L 236.683636 107.431275 
L 238.778182 112.262042 
L 240.872727 118.312233 
L 242.967273 125.466972 
L 245.061818 133.591972 
L 247.156364 142.5369 
L 251.345455 162.227403 
L 261.818182 213.887349 
L 263.912727 223.32599 
L 266.007273 232.141259 
L 268.101818 240.225764 
L 270.196364 247.491287 
L 272.290909 253.869594 
L 274.385455 259.312698 
L 276.48 263.792595 
L 278.574545 267.300528 
L 280.669091 269.845821 
L 282.763636 271.45435 
L 284.858182 272.166732 
L 286.952727 272.036286 
L 289.047273 271.12686 
L 291.141818 269.510577 
L 293.236364 267.265597 
L 295.330909 264.473923 
L 297.425455 261.219332 
L 299.52 257.585468 
L 303.709091 249.50378 
L 316.276364 223.714198 
L 320.465455 215.970512 
L 322.56 212.403319 
L 324.654545 209.060274 
L 326.749091 205.950191 
L 328.843636 203.077014 
L 330.938182 200.440441 
L 333.032727 198.036557 
L 335.127273 195.858446 
L 337.221818 193.896788 
L 339.316364 192.140408 
L 341.410909 190.576783 
L 343.505455 189.192499 
L 345.6 187.973649 
L 347.694545 186.906179 
L 349.789091 185.976172 
L 353.978182 184.474934 
L 358.167273 183.369087 
L 362.356364 182.570237 
L 366.545455 182.004033 
L 372.829091 181.462481 
L 379.112727 181.16047 
L 389.585455 180.936944 
L 408.436364 180.847216 
L 439.854545 180.83797 
L 439.854545 180.83797 
" clip-path="url(#p6225697a40)" style="fill: none; stroke: #2ca02c; stroke-width: 1.5; stroke-linecap: square"/>
   </g>
   <g id="patch_3">
    <path d="M 0 288 
L 0 57.6 
" style="fill: none; stroke: #000000; stroke-width: 0.8; stroke-linejoin: miter; stroke-linecap: square"/>
   </g>
   <g id="patch_4">
    <path d="M 460.8 288 
L 460.8 57.6 
" style="fill: none; stroke: #000000; stroke-width: 0.8; stroke-linejoin: miter; stroke-linecap: square"/>
   </g>
   <g id="patch_5">
    <path d="M 0 288 
L 460.8 288 
" style="fill: none; stroke: #000000; stroke-width: 0.8; stroke-linejoin: miter; stroke-linecap: square"/>
   </g>
   <g id="patch_6">
    <path d="M 0 57.6 
L 460.8 57.6 
" style="fill: none; stroke: #000000; stroke-width: 0.8; stroke-linejoin: miter; stroke-linecap: square"/>
   </g>
   <g id="legend_1">
    <g id="patch_7">
     <path d="M 410.4 109.695312 
L 453.8 109.695312 
Q 455.8 109.695312 455.8 107.695312 
L 455.8 64.6 
Q 455.8 62.6 453.8 62.6 
L 410.4 62.6 
Q 408.4 62.6 408.4 64.6 
L 408.4 107.695312 
Q 408.4 109.695312 410.4 109.695312 
z
" style="fill: #ffffff; opacity: 0.8; stroke: #cccccc; stroke-linejoin: miter"/>
    </g>
    <g id="line2d_19">
     <path d="M 412.4 70.698438 
L 422.4 70.698438 
L 432.4 70.698438 
" style="fill: none; stroke: #1f77b4; stroke-width: 1.5; stroke-linecap: square"/>
    </g>
    <g id="text_16">
     <!-- $\psi_0$ -->
     <g transform="translate(440.4 74.198438)scale(0.1 -0.1)">
      <defs>
       <path id="DejaVuSans-Oblique-3c8" d="M 1591 -78 
Q 891 38 616 341 
Q 278 713 425 1472 
L 819 3500 
L 1400 3500 
L 1009 1494 
Q 900 922 1119 684 
Q 1313 478 1691 434 
L 2284 3500 
L 2856 3500 
L 2263 438 
Q 2681 481 2928 688 
Q 3247 950 3353 1497 
L 3741 3500 
L 4322 3500 
L 3928 1475 
Q 3775 688 3300 344 
Q 2872 34 2163 -75 
L 1919 -1331 
L 1347 -1331 
L 1591 -78 
z
" transform="scale(0.015625)"/>
      </defs>
      <use xlink:href="#DejaVuSans-Oblique-3c8" transform="translate(0 0.3125)"/>
      <use xlink:href="#DejaVuSans-30" transform="translate(65.966797 -16.09375)scale(0.7)"/>
     </g>
    </g>
    <g id="line2d_20">
     <path d="M 412.4 85.396875 
L 422.4 85.396875 
L 432.4 85.396875 
" style="fill: none; stroke: #ff7f0e; stroke-width: 1.5; stroke-linecap: square"/>
    </g>
    <g id="text_17">
     <!-- $\psi_1$ -->
     <g transform="translate(440.4 88.896875)scale(0.1 -0.1)">
      <use xlink:href="#DejaVuSans-Oblique-3c8" transform="translate(0 0.3125)"/>
      <use xlink:href="#DejaVuSans-31" transform="translate(65.966797 -16.09375)scale(0.7)"/>
     </g>
    </g>
    <g id="line2d_21">
     <path d="M 412.4 100.095313 
L 422.4 100.095313 
L 432.4 100.095313 
" style="fill: none; stroke: #2ca02c; stroke-width: 1.5; stroke-linecap: square"/>
    </g>
    <g id="text_18">
     <!-- $\psi_2$ -->
     <g transform="translate(440.4 103.595313)scale(0.1 -0.1)">
      <use xlink:href="#DejaVuSans-Oblique-3c8" transform="translate(0 0.3125)"/>
      <use xlink:href="#DejaVuSans-32" transform="translate(65.966797 -16.09375)scale(0.7)"/>
     </g>
    </g>
   </g>
  </g>
 </g>
 <defs>
  <clipPath id="p6225697a40">
   <rect x="0" y="57.6" width="460.8" height="230.4"/>
  </clipPath>
 </defs>
</svg>
