<?xml version="1.0" encoding="utf-8" standalone="no"?>
<!DOCTYPE svg PUBLIC "-//W3C//DTD SVG 1.1//EN"
  "http://www.w3.org/Graphics/SVG/1.1/DTD/svg11.dtd">
<svg xmlns:xlink="http://www.w3.org/1999/xlink" width="360pt" height="324pt" viewBox="0 0 360 324" xmlns="http://www.w3.org/2000/svg" version="1.1">
 <metadata>
  <rdf:RDF xmlns:dc="http://purl.org/dc/elements/1.1/" xmlns:cc="http://creativecommons.org/ns#" xmlns:rdf="http://www.w3.org/1999/02/22-rdf-syntax-ns#">
   <cc:Work>
    <dc:type rdf:resource="http://purl.org/dc/dcmitype/StillImage"/>
    <dc:date>2022-10-15T15:43:14.108432</dc:date>
    <dc:format>image/svg+xml</dc:format>
    <dc:creator>
     <cc:Agent>
      <dc:title>Matplotlib v3.5.2, https://matplotlib.org/</dc:title>
     </cc:Agent>
    </dc:creator>
   </cc:Work>
  </rdf:RDF>
 </metadata>
 <defs>
  <style type="text/css">*{stroke-linejoin: round; stroke-linecap: butt}</style>
 </defs>
 <g id="figure_1">
  <g id="patch_1">
   <path d="M 0 324 
L 360 324 
L 360 0 
L 0 0 
z
" style="fill: #ffffff"/>
  </g>
  <g id="axes_1">
   <g id="patch_2">
    <path d="M 0 324 
L 360 324 
L 360 64.8 
L 0 64.8 
z
" style="fill: #ffffff"/>
   </g>
   <g id="matplotlib.axis_1"/>
   <g id="matplotlib.axis_2"/>
   <g id="line2d_1">
    <path d="M 16.363636 194.4 
L 40.827273 180.69295 
L 53.918182 173.620422 
L 64.881818 167.944826 
L 74.7 163.108882 
L 83.7 158.918917 
L 92.209091 155.200398 
L 100.227273 151.935198 
L 107.918182 149.039299 
L 115.363636 146.471093 
L 122.563636 144.220181 
L 129.6 142.251853 
L 136.472727 140.558829 
L 143.181818 139.132022 
L 149.809091 137.947575 
L 156.354545 137.001917 
L 162.818182 136.290361 
L 169.281818 135.802441 
L 175.663636 135.541942 
L 182.045455 135.502263 
L 188.427273 135.683553 
L 194.809091 136.085131 
L 201.272727 136.714857 
L 207.736364 137.566584 
L 214.281818 138.651972 
L 220.909091 139.975059 
L 227.7 141.559178 
L 234.572727 143.390892 
L 241.609091 145.496071 
L 248.890909 147.909391 
L 256.336364 150.611619 
L 264.109091 153.670937 
L 272.209091 157.09995 
L 280.718182 160.944506 
L 289.8 165.293281 
L 299.7 170.284511 
L 310.745455 176.107973 
L 323.836364 183.270511 
L 342.981818 194.02971 
L 343.554545 194.353577 
L 343.554545 194.353577 
" clip-path="url(#pe9a3729097)" style="fill: none; stroke: #1f77b4; stroke-width: 1.5; stroke-linecap: square"/>
   </g>
   <g id="line2d_2">
    <path d="M 16.363636 194.4 
L 29.781818 179.391701 
L 36.9 171.771022 
L 42.872727 165.69656 
L 48.109091 160.678569 
L 52.936364 156.353147 
L 57.436364 152.614353 
L 61.690909 149.365705 
L 65.7 146.578931 
L 69.545455 144.17177 
L 73.227273 142.123306 
L 76.827273 140.372749 
L 80.345455 138.911174 
L 83.781818 137.727842 
L 87.136364 136.810491 
L 90.409091 136.145606 
L 93.681818 135.710624 
L 96.872727 135.509515 
L 100.063636 135.529348 
L 103.254545 135.770048 
L 106.445455 136.230711 
L 109.718182 136.929868 
L 112.990909 137.855832 
L 116.345455 139.0365 
L 119.781818 140.483935 
L 123.3 142.208803 
L 126.9 144.220099 
L 130.663636 146.57884 
L 134.590909 149.306007 
L 138.681818 152.419031 
L 143.018182 156.000976 
L 147.681818 160.149376 
L 152.672727 164.891933 
L 158.236364 170.495759 
L 164.536364 177.166681 
L 172.390909 185.824749 
L 198.654545 215.049495 
L 204.872727 221.473272 
L 210.272727 226.74228 
L 215.181818 231.232328 
L 219.763636 235.128837 
L 224.1 238.526981 
L 228.190909 241.452957 
L 232.118182 243.989181 
L 235.881818 246.155492 
L 239.481818 247.975017 
L 243 249.506081 
L 246.436364 250.758973 
L 249.790909 251.745546 
L 253.063636 252.47894 
L 256.336364 252.983124 
L 259.527273 253.252112 
L 262.718182 253.300301 
L 265.909091 253.127513 
L 269.1 252.734394 
L 272.372727 252.103868 
L 275.645455 251.245613 
L 279 250.13311 
L 282.436364 248.75391 
L 285.954545 247.096927 
L 289.554545 245.152704 
L 293.318182 242.861155 
L 297.163636 240.258675 
L 301.254545 237.216166 
L 305.509091 233.772215 
L 310.090909 229.770434 
L 315 225.180159 
L 320.4 219.816945 
L 326.454545 213.481961 
L 333.818182 205.438761 
L 343.554545 194.492847 
L 343.554545 194.492847 
" clip-path="url(#pe9a3729097)" style="fill: none; stroke: #ff7f0e; stroke-width: 1.5; stroke-linecap: square"/>
   </g>
   <g id="line2d_3">
    <path d="M 16.363636 194.4 
L 24.218182 176.901565 
L 28.390909 168.151725 
L 31.827273 161.441433 
L 34.854545 156.001095 
L 37.554545 151.584048 
L 40.090909 147.852714 
L 42.381818 144.860746 
L 44.590909 142.338195 
L 46.636364 140.335932 
L 48.6 138.727214 
L 50.4 137.530262 
L 52.118182 136.640968 
L 53.836364 136.002978 
L 55.472727 135.631559 
L 57.109091 135.492072 
L 58.745455 135.585068 
L 60.381818 135.910178 
L 62.018182 136.466121 
L 63.736364 137.295881 
L 65.454545 138.374096 
L 67.254545 139.765013 
L 69.136364 141.497968 
L 71.181818 143.694416 
L 73.309091 146.310134 
L 75.6 149.485132 
L 78.054545 153.271625 
L 80.754545 157.857018 
L 83.7 163.304991 
L 87.054545 169.989388 
L 91.063636 178.498632 
L 96.627273 190.885636 
L 106.363636 212.603747 
L 110.454545 221.144007 
L 113.890909 227.817145 
L 116.918182 233.218122 
L 119.618182 237.595272 
L 122.072727 241.17313 
L 124.363636 244.13848 
L 126.490909 246.548074 
L 128.536364 248.537239 
L 130.418182 250.072735 
L 132.218182 251.269697 
L 133.936364 252.159001 
L 135.654545 252.797001 
L 137.290909 253.16843 
L 138.927273 253.307927 
L 140.563636 253.214941 
L 142.2 252.88984 
L 143.836364 252.333907 
L 145.554545 251.504157 
L 147.272727 250.425952 
L 149.072727 249.035046 
L 150.954545 247.302101 
L 153 245.105663 
L 155.127273 242.489956 
L 157.418182 239.31497 
L 159.872727 235.528486 
L 162.572727 230.943104 
L 165.518182 225.495141 
L 168.872727 218.810754 
L 172.881818 210.301518 
L 178.445455 197.91452 
L 188.181818 176.196402 
L 192.272727 167.656132 
L 195.709091 160.982984 
L 198.736364 155.581995 
L 201.436364 151.204835 
L 203.890909 147.626965 
L 206.181818 144.661604 
L 208.309091 142.251999 
L 210.354545 140.262823 
L 212.236364 138.727316 
L 214.036364 137.530344 
L 215.754545 136.641029 
L 217.472727 136.003019 
L 219.109091 135.631581 
L 220.745455 135.492074 
L 222.381818 135.58505 
L 224.018182 135.910141 
L 225.654545 136.466065 
L 227.372727 137.295804 
L 229.090909 138.374 
L 230.890909 139.764896 
L 232.772727 141.49783 
L 234.818182 143.694257 
L 236.945455 146.309953 
L 239.236364 149.484929 
L 241.690909 153.271402 
L 244.390909 157.856773 
L 247.336364 163.304726 
L 250.690909 169.989104 
L 254.7 178.498331 
L 260.263636 190.885324 
L 270 212.603449 
L 274.090909 221.143729 
L 277.527273 227.816887 
L 280.554545 233.217887 
L 283.254545 237.595059 
L 285.709091 241.17294 
L 288 244.138312 
L 290.127273 246.547928 
L 292.172727 248.537116 
L 294.054545 250.072633 
L 295.854545 251.269615 
L 297.572727 252.15894 
L 299.290909 252.79696 
L 300.927273 253.168408 
L 302.563636 253.307925 
L 304.2 253.214959 
L 305.836364 252.889877 
L 307.472727 252.333964 
L 309.190909 251.504234 
L 310.909091 250.426049 
L 312.709091 249.035163 
L 314.590909 247.302239 
L 316.636364 245.105822 
L 318.763636 242.490137 
L 321.054545 239.315172 
L 323.509091 235.52871 
L 326.209091 230.94335 
L 329.154545 225.495407 
L 332.509091 218.811038 
L 336.518182 210.301819 
L 342.081818 197.914833 
L 343.554545 194.585693 
L 343.554545 194.585693 
" clip-path="url(#pe9a3729097)" style="fill: none; stroke: #2ca02c; stroke-width: 1.5; stroke-linecap: square"/>
   </g>
   <g id="line2d_4">
    <path d="M 16.363636 194.4 
" clip-path="url(#pe9a3729097)" style="fill: none; stroke: #0000ff; stroke-width: 1.5; stroke-linecap: square"/>
    <defs>
     <path id="md19e308119" d="M 0 1 
C 0.265203 1 0.51958 0.894634 0.707107 0.707107 
C 0.894634 0.51958 1 0.265203 1 0 
C 1 -0.265203 0.894634 -0.51958 0.707107 -0.707107 
C 0.51958 -0.894634 0.265203 -1 0 -1 
C -0.265203 -1 -0.51958 -0.894634 -0.707107 -0.707107 
C -0.894634 -0.51958 -1 -0.265203 -1 0 
C -1 0.265203 -0.894634 0.51958 -0.707107 0.707107 
C -0.51958 0.894634 -0.265203 1 0 1 
z
" style="stroke: #0000ff"/>
    </defs>
    <g clip-path="url(#pe9a3729097)">
     <use xlink:href="#md19e308119" x="16.363636" y="194.4" style="fill: #0000ff; stroke: #0000ff"/>
    </g>
   </g>
   <g id="line2d_5">
    <path d="M 343.636364 194.4 
" clip-path="url(#pe9a3729097)" style="fill: none; stroke: #0000ff; stroke-width: 1.5; stroke-linecap: square"/>
    <g clip-path="url(#pe9a3729097)">
     <use xlink:href="#md19e308119" x="343.636364" y="194.4" style="fill: #0000ff; stroke: #0000ff"/>
    </g>
   </g>
   <g id="line2d_6">
    <path d="M 16.363636 312.218182 
L 16.363636 76.581818 
" clip-path="url(#pe9a3729097)" style="fill: none; stroke: #000000; stroke-width: 1.5; stroke-linecap: square"/>
   </g>
   <g id="line2d_7">
    <path d="M 343.636364 312.218182 
L 343.636364 76.581818 
" clip-path="url(#pe9a3729097)" style="fill: none; stroke: #000000; stroke-width: 1.5; stroke-linecap: square"/>
   </g>
   <g id="text_1">
    <!-- $-a$ -->
    <g transform="translate(16.363636 312.218182)scale(0.19 -0.19)">
     <defs>
      <path id="DejaVuSans-2212" d="M 678 2272 
L 4684 2272 
L 4684 1741 
L 678 1741 
L 678 2272 
z
" transform="scale(0.015625)"/>
      <path id="DejaVuSans-Oblique-61" d="M 3438 1997 
L 3047 0 
L 2472 0 
L 2578 531 
Q 2325 219 2001 64 
Q 1678 -91 1281 -91 
Q 834 -91 548 182 
Q 263 456 263 884 
Q 263 1497 752 1853 
Q 1241 2209 2100 2209 
L 2900 2209 
L 2931 2363 
Q 2938 2388 2941 2417 
Q 2944 2447 2944 2509 
Q 2944 2788 2717 2942 
Q 2491 3097 2081 3097 
Q 1800 3097 1504 3025 
Q 1209 2953 897 2809 
L 997 3341 
Q 1322 3463 1633 3523 
Q 1944 3584 2234 3584 
Q 2853 3584 3176 3315 
Q 3500 3047 3500 2534 
Q 3500 2431 3484 2292 
Q 3469 2153 3438 1997 
z
M 2816 1759 
L 2241 1759 
Q 1534 1759 1195 1570 
Q 856 1381 856 984 
Q 856 709 1029 553 
Q 1203 397 1509 397 
Q 1978 397 2328 733 
Q 2678 1069 2791 1631 
L 2816 1759 
z
" transform="scale(0.015625)"/>
     </defs>
     <use xlink:href="#DejaVuSans-2212"/>
     <use xlink:href="#DejaVuSans-Oblique-61" transform="translate(83.789062 0)"/>
    </g>
   </g>
   <g id="text_2">
    <!-- $a$ -->
    <g transform="translate(327.272727 312.218182)scale(0.19 -0.19)">
     <use xlink:href="#DejaVuSans-Oblique-61"/>
    </g>
   </g>
   <g id="legend_1">
    <g id="patch_3">
     <path d="M 157.65 319 
L 202.35 319 
Q 204.35 319 204.35 317 
L 204.35 273.965625 
Q 204.35 271.965625 202.35 271.965625 
L 157.65 271.965625 
Q 155.65 271.965625 155.65 273.965625 
L 155.65 317 
Q 155.65 319 157.65 319 
z
" style="fill: #ffffff; opacity: 0.8; stroke: #cccccc; stroke-linejoin: miter"/>
    </g>
    <g id="line2d_8">
     <path d="M 159.65 280.064062 
L 169.65 280.064062 
L 179.65 280.064062 
" style="fill: none; stroke: #1f77b4; stroke-width: 1.5; stroke-linecap: square"/>
    </g>
    <g id="text_3">
     <!-- $\Psi_1$ -->
     <g transform="translate(187.65 283.564062)scale(0.1 -0.1)">
      <defs>
       <path id="DejaVuSans-3a8" d="M 2206 0 
Q 2209 419 2206 969 
Q 1538 969 950 1625 
Q 375 2263 359 3388 
L 359 4666 
L 1025 4666 
L 1025 3388 
Q 1025 2506 1431 1994 
Q 1775 1556 2206 1513 
L 2206 4666 
L 2838 4666 
L 2838 1513 
Q 3269 1556 3613 1994 
Q 4019 2506 4019 3388 
L 4019 4666 
L 4684 4666 
L 4684 3388 
Q 4669 2263 4094 1625 
Q 3506 969 2838 969 
Q 2834 744 2838 0 
L 2206 0 
z
" transform="scale(0.015625)"/>
       <path id="DejaVuSans-31" d="M 794 531 
L 1825 531 
L 1825 4091 
L 703 3866 
L 703 4441 
L 1819 4666 
L 2450 4666 
L 2450 531 
L 3481 531 
L 3481 0 
L 794 0 
L 794 531 
z
" transform="scale(0.015625)"/>
      </defs>
      <use xlink:href="#DejaVuSans-3a8" transform="translate(0 0.09375)"/>
      <use xlink:href="#DejaVuSans-31" transform="translate(79.667969 -16.3125)scale(0.7)"/>
     </g>
    </g>
    <g id="line2d_9">
     <path d="M 159.65 294.742188 
L 169.65 294.742188 
L 179.65 294.742188 
" style="fill: none; stroke: #ff7f0e; stroke-width: 1.5; stroke-linecap: square"/>
    </g>
    <g id="text_4">
     <!-- $\Psi_2$ -->
     <g transform="translate(187.65 298.242188)scale(0.1 -0.1)">
      <defs>
       <path id="DejaVuSans-32" d="M 1228 531 
L 3431 531 
L 3431 0 
L 469 0 
L 469 531 
Q 828 903 1448 1529 
Q 2069 2156 2228 2338 
Q 2531 2678 2651 2914 
Q 2772 3150 2772 3378 
Q 2772 3750 2511 3984 
Q 2250 4219 1831 4219 
Q 1534 4219 1204 4116 
Q 875 4013 500 3803 
L 500 4441 
Q 881 4594 1212 4672 
Q 1544 4750 1819 4750 
Q 2544 4750 2975 4387 
Q 3406 4025 3406 3419 
Q 3406 3131 3298 2873 
Q 3191 2616 2906 2266 
Q 2828 2175 2409 1742 
Q 1991 1309 1228 531 
z
" transform="scale(0.015625)"/>
      </defs>
      <use xlink:href="#DejaVuSans-3a8" transform="translate(0 0.09375)"/>
      <use xlink:href="#DejaVuSans-32" transform="translate(79.667969 -16.3125)scale(0.7)"/>
     </g>
    </g>
    <g id="line2d_10">
     <path d="M 159.65 309.420313 
L 169.65 309.420313 
L 179.65 309.420313 
" style="fill: none; stroke: #2ca02c; stroke-width: 1.5; stroke-linecap: square"/>
    </g>
    <g id="text_5">
     <!-- $\Psi_3$ -->
     <g transform="translate(187.65 312.920313)scale(0.1 -0.1)">
      <defs>
       <path id="DejaVuSans-33" d="M 2597 2516 
Q 3050 2419 3304 2112 
Q 3559 1806 3559 1356 
Q 3559 666 3084 287 
Q 2609 -91 1734 -91 
Q 1441 -91 1130 -33 
Q 819 25 488 141 
L 488 750 
Q 750 597 1062 519 
Q 1375 441 1716 441 
Q 2309 441 2620 675 
Q 2931 909 2931 1356 
Q 2931 1769 2642 2001 
Q 2353 2234 1838 2234 
L 1294 2234 
L 1294 2753 
L 1863 2753 
Q 2328 2753 2575 2939 
Q 2822 3125 2822 3475 
Q 2822 3834 2567 4026 
Q 2313 4219 1838 4219 
Q 1578 4219 1281 4162 
Q 984 4106 628 3988 
L 628 4550 
Q 988 4650 1302 4700 
Q 1616 4750 1894 4750 
Q 2613 4750 3031 4423 
Q 3450 4097 3450 3541 
Q 3450 3153 3228 2886 
Q 3006 2619 2597 2516 
z
" transform="scale(0.015625)"/>
      </defs>
      <use xlink:href="#DejaVuSans-3a8" transform="translate(0 0.09375)"/>
      <use xlink:href="#DejaVuSans-33" transform="translate(79.667969 -16.3125)scale(0.7)"/>
     </g>
    </g>
   </g>
  </g>
 </g>
 <defs>
  <clipPath id="pe9a3729097">
   <rect x="0" y="64.8" width="360" height="259.2"/>
  </clipPath>
 </defs>
</svg>
