<?xml version="1.0" encoding="utf-8" standalone="no"?>
<!DOCTYPE svg PUBLIC "-//W3C//DTD SVG 1.1//EN"
  "http://www.w3.org/Graphics/SVG/1.1/DTD/svg11.dtd">
<svg xmlns:xlink="http://www.w3.org/1999/xlink" width="460.8pt" height="345.6pt" viewBox="0 0 460.8 345.6" xmlns="http://www.w3.org/2000/svg" version="1.1">
 <metadata>
  <rdf:RDF xmlns:dc="http://purl.org/dc/elements/1.1/" xmlns:cc="http://creativecommons.org/ns#" xmlns:rdf="http://www.w3.org/1999/02/22-rdf-syntax-ns#">
   <cc:Work>
    <dc:type rdf:resource="http://purl.org/dc/dcmitype/StillImage"/>
    <dc:date>2022-10-13T17:32:50.737090</dc:date>
    <dc:format>image/svg+xml</dc:format>
    <dc:creator>
     <cc:Agent>
      <dc:title>Matplotlib v3.5.2, https://matplotlib.org/</dc:title>
     </cc:Agent>
    </dc:creator>
   </cc:Work>
  </rdf:RDF>
 </metadata>
 <defs>
  <style type="text/css">*{stroke-linejoin: round; stroke-linecap: butt}</style>
 </defs>
 <g id="figure_1">
  <g id="patch_1">
   <path d="M 0 345.6 
L 460.8 345.6 
L 460.8 0 
L 0 0 
z
" style="fill: #ffffff"/>
  </g>
  <g id="axes_1">
   <g id="patch_2">
    <path d="M 57.6 307.584 
L 414.72 307.584 
L 414.72 41.472 
L 57.6 41.472 
z
" style="fill: #ffffff"/>
   </g>
   <g id="matplotlib.axis_1">
    <g id="xtick_1">
     <g id="line2d_1">
      <defs>
       <path id="mb44c1e984d" d="M 0 0 
L 0 3.5 
" style="stroke: #000000; stroke-width: 0.8"/>
      </defs>
      <g>
       <use xlink:href="#mb44c1e984d" x="73.832727" y="307.584" style="stroke: #000000; stroke-width: 0.8"/>
      </g>
     </g>
     <g id="text_1">
      <!-- 0 -->
      <g transform="translate(70.651477 322.182437)scale(0.1 -0.1)">
       <defs>
        <path id="DejaVuSans-30" d="M 2034 4250 
Q 1547 4250 1301 3770 
Q 1056 3291 1056 2328 
Q 1056 1369 1301 889 
Q 1547 409 2034 409 
Q 2525 409 2770 889 
Q 3016 1369 3016 2328 
Q 3016 3291 2770 3770 
Q 2525 4250 2034 4250 
z
M 2034 4750 
Q 2819 4750 3233 4129 
Q 3647 3509 3647 2328 
Q 3647 1150 3233 529 
Q 2819 -91 2034 -91 
Q 1250 -91 836 529 
Q 422 1150 422 2328 
Q 422 3509 836 4129 
Q 1250 4750 2034 4750 
z
" transform="scale(0.015625)"/>
       </defs>
       <use xlink:href="#DejaVuSans-30"/>
      </g>
     </g>
    </g>
    <g id="xtick_2">
     <g id="line2d_2">
      <g>
       <use xlink:href="#mb44c1e984d" x="138.763636" y="307.584" style="stroke: #000000; stroke-width: 0.8"/>
      </g>
     </g>
     <g id="text_2">
      <!-- 2 -->
      <g transform="translate(135.582386 322.182437)scale(0.1 -0.1)">
       <defs>
        <path id="DejaVuSans-32" d="M 1228 531 
L 3431 531 
L 3431 0 
L 469 0 
L 469 531 
Q 828 903 1448 1529 
Q 2069 2156 2228 2338 
Q 2531 2678 2651 2914 
Q 2772 3150 2772 3378 
Q 2772 3750 2511 3984 
Q 2250 4219 1831 4219 
Q 1534 4219 1204 4116 
Q 875 4013 500 3803 
L 500 4441 
Q 881 4594 1212 4672 
Q 1544 4750 1819 4750 
Q 2544 4750 2975 4387 
Q 3406 4025 3406 3419 
Q 3406 3131 3298 2873 
Q 3191 2616 2906 2266 
Q 2828 2175 2409 1742 
Q 1991 1309 1228 531 
z
" transform="scale(0.015625)"/>
       </defs>
       <use xlink:href="#DejaVuSans-32"/>
      </g>
     </g>
    </g>
    <g id="xtick_3">
     <g id="line2d_3">
      <g>
       <use xlink:href="#mb44c1e984d" x="203.694545" y="307.584" style="stroke: #000000; stroke-width: 0.8"/>
      </g>
     </g>
     <g id="text_3">
      <!-- 4 -->
      <g transform="translate(200.513295 322.182437)scale(0.1 -0.1)">
       <defs>
        <path id="DejaVuSans-34" d="M 2419 4116 
L 825 1625 
L 2419 1625 
L 2419 4116 
z
M 2253 4666 
L 3047 4666 
L 3047 1625 
L 3713 1625 
L 3713 1100 
L 3047 1100 
L 3047 0 
L 2419 0 
L 2419 1100 
L 313 1100 
L 313 1709 
L 2253 4666 
z
" transform="scale(0.015625)"/>
       </defs>
       <use xlink:href="#DejaVuSans-34"/>
      </g>
     </g>
    </g>
    <g id="xtick_4">
     <g id="line2d_4">
      <g>
       <use xlink:href="#mb44c1e984d" x="268.625455" y="307.584" style="stroke: #000000; stroke-width: 0.8"/>
      </g>
     </g>
     <g id="text_4">
      <!-- 6 -->
      <g transform="translate(265.444205 322.182437)scale(0.1 -0.1)">
       <defs>
        <path id="DejaVuSans-36" d="M 2113 2584 
Q 1688 2584 1439 2293 
Q 1191 2003 1191 1497 
Q 1191 994 1439 701 
Q 1688 409 2113 409 
Q 2538 409 2786 701 
Q 3034 994 3034 1497 
Q 3034 2003 2786 2293 
Q 2538 2584 2113 2584 
z
M 3366 4563 
L 3366 3988 
Q 3128 4100 2886 4159 
Q 2644 4219 2406 4219 
Q 1781 4219 1451 3797 
Q 1122 3375 1075 2522 
Q 1259 2794 1537 2939 
Q 1816 3084 2150 3084 
Q 2853 3084 3261 2657 
Q 3669 2231 3669 1497 
Q 3669 778 3244 343 
Q 2819 -91 2113 -91 
Q 1303 -91 875 529 
Q 447 1150 447 2328 
Q 447 3434 972 4092 
Q 1497 4750 2381 4750 
Q 2619 4750 2861 4703 
Q 3103 4656 3366 4563 
z
" transform="scale(0.015625)"/>
       </defs>
       <use xlink:href="#DejaVuSans-36"/>
      </g>
     </g>
    </g>
    <g id="xtick_5">
     <g id="line2d_5">
      <g>
       <use xlink:href="#mb44c1e984d" x="333.556364" y="307.584" style="stroke: #000000; stroke-width: 0.8"/>
      </g>
     </g>
     <g id="text_5">
      <!-- 8 -->
      <g transform="translate(330.375114 322.182437)scale(0.1 -0.1)">
       <defs>
        <path id="DejaVuSans-38" d="M 2034 2216 
Q 1584 2216 1326 1975 
Q 1069 1734 1069 1313 
Q 1069 891 1326 650 
Q 1584 409 2034 409 
Q 2484 409 2743 651 
Q 3003 894 3003 1313 
Q 3003 1734 2745 1975 
Q 2488 2216 2034 2216 
z
M 1403 2484 
Q 997 2584 770 2862 
Q 544 3141 544 3541 
Q 544 4100 942 4425 
Q 1341 4750 2034 4750 
Q 2731 4750 3128 4425 
Q 3525 4100 3525 3541 
Q 3525 3141 3298 2862 
Q 3072 2584 2669 2484 
Q 3125 2378 3379 2068 
Q 3634 1759 3634 1313 
Q 3634 634 3220 271 
Q 2806 -91 2034 -91 
Q 1263 -91 848 271 
Q 434 634 434 1313 
Q 434 1759 690 2068 
Q 947 2378 1403 2484 
z
M 1172 3481 
Q 1172 3119 1398 2916 
Q 1625 2713 2034 2713 
Q 2441 2713 2670 2916 
Q 2900 3119 2900 3481 
Q 2900 3844 2670 4047 
Q 2441 4250 2034 4250 
Q 1625 4250 1398 4047 
Q 1172 3844 1172 3481 
z
" transform="scale(0.015625)"/>
       </defs>
       <use xlink:href="#DejaVuSans-38"/>
      </g>
     </g>
    </g>
    <g id="xtick_6">
     <g id="line2d_6">
      <g>
       <use xlink:href="#mb44c1e984d" x="398.487273" y="307.584" style="stroke: #000000; stroke-width: 0.8"/>
      </g>
     </g>
     <g id="text_6">
      <!-- 10 -->
      <g transform="translate(392.124773 322.182437)scale(0.1 -0.1)">
       <defs>
        <path id="DejaVuSans-31" d="M 794 531 
L 1825 531 
L 1825 4091 
L 703 3866 
L 703 4441 
L 1819 4666 
L 2450 4666 
L 2450 531 
L 3481 531 
L 3481 0 
L 794 0 
L 794 531 
z
" transform="scale(0.015625)"/>
       </defs>
       <use xlink:href="#DejaVuSans-31"/>
       <use xlink:href="#DejaVuSans-30" x="63.623047"/>
      </g>
     </g>
    </g>
   </g>
   <g id="matplotlib.axis_2">
    <g id="ytick_1">
     <g id="line2d_7">
      <defs>
       <path id="m3edb6a6905" d="M 0 0 
L -3.5 0 
" style="stroke: #000000; stroke-width: 0.8"/>
      </defs>
      <g>
       <use xlink:href="#m3edb6a6905" x="57.6" y="295.488572" style="stroke: #000000; stroke-width: 0.8"/>
      </g>
     </g>
     <g id="text_7">
      <!-- −1.00 -->
      <g transform="translate(19.954687 299.28779)scale(0.1 -0.1)">
       <defs>
        <path id="DejaVuSans-2212" d="M 678 2272 
L 4684 2272 
L 4684 1741 
L 678 1741 
L 678 2272 
z
" transform="scale(0.015625)"/>
        <path id="DejaVuSans-2e" d="M 684 794 
L 1344 794 
L 1344 0 
L 684 0 
L 684 794 
z
" transform="scale(0.015625)"/>
       </defs>
       <use xlink:href="#DejaVuSans-2212"/>
       <use xlink:href="#DejaVuSans-31" x="83.789062"/>
       <use xlink:href="#DejaVuSans-2e" x="147.412109"/>
       <use xlink:href="#DejaVuSans-30" x="179.199219"/>
       <use xlink:href="#DejaVuSans-30" x="242.822266"/>
      </g>
     </g>
    </g>
    <g id="ytick_2">
     <g id="line2d_8">
      <g>
       <use xlink:href="#m3edb6a6905" x="57.6" y="265.248504" style="stroke: #000000; stroke-width: 0.8"/>
      </g>
     </g>
     <g id="text_8">
      <!-- −0.75 -->
      <g transform="translate(19.954687 269.047722)scale(0.1 -0.1)">
       <defs>
        <path id="DejaVuSans-37" d="M 525 4666 
L 3525 4666 
L 3525 4397 
L 1831 0 
L 1172 0 
L 2766 4134 
L 525 4134 
L 525 4666 
z
" transform="scale(0.015625)"/>
        <path id="DejaVuSans-35" d="M 691 4666 
L 3169 4666 
L 3169 4134 
L 1269 4134 
L 1269 2991 
Q 1406 3038 1543 3061 
Q 1681 3084 1819 3084 
Q 2600 3084 3056 2656 
Q 3513 2228 3513 1497 
Q 3513 744 3044 326 
Q 2575 -91 1722 -91 
Q 1428 -91 1123 -41 
Q 819 9 494 109 
L 494 744 
Q 775 591 1075 516 
Q 1375 441 1709 441 
Q 2250 441 2565 725 
Q 2881 1009 2881 1497 
Q 2881 1984 2565 2268 
Q 2250 2553 1709 2553 
Q 1456 2553 1204 2497 
Q 953 2441 691 2322 
L 691 4666 
z
" transform="scale(0.015625)"/>
       </defs>
       <use xlink:href="#DejaVuSans-2212"/>
       <use xlink:href="#DejaVuSans-30" x="83.789062"/>
       <use xlink:href="#DejaVuSans-2e" x="147.412109"/>
       <use xlink:href="#DejaVuSans-37" x="179.199219"/>
       <use xlink:href="#DejaVuSans-35" x="242.822266"/>
      </g>
     </g>
    </g>
    <g id="ytick_3">
     <g id="line2d_9">
      <g>
       <use xlink:href="#m3edb6a6905" x="57.6" y="235.008436" style="stroke: #000000; stroke-width: 0.8"/>
      </g>
     </g>
     <g id="text_9">
      <!-- −0.50 -->
      <g transform="translate(19.954687 238.807654)scale(0.1 -0.1)">
       <use xlink:href="#DejaVuSans-2212"/>
       <use xlink:href="#DejaVuSans-30" x="83.789062"/>
       <use xlink:href="#DejaVuSans-2e" x="147.412109"/>
       <use xlink:href="#DejaVuSans-35" x="179.199219"/>
       <use xlink:href="#DejaVuSans-30" x="242.822266"/>
      </g>
     </g>
    </g>
    <g id="ytick_4">
     <g id="line2d_10">
      <g>
       <use xlink:href="#m3edb6a6905" x="57.6" y="204.768368" style="stroke: #000000; stroke-width: 0.8"/>
      </g>
     </g>
     <g id="text_10">
      <!-- −0.25 -->
      <g transform="translate(19.954687 208.567586)scale(0.1 -0.1)">
       <use xlink:href="#DejaVuSans-2212"/>
       <use xlink:href="#DejaVuSans-30" x="83.789062"/>
       <use xlink:href="#DejaVuSans-2e" x="147.412109"/>
       <use xlink:href="#DejaVuSans-32" x="179.199219"/>
       <use xlink:href="#DejaVuSans-35" x="242.822266"/>
      </g>
     </g>
    </g>
    <g id="ytick_5">
     <g id="line2d_11">
      <g>
       <use xlink:href="#m3edb6a6905" x="57.6" y="174.5283" style="stroke: #000000; stroke-width: 0.8"/>
      </g>
     </g>
     <g id="text_11">
      <!-- 0.00 -->
      <g transform="translate(28.334375 178.327518)scale(0.1 -0.1)">
       <use xlink:href="#DejaVuSans-30"/>
       <use xlink:href="#DejaVuSans-2e" x="63.623047"/>
       <use xlink:href="#DejaVuSans-30" x="95.410156"/>
       <use xlink:href="#DejaVuSans-30" x="159.033203"/>
      </g>
     </g>
    </g>
    <g id="ytick_6">
     <g id="line2d_12">
      <g>
       <use xlink:href="#m3edb6a6905" x="57.6" y="144.288232" style="stroke: #000000; stroke-width: 0.8"/>
      </g>
     </g>
     <g id="text_12">
      <!-- 0.25 -->
      <g transform="translate(28.334375 148.08745)scale(0.1 -0.1)">
       <use xlink:href="#DejaVuSans-30"/>
       <use xlink:href="#DejaVuSans-2e" x="63.623047"/>
       <use xlink:href="#DejaVuSans-32" x="95.410156"/>
       <use xlink:href="#DejaVuSans-35" x="159.033203"/>
      </g>
     </g>
    </g>
    <g id="ytick_7">
     <g id="line2d_13">
      <g>
       <use xlink:href="#m3edb6a6905" x="57.6" y="114.048164" style="stroke: #000000; stroke-width: 0.8"/>
      </g>
     </g>
     <g id="text_13">
      <!-- 0.50 -->
      <g transform="translate(28.334375 117.847382)scale(0.1 -0.1)">
       <use xlink:href="#DejaVuSans-30"/>
       <use xlink:href="#DejaVuSans-2e" x="63.623047"/>
       <use xlink:href="#DejaVuSans-35" x="95.410156"/>
       <use xlink:href="#DejaVuSans-30" x="159.033203"/>
      </g>
     </g>
    </g>
    <g id="ytick_8">
     <g id="line2d_14">
      <g>
       <use xlink:href="#m3edb6a6905" x="57.6" y="83.808096" style="stroke: #000000; stroke-width: 0.8"/>
      </g>
     </g>
     <g id="text_14">
      <!-- 0.75 -->
      <g transform="translate(28.334375 87.607314)scale(0.1 -0.1)">
       <use xlink:href="#DejaVuSans-30"/>
       <use xlink:href="#DejaVuSans-2e" x="63.623047"/>
       <use xlink:href="#DejaVuSans-37" x="95.410156"/>
       <use xlink:href="#DejaVuSans-35" x="159.033203"/>
      </g>
     </g>
    </g>
    <g id="ytick_9">
     <g id="line2d_15">
      <g>
       <use xlink:href="#m3edb6a6905" x="57.6" y="53.568028" style="stroke: #000000; stroke-width: 0.8"/>
      </g>
     </g>
     <g id="text_15">
      <!-- 1.00 -->
      <g transform="translate(28.334375 57.367246)scale(0.1 -0.1)">
       <use xlink:href="#DejaVuSans-31"/>
       <use xlink:href="#DejaVuSans-2e" x="63.623047"/>
       <use xlink:href="#DejaVuSans-30" x="95.410156"/>
       <use xlink:href="#DejaVuSans-30" x="159.033203"/>
      </g>
     </g>
    </g>
   </g>
   <g id="line2d_16">
    <path d="M 73.832727 53.568028 
L 74.157707 53.807193 
L 74.482686 54.523743 
L 74.807666 55.714845 
L 75.457625 59.500005 
L 76.107584 65.102859 
L 76.757543 72.434869 
L 77.732482 86.414576 
L 78.70742 103.52199 
L 80.007338 130.134282 
L 82.282195 182.320857 
L 84.557052 233.021227 
L 85.85697 257.536271 
L 86.831908 272.565772 
L 87.806847 284.11531 
L 88.456806 289.673684 
L 89.106765 293.412514 
L 89.431744 294.579985 
L 89.756724 295.272718 
L 90.081704 295.487974 
L 90.406683 295.224901 
L 90.731663 294.484541 
L 91.056642 293.269819 
L 91.706601 289.438367 
L 92.35656 283.791089 
L 93.006519 276.417225 
L 93.981458 262.380989 
L 94.956396 245.226312 
L 96.256314 218.568259 
L 98.856151 158.786965 
L 100.806028 115.702708 
L 102.105946 91.244057 
L 103.080885 76.268502 
L 104.055823 64.780802 
L 104.705782 59.266963 
L 105.355741 55.5745 
L 105.680721 54.430672 
L 106.0057 53.761763 
L 106.33068 53.570419 
L 106.655659 53.857396 
L 106.980639 54.62156 
L 107.305618 55.859888 
L 107.955577 59.737595 
L 108.605536 65.429242 
L 109.255495 72.844888 
L 110.230434 86.937514 
L 111.205373 104.139286 
L 112.505291 130.842835 
L 115.105127 190.646706 
L 117.055004 233.685972 
L 118.354922 258.08799 
L 119.329861 273.00945 
L 120.304799 284.435198 
L 120.954758 289.904447 
L 121.604717 293.550506 
L 121.929697 294.67068 
L 122.254676 295.315758 
L 122.579656 295.483189 
L 122.904636 295.17231 
L 123.229615 294.38435 
L 123.554595 293.122427 
L 124.204554 289.198503 
L 124.854513 283.462544 
L 125.504472 276.00519 
L 126.47941 261.856312 
L 127.779328 238.272258 
L 129.404226 203.348134 
L 133.62896 108.537006 
L 134.928878 85.37917 
L 135.903817 71.626956 
L 136.878755 61.527354 
L 137.528714 57.006302 
L 138.178673 54.34235 
L 138.503653 53.72111 
L 138.828632 53.577594 
L 139.153612 53.912372 
L 139.478591 54.724119 
L 139.803571 56.009624 
L 140.45353 59.979726 
L 141.103489 65.759941 
L 141.753448 73.258929 
L 142.728387 87.463918 
L 144.028305 111.107934 
L 145.653202 146.078036 
L 149.877936 240.838055 
L 151.177854 263.934084 
L 152.152793 277.629084 
L 153.127731 287.664393 
L 153.77769 292.139768 
L 154.427649 294.756629 
L 154.752629 295.354027 
L 155.077609 295.473625 
L 155.402588 295.114952 
L 155.727568 294.279426 
L 156.052547 292.97035 
L 156.702506 288.95411 
L 157.352465 283.129696 
L 158.002424 275.589147 
L 158.977363 261.328187 
L 160.277281 237.624445 
L 161.902179 202.60871 
L 166.126912 107.900736 
L 167.42683 84.866746 
L 168.401769 71.229096 
L 169.376708 61.25818 
L 170.026667 56.828526 
L 170.676626 54.258781 
L 171.001605 53.685233 
L 171.326585 53.589552 
L 171.651564 53.972117 
L 171.976544 54.831414 
L 172.626503 57.964744 
L 173.276462 62.940029 
L 173.926421 69.678647 
L 174.90136 82.852677 
L 175.876298 99.280847 
L 177.176216 125.225075 
L 179.126093 169.394578 
L 181.72593 228.304658 
L 183.025848 253.583493 
L 184.000786 269.352407 
L 184.975725 281.755421 
L 185.625684 287.931321 
L 186.275643 292.31521 
L 186.925602 294.837814 
L 187.250581 295.387507 
L 187.575561 295.459269 
L 187.900541 295.052817 
L 188.22552 294.169756 
L 188.875479 290.989652 
L 189.525438 285.969208 
L 190.175397 279.18776 
L 191.150336 265.955318 
L 192.125274 249.477561 
L 193.425192 223.483934 
L 195.37507 179.281961 
L 197.974906 120.411485 
L 199.274824 95.185597 
L 200.249762 79.468499 
L 201.224701 67.125667 
L 201.87466 60.993492 
L 202.524619 56.65541 
L 203.174578 54.179973 
L 203.499558 53.65414 
L 203.824537 53.606297 
L 204.149517 54.036634 
L 204.474496 54.943448 
L 205.124455 58.170297 
L 205.774414 63.235851 
L 206.424373 70.060065 
L 207.399312 83.350789 
L 208.374251 99.877973 
L 209.674169 125.920746 
L 211.624046 170.154756 
L 214.223882 228.985042 
L 215.5238 254.157733 
L 216.498739 269.822857 
L 217.473677 282.105382 
L 218.123636 288.193771 
L 218.773595 292.486001 
L 219.423554 294.914246 
L 219.748534 295.416214 
L 220.073514 295.440136 
L 220.398493 294.985919 
L 220.723473 294.055359 
L 221.373432 290.781799 
L 222.023391 285.671184 
L 222.67335 278.804272 
L 223.648288 265.455396 
L 224.623227 248.878949 
L 225.923145 222.787289 
L 228.198002 170.915181 
L 230.472858 119.73217 
L 231.772776 94.612926 
L 232.747715 78.99993 
L 233.722654 66.777833 
L 234.372613 60.733291 
L 235.022572 56.486954 
L 235.672531 54.105923 
L 235.99751 53.627827 
L 236.32249 53.627825 
L 236.647469 54.105917 
L 236.972449 55.060213 
L 237.622408 58.380453 
L 238.272367 63.536077 
L 238.922326 70.445617 
L 239.897265 83.852513 
L 240.872203 100.478058 
L 242.172121 126.618348 
L 244.446978 178.521616 
L 246.721835 229.663274 
L 248.021753 254.728824 
L 248.996691 270.289538 
L 249.97163 282.451087 
L 250.621589 288.451723 
L 251.271548 292.652124 
L 251.921507 294.985916 
L 252.246486 295.440137 
L 252.571466 295.416219 
L 252.896446 294.914256 
L 253.221425 293.936234 
L 253.871384 290.569347 
L 254.521343 285.368763 
L 255.171302 278.416662 
L 256.146241 264.95188 
L 257.121179 248.277401 
L 258.421097 222.088739 
L 260.695954 170.154826 
L 262.970811 119.055026 
L 264.270729 94.043418 
L 265.245667 78.53514 
L 266.220606 66.43426 
L 266.870565 60.477589 
L 267.520524 56.323165 
L 268.170483 54.036635 
L 268.495463 53.606293 
L 268.820442 53.654132 
L 269.145422 54.17996 
L 269.470401 55.181699 
L 270.12036 58.595199 
L 270.770319 63.840691 
L 271.420278 70.835284 
L 272.395217 84.357819 
L 273.370156 101.081068 
L 274.670074 127.317842 
L 276.94493 179.281887 
L 279.219787 230.339324 
L 280.519705 255.296742 
L 281.494644 270.75243 
L 282.469582 282.792523 
L 283.119541 288.705169 
L 283.7695 292.813576 
L 284.419459 295.052821 
L 284.744439 295.459278 
L 285.069419 295.387521 
L 285.394398 294.837832 
L 285.719378 293.812386 
L 286.369337 290.352306 
L 287.019296 285.061959 
L 287.669255 278.024943 
L 288.644193 264.444788 
L 289.619132 247.672935 
L 290.91905 221.388309 
L 293.193907 169.394645 
L 295.468763 118.380077 
L 296.768681 93.477095 
L 297.74362 78.07415 
L 298.718559 66.094964 
L 299.368518 60.226401 
L 300.018477 56.164053 
L 300.343456 54.831416 
L 300.668436 53.972114 
L 300.993415 53.589545 
L 301.318395 53.685221 
L 301.643374 54.258765 
L 301.968354 55.307908 
L 302.618313 58.814533 
L 303.268272 64.149684 
L 303.918231 71.229053 
L 304.89317 84.866693 
L 305.868108 101.686984 
L 307.168026 128.019202 
L 309.442883 180.041971 
L 311.71774 231.013167 
L 313.017658 255.861464 
L 313.992596 271.211515 
L 314.967535 283.129675 
L 315.617494 288.954097 
L 316.267453 292.970346 
L 316.592432 294.279426 
L 316.917412 295.114957 
L 317.242391 295.473634 
L 317.567371 295.35404 
L 317.892351 294.756647 
L 318.21733 293.683818 
L 318.867289 290.130682 
L 319.517248 284.750781 
L 320.167207 277.629129 
L 321.142146 263.934138 
L 322.117084 247.065576 
L 323.417002 220.686024 
L 325.691859 168.634667 
L 327.966716 117.707349 
L 329.266634 92.913982 
L 330.241572 77.616979 
L 331.216511 65.759963 
L 331.86647 59.97974 
L 332.516429 56.009629 
L 332.841409 54.724119 
L 333.166388 53.912368 
L 333.491368 53.577585 
L 333.816347 53.721096 
L 334.141327 54.342332 
L 334.466306 55.438837 
L 335.116265 59.038447 
L 335.766224 64.463045 
L 336.416183 71.626909 
L 337.391122 85.379112 
L 338.366061 102.295777 
L 339.665979 128.722398 
L 341.940835 180.80183 
L 344.215692 231.68477 
L 345.51561 256.422966 
L 346.490549 271.666773 
L 347.465487 283.46253 
L 348.115446 289.198499 
L 348.765405 293.122432 
L 349.090385 294.384361 
L 349.415364 295.172325 
L 349.740344 295.483209 
L 350.065324 295.315783 
L 350.390303 294.670709 
L 350.715283 293.550539 
L 351.365242 289.904489 
L 352.015201 284.435248 
L 352.66516 277.229241 
L 353.640098 263.419957 
L 354.615037 246.455353 
L 355.914955 219.981921 
L 358.189812 167.874926 
L 360.464668 117.036868 
L 361.764586 92.354091 
L 362.739525 77.163632 
L 363.714464 65.429254 
L 364.364423 59.737597 
L 365.014382 55.85988 
L 365.339361 54.621547 
L 365.664341 53.857379 
L 365.98932 53.570397 
L 366.3143 53.761736 
L 366.639279 54.43064 
L 366.964259 55.574464 
L 367.614218 59.266918 
L 368.264177 64.780749 
L 368.914136 72.028827 
L 369.889075 85.895053 
L 370.864013 102.907428 
L 372.163931 129.427409 
L 374.438788 181.561449 
L 376.713645 232.354119 
L 378.013563 256.981235 
L 378.988501 272.118196 
L 379.96344 283.791081 
L 380.613399 289.438369 
L 381.263358 293.269831 
L 381.588337 294.484557 
L 381.913317 295.224923 
L 382.238296 295.488 
L 382.563276 295.272749 
L 382.888256 294.58002 
L 383.213235 293.412553 
L 383.863194 289.673732 
L 384.513153 284.115366 
L 385.163112 276.825289 
L 386.138051 262.902257 
L 387.112989 245.842281 
L 388.412907 219.276014 
L 390.687764 167.115445 
L 392.962621 116.368663 
L 394.262539 91.797454 
L 395.237477 76.714142 
L 396.212416 65.102865 
L 396.862375 59.500001 
L 397.512334 55.714832 
L 397.837314 54.523725 
L 398.162293 53.80717 
L 398.487273 53.568 
L 398.487273 53.568 
" clip-path="url(#p7ba0e6b6a7)" style="fill: none; stroke: #000000; stroke-width: 0.25; stroke-linecap: square"/>
   </g>
   <g id="line2d_17">
    <path d="M 73.832727 53.568028 
L 74.157707 53.8052 
L 74.482686 54.507918 
L 74.807666 55.661871 
L 75.457625 59.259306 
L 76.107584 64.456642 
L 77.082523 74.901475 
L 78.057461 87.993234 
L 79.357379 108.456481 
L 84.882031 200.083044 
L 86.181949 215.805734 
L 87.156888 225.010231 
L 88.131826 231.81963 
L 88.781785 234.995935 
L 89.431744 237.084498 
L 89.756724 237.726881 
L 90.081704 238.106508 
L 90.406683 238.228422 
L 90.731663 238.098552 
L 91.056642 237.723658 
L 91.706601 236.269748 
L 92.35656 233.935674 
L 93.006519 230.800597 
L 93.981458 224.789653 
L 95.281376 214.840548 
L 97.231253 197.433958 
L 100.156069 171.064609 
L 101.455987 161.024523 
L 102.755905 152.754418 
L 103.730844 147.915338 
L 104.705782 144.337931 
L 105.355741 142.670978 
L 106.0057 141.576782 
L 106.655659 141.044101 
L 106.980639 140.982582 
L 107.305618 141.053591 
L 107.955577 141.578499 
L 108.605536 142.585446 
L 109.255495 144.035257 
L 110.230434 146.942818 
L 111.205373 150.582154 
L 112.505291 156.26491 
L 118.029943 181.663933 
L 119.329861 186.013982 
L 120.304799 188.558022 
L 121.279738 190.437448 
L 121.929697 191.31227 
L 122.579656 191.885503 
L 123.229615 192.163112 
L 123.879574 192.155325 
L 124.529533 191.876267 
L 125.179492 191.34355 
L 126.154431 190.114768 
L 127.129369 188.442416 
L 128.429287 185.678051 
L 130.379165 180.847206 
L 133.30398 173.537852 
L 134.928878 170.135358 
L 136.228796 167.985998 
L 137.203735 166.763479 
L 138.178673 165.89531 
L 139.153612 165.385413 
L 140.12855 165.225177 
L 141.103489 165.394662 
L 142.078428 165.864104 
L 143.053366 166.595646 
L 144.353284 167.901936 
L 145.978182 169.902933 
L 150.852875 176.176904 
L 152.152793 177.450601 
L 153.452711 178.427331 
L 154.752629 179.077024 
L 155.727568 179.344296 
L 156.702506 179.427481 
L 158.002424 179.271012 
L 159.302342 178.845458 
L 160.92724 178.014029 
L 162.877117 176.732871 
L 167.101851 173.845372 
L 168.726749 172.986379 
L 170.351646 172.371027 
L 171.976544 172.027231 
L 173.601441 171.954579 
L 175.226339 172.127717 
L 177.176216 172.595547 
L 179.776052 173.490732 
L 184.325766 175.084557 
L 186.600622 175.611871 
L 188.5505 175.845845 
L 190.500377 175.874941 
L 192.775233 175.684359 
L 195.700049 175.200081 
L 201.87466 174.099033 
L 204.799476 173.847048 
L 207.724292 173.836299 
L 211.299066 174.079746 
L 220.723473 174.868938 
L 224.623227 174.88612 
L 229.822899 174.660937 
L 237.297428 174.3488 
L 242.82208 174.366169 
L 259.721016 174.610015 
L 278.244848 174.498834 
L 297.093661 174.534265 
L 323.092023 174.536252 
L 398.487273 174.528259 
L 398.487273 174.528259 
" clip-path="url(#p7ba0e6b6a7)" style="fill: none; stroke: #ff0000; stroke-width: 1.5; stroke-linecap: square"/>
   </g>
   <g id="line2d_18">
    <path d="M 73.832727 53.568028 
L 74.157707 53.797473 
L 74.482686 54.448415 
L 75.132645 56.810631 
L 75.782604 60.292074 
L 76.757543 66.977026 
L 78.382441 80.227708 
L 81.957215 109.947276 
L 83.582113 121.60821 
L 85.207011 131.678198 
L 86.831908 140.16681 
L 88.131826 145.897871 
L 89.431744 150.779443 
L 90.731663 154.905886 
L 92.031581 158.371612 
L 93.331499 161.266393 
L 94.631417 163.672752 
L 95.931335 165.664751 
L 97.231253 167.307666 
L 98.531171 168.658238 
L 100.156069 170.008941 
L 101.780966 171.058111 
L 103.730844 172.008817 
L 105.680721 172.70472 
L 107.955577 173.281997 
L 110.880393 173.768021 
L 114.455168 174.115431 
L 119.329861 174.350462 
L 127.454349 174.48547 
L 148.253038 174.527264 
L 398.487273 174.5283 
L 398.487273 174.5283 
" clip-path="url(#p7ba0e6b6a7)" style="fill: none; stroke: #0000ff; stroke-width: 1.5; stroke-linecap: square"/>
   </g>
   <g id="line2d_19">
    <path d="M 73.832727 53.568028 
L 74.157707 53.764043 
L 74.807666 54.820858 
L 76.432563 58.385937 
L 80.332318 66.903996 
L 83.907093 74.169045 
L 87.481867 80.94368 
L 91.056642 87.260998 
L 94.631417 93.151876 
L 98.206192 98.645096 
L 102.105946 104.215667 
L 106.0057 109.377302 
L 109.905455 114.160025 
L 113.805209 118.591647 
L 117.704963 122.697947 
L 121.604717 126.502802 
L 125.829451 130.310186 
L 130.054185 133.815728 
L 134.278919 137.043355 
L 138.828632 140.23369 
L 143.378346 143.152495 
L 148.253038 146.004688 
L 153.127731 148.597605 
L 158.327404 151.104118 
L 163.527076 153.368346 
L 169.051728 155.534774 
L 174.90136 157.587372 
L 181.075971 159.51385 
L 187.575561 161.305538 
L 194.400131 162.957174 
L 201.87466 164.530365 
L 209.674169 165.944378 
L 218.123636 167.251467 
L 227.548043 168.475992 
L 237.622408 169.558019 
L 248.996691 170.549029 
L 261.670893 171.422391 
L 275.969992 172.179872 
L 292.543948 172.829861 
L 312.367699 173.375567 
L 336.741163 173.812526 
L 368.264177 174.141826 
L 398.487273 174.314256 
L 398.487273 174.314256 
" clip-path="url(#p7ba0e6b6a7)" style="fill: none; stroke: #008000; stroke-width: 1.5; stroke-linecap: square"/>
   </g>
   <g id="patch_3">
    <path d="M 57.6 307.584 
L 57.6 41.472 
" style="fill: none; stroke: #000000; stroke-width: 0.8; stroke-linejoin: miter; stroke-linecap: square"/>
   </g>
   <g id="patch_4">
    <path d="M 414.72 307.584 
L 414.72 41.472 
" style="fill: none; stroke: #000000; stroke-width: 0.8; stroke-linejoin: miter; stroke-linecap: square"/>
   </g>
   <g id="patch_5">
    <path d="M 57.6 307.584 
L 414.72 307.584 
" style="fill: none; stroke: #000000; stroke-width: 0.8; stroke-linejoin: miter; stroke-linecap: square"/>
   </g>
   <g id="patch_6">
    <path d="M 57.6 41.472 
L 414.72 41.472 
" style="fill: none; stroke: #000000; stroke-width: 0.8; stroke-linejoin: miter; stroke-linecap: square"/>
   </g>
   <g id="legend_1">
    <g id="patch_7">
     <path d="M 295.021563 108.1845 
L 407.72 108.1845 
Q 409.72 108.1845 409.72 106.1845 
L 409.72 48.472 
Q 409.72 46.472 407.72 46.472 
L 295.021563 46.472 
Q 293.021563 46.472 293.021563 48.472 
L 293.021563 106.1845 
Q 293.021563 108.1845 295.021563 108.1845 
z
" style="fill: #ffffff; opacity: 0.8; stroke: #cccccc; stroke-linejoin: miter"/>
    </g>
    <g id="line2d_20">
     <path d="M 297.021563 54.570438 
L 307.021563 54.570438 
L 317.021563 54.570438 
" style="fill: none; stroke: #000000; stroke-width: 0.25; stroke-linecap: square"/>
    </g>
    <g id="text_16">
     <!-- undamped -->
     <g transform="translate(325.021563 58.070438)scale(0.1 -0.1)">
      <defs>
       <path id="DejaVuSans-75" d="M 544 1381 
L 544 3500 
L 1119 3500 
L 1119 1403 
Q 1119 906 1312 657 
Q 1506 409 1894 409 
Q 2359 409 2629 706 
Q 2900 1003 2900 1516 
L 2900 3500 
L 3475 3500 
L 3475 0 
L 2900 0 
L 2900 538 
Q 2691 219 2414 64 
Q 2138 -91 1772 -91 
Q 1169 -91 856 284 
Q 544 659 544 1381 
z
M 1991 3584 
L 1991 3584 
z
" transform="scale(0.015625)"/>
       <path id="DejaVuSans-6e" d="M 3513 2113 
L 3513 0 
L 2938 0 
L 2938 2094 
Q 2938 2591 2744 2837 
Q 2550 3084 2163 3084 
Q 1697 3084 1428 2787 
Q 1159 2491 1159 1978 
L 1159 0 
L 581 0 
L 581 3500 
L 1159 3500 
L 1159 2956 
Q 1366 3272 1645 3428 
Q 1925 3584 2291 3584 
Q 2894 3584 3203 3211 
Q 3513 2838 3513 2113 
z
" transform="scale(0.015625)"/>
       <path id="DejaVuSans-64" d="M 2906 2969 
L 2906 4863 
L 3481 4863 
L 3481 0 
L 2906 0 
L 2906 525 
Q 2725 213 2448 61 
Q 2172 -91 1784 -91 
Q 1150 -91 751 415 
Q 353 922 353 1747 
Q 353 2572 751 3078 
Q 1150 3584 1784 3584 
Q 2172 3584 2448 3432 
Q 2725 3281 2906 2969 
z
M 947 1747 
Q 947 1113 1208 752 
Q 1469 391 1925 391 
Q 2381 391 2643 752 
Q 2906 1113 2906 1747 
Q 2906 2381 2643 2742 
Q 2381 3103 1925 3103 
Q 1469 3103 1208 2742 
Q 947 2381 947 1747 
z
" transform="scale(0.015625)"/>
       <path id="DejaVuSans-61" d="M 2194 1759 
Q 1497 1759 1228 1600 
Q 959 1441 959 1056 
Q 959 750 1161 570 
Q 1363 391 1709 391 
Q 2188 391 2477 730 
Q 2766 1069 2766 1631 
L 2766 1759 
L 2194 1759 
z
M 3341 1997 
L 3341 0 
L 2766 0 
L 2766 531 
Q 2569 213 2275 61 
Q 1981 -91 1556 -91 
Q 1019 -91 701 211 
Q 384 513 384 1019 
Q 384 1609 779 1909 
Q 1175 2209 1959 2209 
L 2766 2209 
L 2766 2266 
Q 2766 2663 2505 2880 
Q 2244 3097 1772 3097 
Q 1472 3097 1187 3025 
Q 903 2953 641 2809 
L 641 3341 
Q 956 3463 1253 3523 
Q 1550 3584 1831 3584 
Q 2591 3584 2966 3190 
Q 3341 2797 3341 1997 
z
" transform="scale(0.015625)"/>
       <path id="DejaVuSans-6d" d="M 3328 2828 
Q 3544 3216 3844 3400 
Q 4144 3584 4550 3584 
Q 5097 3584 5394 3201 
Q 5691 2819 5691 2113 
L 5691 0 
L 5113 0 
L 5113 2094 
Q 5113 2597 4934 2840 
Q 4756 3084 4391 3084 
Q 3944 3084 3684 2787 
Q 3425 2491 3425 1978 
L 3425 0 
L 2847 0 
L 2847 2094 
Q 2847 2600 2669 2842 
Q 2491 3084 2119 3084 
Q 1678 3084 1418 2786 
Q 1159 2488 1159 1978 
L 1159 0 
L 581 0 
L 581 3500 
L 1159 3500 
L 1159 2956 
Q 1356 3278 1631 3431 
Q 1906 3584 2284 3584 
Q 2666 3584 2933 3390 
Q 3200 3197 3328 2828 
z
" transform="scale(0.015625)"/>
       <path id="DejaVuSans-70" d="M 1159 525 
L 1159 -1331 
L 581 -1331 
L 581 3500 
L 1159 3500 
L 1159 2969 
Q 1341 3281 1617 3432 
Q 1894 3584 2278 3584 
Q 2916 3584 3314 3078 
Q 3713 2572 3713 1747 
Q 3713 922 3314 415 
Q 2916 -91 2278 -91 
Q 1894 -91 1617 61 
Q 1341 213 1159 525 
z
M 3116 1747 
Q 3116 2381 2855 2742 
Q 2594 3103 2138 3103 
Q 1681 3103 1420 2742 
Q 1159 2381 1159 1747 
Q 1159 1113 1420 752 
Q 1681 391 2138 391 
Q 2594 391 2855 752 
Q 3116 1113 3116 1747 
z
" transform="scale(0.015625)"/>
       <path id="DejaVuSans-65" d="M 3597 1894 
L 3597 1613 
L 953 1613 
Q 991 1019 1311 708 
Q 1631 397 2203 397 
Q 2534 397 2845 478 
Q 3156 559 3463 722 
L 3463 178 
Q 3153 47 2828 -22 
Q 2503 -91 2169 -91 
Q 1331 -91 842 396 
Q 353 884 353 1716 
Q 353 2575 817 3079 
Q 1281 3584 2069 3584 
Q 2775 3584 3186 3129 
Q 3597 2675 3597 1894 
z
M 3022 2063 
Q 3016 2534 2758 2815 
Q 2500 3097 2075 3097 
Q 1594 3097 1305 2825 
Q 1016 2553 972 2059 
L 3022 2063 
z
" transform="scale(0.015625)"/>
      </defs>
      <use xlink:href="#DejaVuSans-75"/>
      <use xlink:href="#DejaVuSans-6e" x="63.378906"/>
      <use xlink:href="#DejaVuSans-64" x="126.757812"/>
      <use xlink:href="#DejaVuSans-61" x="190.234375"/>
      <use xlink:href="#DejaVuSans-6d" x="251.513672"/>
      <use xlink:href="#DejaVuSans-70" x="348.925781"/>
      <use xlink:href="#DejaVuSans-65" x="412.402344"/>
      <use xlink:href="#DejaVuSans-64" x="473.925781"/>
     </g>
    </g>
    <g id="line2d_21">
     <path d="M 297.021563 69.248563 
L 307.021563 69.248563 
L 317.021563 69.248563 
" style="fill: none; stroke: #ff0000; stroke-width: 1.5; stroke-linecap: square"/>
    </g>
    <g id="text_17">
     <!-- under damped -->
     <g transform="translate(325.021563 72.748563)scale(0.1 -0.1)">
      <defs>
       <path id="DejaVuSans-72" d="M 2631 2963 
Q 2534 3019 2420 3045 
Q 2306 3072 2169 3072 
Q 1681 3072 1420 2755 
Q 1159 2438 1159 1844 
L 1159 0 
L 581 0 
L 581 3500 
L 1159 3500 
L 1159 2956 
Q 1341 3275 1631 3429 
Q 1922 3584 2338 3584 
Q 2397 3584 2469 3576 
Q 2541 3569 2628 3553 
L 2631 2963 
z
" transform="scale(0.015625)"/>
       <path id="DejaVuSans-20" transform="scale(0.015625)"/>
      </defs>
      <use xlink:href="#DejaVuSans-75"/>
      <use xlink:href="#DejaVuSans-6e" x="63.378906"/>
      <use xlink:href="#DejaVuSans-64" x="126.757812"/>
      <use xlink:href="#DejaVuSans-65" x="190.234375"/>
      <use xlink:href="#DejaVuSans-72" x="251.757812"/>
      <use xlink:href="#DejaVuSans-20" x="292.871094"/>
      <use xlink:href="#DejaVuSans-64" x="324.658203"/>
      <use xlink:href="#DejaVuSans-61" x="388.134766"/>
      <use xlink:href="#DejaVuSans-6d" x="449.414062"/>
      <use xlink:href="#DejaVuSans-70" x="546.826172"/>
      <use xlink:href="#DejaVuSans-65" x="610.302734"/>
      <use xlink:href="#DejaVuSans-64" x="671.826172"/>
     </g>
    </g>
    <g id="line2d_22">
     <path d="M 297.021563 83.926688 
L 307.021563 83.926688 
L 317.021563 83.926688 
" style="fill: none; stroke: #0000ff; stroke-width: 1.5; stroke-linecap: square"/>
    </g>
    <g id="text_18">
     <!-- critical damping -->
     <g transform="translate(325.021563 87.426688)scale(0.1 -0.1)">
      <defs>
       <path id="DejaVuSans-63" d="M 3122 3366 
L 3122 2828 
Q 2878 2963 2633 3030 
Q 2388 3097 2138 3097 
Q 1578 3097 1268 2742 
Q 959 2388 959 1747 
Q 959 1106 1268 751 
Q 1578 397 2138 397 
Q 2388 397 2633 464 
Q 2878 531 3122 666 
L 3122 134 
Q 2881 22 2623 -34 
Q 2366 -91 2075 -91 
Q 1284 -91 818 406 
Q 353 903 353 1747 
Q 353 2603 823 3093 
Q 1294 3584 2113 3584 
Q 2378 3584 2631 3529 
Q 2884 3475 3122 3366 
z
" transform="scale(0.015625)"/>
       <path id="DejaVuSans-69" d="M 603 3500 
L 1178 3500 
L 1178 0 
L 603 0 
L 603 3500 
z
M 603 4863 
L 1178 4863 
L 1178 4134 
L 603 4134 
L 603 4863 
z
" transform="scale(0.015625)"/>
       <path id="DejaVuSans-74" d="M 1172 4494 
L 1172 3500 
L 2356 3500 
L 2356 3053 
L 1172 3053 
L 1172 1153 
Q 1172 725 1289 603 
Q 1406 481 1766 481 
L 2356 481 
L 2356 0 
L 1766 0 
Q 1100 0 847 248 
Q 594 497 594 1153 
L 594 3053 
L 172 3053 
L 172 3500 
L 594 3500 
L 594 4494 
L 1172 4494 
z
" transform="scale(0.015625)"/>
       <path id="DejaVuSans-6c" d="M 603 4863 
L 1178 4863 
L 1178 0 
L 603 0 
L 603 4863 
z
" transform="scale(0.015625)"/>
       <path id="DejaVuSans-67" d="M 2906 1791 
Q 2906 2416 2648 2759 
Q 2391 3103 1925 3103 
Q 1463 3103 1205 2759 
Q 947 2416 947 1791 
Q 947 1169 1205 825 
Q 1463 481 1925 481 
Q 2391 481 2648 825 
Q 2906 1169 2906 1791 
z
M 3481 434 
Q 3481 -459 3084 -895 
Q 2688 -1331 1869 -1331 
Q 1566 -1331 1297 -1286 
Q 1028 -1241 775 -1147 
L 775 -588 
Q 1028 -725 1275 -790 
Q 1522 -856 1778 -856 
Q 2344 -856 2625 -561 
Q 2906 -266 2906 331 
L 2906 616 
Q 2728 306 2450 153 
Q 2172 0 1784 0 
Q 1141 0 747 490 
Q 353 981 353 1791 
Q 353 2603 747 3093 
Q 1141 3584 1784 3584 
Q 2172 3584 2450 3431 
Q 2728 3278 2906 2969 
L 2906 3500 
L 3481 3500 
L 3481 434 
z
" transform="scale(0.015625)"/>
      </defs>
      <use xlink:href="#DejaVuSans-63"/>
      <use xlink:href="#DejaVuSans-72" x="54.980469"/>
      <use xlink:href="#DejaVuSans-69" x="96.09375"/>
      <use xlink:href="#DejaVuSans-74" x="123.876953"/>
      <use xlink:href="#DejaVuSans-69" x="163.085938"/>
      <use xlink:href="#DejaVuSans-63" x="190.869141"/>
      <use xlink:href="#DejaVuSans-61" x="245.849609"/>
      <use xlink:href="#DejaVuSans-6c" x="307.128906"/>
      <use xlink:href="#DejaVuSans-20" x="334.912109"/>
      <use xlink:href="#DejaVuSans-64" x="366.699219"/>
      <use xlink:href="#DejaVuSans-61" x="430.175781"/>
      <use xlink:href="#DejaVuSans-6d" x="491.455078"/>
      <use xlink:href="#DejaVuSans-70" x="588.867188"/>
      <use xlink:href="#DejaVuSans-69" x="652.34375"/>
      <use xlink:href="#DejaVuSans-6e" x="680.126953"/>
      <use xlink:href="#DejaVuSans-67" x="743.505859"/>
     </g>
    </g>
    <g id="line2d_23">
     <path d="M 297.021563 98.604813 
L 307.021563 98.604813 
L 317.021563 98.604813 
" style="fill: none; stroke: #008000; stroke-width: 1.5; stroke-linecap: square"/>
    </g>
    <g id="text_19">
     <!-- over damped -->
     <g transform="translate(325.021563 102.104813)scale(0.1 -0.1)">
      <defs>
       <path id="DejaVuSans-6f" d="M 1959 3097 
Q 1497 3097 1228 2736 
Q 959 2375 959 1747 
Q 959 1119 1226 758 
Q 1494 397 1959 397 
Q 2419 397 2687 759 
Q 2956 1122 2956 1747 
Q 2956 2369 2687 2733 
Q 2419 3097 1959 3097 
z
M 1959 3584 
Q 2709 3584 3137 3096 
Q 3566 2609 3566 1747 
Q 3566 888 3137 398 
Q 2709 -91 1959 -91 
Q 1206 -91 779 398 
Q 353 888 353 1747 
Q 353 2609 779 3096 
Q 1206 3584 1959 3584 
z
" transform="scale(0.015625)"/>
       <path id="DejaVuSans-76" d="M 191 3500 
L 800 3500 
L 1894 563 
L 2988 3500 
L 3597 3500 
L 2284 0 
L 1503 0 
L 191 3500 
z
" transform="scale(0.015625)"/>
      </defs>
      <use xlink:href="#DejaVuSans-6f"/>
      <use xlink:href="#DejaVuSans-76" x="61.181641"/>
      <use xlink:href="#DejaVuSans-65" x="120.361328"/>
      <use xlink:href="#DejaVuSans-72" x="181.884766"/>
      <use xlink:href="#DejaVuSans-20" x="222.998047"/>
      <use xlink:href="#DejaVuSans-64" x="254.785156"/>
      <use xlink:href="#DejaVuSans-61" x="318.261719"/>
      <use xlink:href="#DejaVuSans-6d" x="379.541016"/>
      <use xlink:href="#DejaVuSans-70" x="476.953125"/>
      <use xlink:href="#DejaVuSans-65" x="540.429688"/>
      <use xlink:href="#DejaVuSans-64" x="601.953125"/>
     </g>
    </g>
   </g>
  </g>
 </g>
 <defs>
  <clipPath id="p7ba0e6b6a7">
   <rect x="57.6" y="41.472" width="357.12" height="266.112"/>
  </clipPath>
 </defs>
</svg>
